<svg width="45" height="16" viewBox="0 0 45 16" fill="none" xmlns="http://www.w3.org/2000/svg">
<path fill-rule="evenodd" clip-rule="evenodd" d="M20.373 0.3683C20.4045 0.299901 20.515 0.189411 20.615 0.121013L20.7992 0H23.6035C25.1451 0 26.7077 0.0263071 27.076 0.0578757C27.4496 0.0841828 27.96 0.14732 28.223 0.189411C28.4861 0.236764 28.8281 0.305163 28.9859 0.347254C29.1438 0.389346 29.4279 0.473528 29.6173 0.536666C29.8067 0.599803 29.9856 0.668201 30.0119 0.694508C30.0382 0.715554 30.0961 0.7366 30.1277 0.7366C30.1645 0.7366 30.4381 0.857613 30.7327 1.00493C31.0326 1.15225 31.4746 1.4048 31.7166 1.56791C31.9639 1.73627 32.4006 2.09405 32.6847 2.36764C32.9741 2.64124 33.3424 3.05689 33.5055 3.28839C33.6686 3.5199 33.8896 3.86189 33.9948 4.0513C34.1 4.24071 34.2684 4.63006 34.3789 4.91943C34.4841 5.20881 34.6314 5.70339 34.7051 6.02433C34.8103 6.50312 34.8419 6.7925 34.8629 7.70799C34.884 8.66031 34.8735 8.90234 34.7788 9.47057C34.7209 9.83361 34.6157 10.3177 34.542 10.5492C34.4736 10.7807 34.3526 11.1227 34.2737 11.3121C34.2 11.5015 34.0527 11.8066 33.9527 11.9961C33.8475 12.1855 33.6528 12.4906 33.5213 12.68C33.3845 12.8695 33.1214 13.1851 32.932 13.3851C32.7426 13.585 32.4111 13.8902 32.1954 14.0638C31.9797 14.2374 31.6693 14.4637 31.5114 14.5636C31.3536 14.6636 30.9958 14.8583 30.7222 15.0003C30.4486 15.1371 30.0119 15.3213 29.7488 15.4107C29.4858 15.5002 29.1438 15.6054 28.9859 15.6475C28.8281 15.6896 28.4966 15.758 28.2493 15.8053C28.002 15.8474 27.4812 15.9106 27.0918 15.9421C26.7025 15.9684 25.124 15.9947 20.8044 16L20.6203 15.8737C20.5203 15.8106 20.4045 15.6948 20.373 15.6264C20.3204 15.5212 20.3046 13.8428 20.3046 7.99737C20.3046 2.15192 20.3204 0.473528 20.373 0.3683ZM11.2076 0.363039C11.3374 0.194673 11.4601 0.0929519 11.5759 0.0578757C11.6811 0.0263071 13.1069 0.0105229 15.0958 0.0157843C17.9632 0.0263071 18.4526 0.03683 18.5578 0.105229C18.6262 0.14732 18.7262 0.273594 18.784 0.378823C18.8787 0.573496 18.884 0.789214 18.884 8.0342C18.884 13.8533 18.8682 15.5212 18.8156 15.6212C18.784 15.6896 18.6841 15.8001 18.6051 15.8579C18.4578 15.9684 18.4052 15.9684 16.2112 15.9684C14.3276 15.9684 13.9383 15.9579 13.7857 15.8895C13.691 15.8474 13.57 15.7369 13.5226 15.6527C13.4647 15.537 13.4384 15.3108 13.4121 14.1006H10.6341C9.10826 14.1006 7.835 14.1217 7.80343 14.1427C7.77712 14.1638 7.54036 14.4952 7.27729 14.8846C7.01947 15.2687 6.75114 15.6527 6.67748 15.7422C6.58804 15.8474 6.47229 15.9106 6.30918 15.9421C6.17765 15.9684 4.92543 15.9895 3.52063 15.9895C1.68439 15.9895 0.916219 15.9737 0.784684 15.9263C0.679455 15.8895 0.553181 15.7895 0.484782 15.6791C0.416384 15.5791 0.36377 15.4212 0.36377 15.3371C0.36377 15.2529 0.432168 15.074 0.521612 14.9425C0.605795 14.8109 0.716285 14.6478 0.768899 14.5742C0.821514 14.5005 1.10563 14.1111 1.40553 13.706L1.66256 13.3591L1.66259 13.359L1.66306 13.3584C1.85592 13.0982 2.01038 12.8898 2.04743 12.8379C2.0845 12.786 2.23913 12.5773 2.43216 12.3169L2.68932 11.9697C2.98922 11.5646 3.35226 11.07 3.49432 10.8648C3.59309 10.7222 3.71985 10.549 3.81975 10.4125C3.86354 10.3526 3.90216 10.2999 3.93102 10.2598C4.00261 10.1603 4.08323 10.0549 4.13195 9.99116L4.16778 9.9441C4.19256 9.91578 4.23876 9.85175 4.28878 9.78244L4.28881 9.7824L4.28883 9.78237L4.28884 9.78235C4.31316 9.74865 4.33837 9.71372 4.36245 9.68103C4.43085 9.58106 4.50451 9.48635 4.5203 9.47057C4.53608 9.45479 4.60974 9.36008 4.67814 9.26011C4.74654 9.16015 4.8202 9.06544 4.83598 9.04965C4.85279 9.03705 4.91319 8.95067 4.98773 8.84405L4.98774 8.84404L4.98775 8.84403L5.04644 8.76028C5.14641 8.61296 5.24111 8.48668 5.2569 8.4709C5.27268 8.45511 5.37265 8.32358 5.46735 8.18152C5.56732 8.0342 5.67781 7.88162 5.71464 7.83953C5.73196 7.81644 5.85058 7.65564 6.02276 7.42223L6.53016 6.73463C6.7118 6.48861 6.92358 6.2004 7.12862 5.92136L7.12864 5.92133C7.3928 5.56183 7.64577 5.21756 7.80869 4.99836C7.9277 4.83527 8.05963 4.65557 8.1836 4.48671L8.18361 4.4867L8.18374 4.48652L8.18395 4.48624C8.35581 4.25215 8.51235 4.03893 8.5979 3.91976C8.6773 3.80917 8.78268 3.66648 8.88439 3.52877L8.88449 3.52864L8.88455 3.52855C8.9715 3.41082 9.05576 3.29674 9.11878 3.20947C9.19652 3.10184 9.28104 2.98742 9.3492 2.89516L9.34931 2.895L9.34939 2.8949C9.40109 2.82491 9.44335 2.76771 9.46604 2.73594C9.50238 2.68506 9.62407 2.52123 9.77042 2.32419L9.77081 2.32367L9.9764 2.0467C10.2026 1.74153 10.5288 1.29431 10.7025 1.05229C10.7624 0.970506 10.8287 0.879312 10.8941 0.789325L10.8941 0.789264C11.018 0.618746 11.1387 0.452575 11.2076 0.363039ZM34.2421 0.131536C34.2421 0.173627 34.3473 0.384084 34.4736 0.594541C34.5999 0.799737 34.8472 1.25748 35.0208 1.60474C35.1944 1.95199 35.4417 2.5097 35.5732 2.84117C35.7048 3.17264 35.8995 3.683 35.9994 3.97238C36.1046 4.26176 36.2467 4.74581 36.3256 5.05097C36.3993 5.35613 36.515 5.93489 36.5834 6.34002C36.6518 6.74515 36.7202 7.26603 36.736 7.49753C36.7518 7.72904 36.7465 8.24466 36.715 8.64453C36.6887 9.04439 36.5834 9.78099 36.4782 10.3019C36.3782 10.8122 36.2572 11.3857 36.2099 11.5751C36.1678 11.7646 36.0626 12.1329 35.9784 12.3907C35.8942 12.6537 35.7627 13.0326 35.6785 13.2325L35.6434 13.3131L35.6432 13.3135C35.5569 13.5118 35.447 13.7645 35.3733 13.9165C35.2944 14.0901 35.0997 14.4584 34.9366 14.732C34.7735 15.0056 34.5315 15.3844 34.3894 15.5738C34.2526 15.7632 34.1527 15.9316 34.1632 15.9579C34.179 15.979 34.3842 15.9947 34.6262 15.9947L35.0576 15.9895C35.368 15.6475 35.5838 15.3844 35.7363 15.1792C35.8889 14.9793 36.1099 14.6478 36.2309 14.4426C36.3519 14.2427 36.5677 13.827 36.7097 13.5219C36.8518 13.2167 37.078 12.6485 37.2095 12.2591C37.3411 11.8698 37.5042 11.2542 37.5778 10.8912C37.6462 10.5281 37.7567 9.8073 37.8199 9.28642C37.9093 8.56034 37.9304 8.20257 37.9041 7.76061C37.883 7.44492 37.8304 6.97139 37.7883 6.70832C37.7462 6.45051 37.662 6.00855 37.6042 5.73496C37.5463 5.46136 37.4621 5.11937 37.4253 4.97205C37.3884 4.82999 37.299 4.49852 37.2253 4.23545C37.1517 3.97764 37.0044 3.55146 36.8991 3.28839C36.7939 3.03058 36.5782 2.55705 36.4203 2.23611C36.2572 1.92042 35.931 1.36271 35.689 0.999671C35.447 0.636633 35.1839 0.278856 35.1155 0.199934C34.9945 0.0683986 34.9471 0.0526143 34.6104 0.0526143C34.321 0.0526143 34.2421 0.0683986 34.2421 0.131536ZM38.0619 0.631371C37.8988 0.357777 37.7673 0.115751 37.7673 0.0947057C37.7673 0.0683986 37.9461 0.0526143 38.5565 0.0526143L38.7301 0.278856C38.8195 0.399868 38.909 0.510358 38.9248 0.526143C38.9373 0.538635 38.9827 0.600558 39.0376 0.675399L39.0826 0.7366C39.1443 0.820371 39.2541 0.985424 39.35 1.12959L39.4036 1.21013C39.5088 1.36797 39.6877 1.6784 39.8087 1.89411C39.9297 2.10983 40.1454 2.56232 40.2927 2.89379C40.4401 3.22526 40.6242 3.68826 40.6926 3.91976C40.7663 4.15127 40.8978 4.62479 40.9873 4.97205C41.0714 5.3193 41.203 5.89806 41.2766 6.2611C41.3766 6.75041 41.4187 7.15028 41.4345 7.83953C41.4555 8.52351 41.4397 8.9339 41.3766 9.44426C41.3292 9.82308 41.2188 10.4755 41.1346 10.9069C41.0504 11.3331 40.8925 11.9329 40.7873 12.2486C40.6874 12.559 40.4138 13.1904 40.1875 13.6534C39.9613 14.1164 39.6403 14.6846 39.4772 14.9161C39.3089 15.1476 39.0405 15.4844 38.5828 16L38.1777 15.9947C37.862 15.9947 37.762 15.979 37.741 15.9158C37.7304 15.8737 37.7778 15.7738 37.8462 15.6948C37.9198 15.6107 37.9777 15.537 37.9777 15.5212C37.9777 15.5054 38.0251 15.437 38.0882 15.3634C38.1513 15.2897 38.2987 15.0687 38.4144 14.8635C38.5354 14.6636 38.7564 14.2374 38.909 13.9165C39.0563 13.6008 39.2668 13.1115 39.3667 12.8379C39.472 12.5643 39.6351 12.0066 39.7403 11.6014C39.8403 11.1963 39.9718 10.6176 40.0297 10.3124C40.0875 10.0072 40.1717 9.46531 40.2138 9.10227C40.2559 8.73923 40.2927 8.22361 40.2927 7.96054C40.2927 7.69221 40.2454 7.1345 40.1875 6.7241C40.1244 6.30845 40.0297 5.76126 39.9718 5.49819C39.9139 5.24038 39.7982 4.77738 39.714 4.47221C39.6298 4.16705 39.4562 3.64617 39.3299 3.3147C39.2036 2.98323 39.0458 2.59388 38.9774 2.44656C38.9142 2.30451 38.7459 1.94673 38.6091 1.65735C38.467 1.36797 38.2197 0.904966 38.0619 0.631371ZM41.2766 0.0947057C41.2608 0.115751 41.324 0.236764 41.4134 0.3683C41.4976 0.499836 41.7396 0.936534 41.9501 1.34166C42.1553 1.74679 42.3815 2.2098 42.4499 2.36764C42.5183 2.52549 42.6183 2.75699 42.6709 2.88326C42.7235 3.00428 42.8761 3.41993 43.0076 3.80401C43.1392 4.18284 43.3023 4.73528 43.3707 5.02466C43.4391 5.31404 43.5443 5.8244 43.6074 6.15587C43.6706 6.48734 43.739 7.04505 43.7653 7.39231C43.7916 7.74482 43.7916 8.30253 43.7653 8.65505C43.739 9.0023 43.6706 9.56001 43.6074 9.89148C43.5443 10.223 43.4233 10.8175 43.3391 11.2068C43.2497 11.5962 43.1129 12.1329 43.0287 12.3907C42.9498 12.6537 42.8551 12.9378 42.8182 13.022C42.7814 13.1115 42.6972 13.3062 42.6288 13.4587C42.5604 13.6061 42.5025 13.7481 42.5025 13.7744C42.5025 13.7955 42.3921 14.027 42.2605 14.2848C42.1237 14.5478 41.8975 14.9372 41.7502 15.1529C41.6081 15.3686 41.4187 15.6317 41.3398 15.7317C41.2556 15.8316 41.2082 15.9369 41.2293 15.9579C41.2503 15.979 41.4608 15.9947 41.7028 15.9947H42.1342C42.6709 15.3634 42.9392 15.0161 43.0708 14.8109C43.2023 14.611 43.4601 14.148 43.639 13.7849C43.8179 13.4219 44.0126 12.9852 44.081 12.8116C44.1441 12.6379 44.2178 12.4538 44.2441 12.4064C44.2704 12.3538 44.3861 11.9382 44.5019 11.4857C44.6176 11.028 44.765 10.3124 44.8281 9.89148C44.9228 9.28642 44.9438 8.91812 44.9438 8.12891C44.9386 7.28708 44.9175 7.00822 44.8018 6.36633C44.7229 5.94541 44.6176 5.42453 44.5598 5.20881C44.5071 4.99309 44.423 4.67215 44.3756 4.49852C44.3283 4.32489 44.2388 4.04078 44.1809 3.86715C44.1178 3.69352 44.002 3.37784 43.9179 3.17264C43.8337 2.96218 43.6495 2.55705 43.5022 2.2782C43.3602 1.99408 43.1813 1.65735 43.1023 1.52581C43.0287 1.39428 42.8708 1.14699 42.7498 0.973364C42.6341 0.799737 42.5236 0.647156 42.5078 0.631371C42.4868 0.615587 42.4131 0.520881 42.3447 0.420914C42.2763 0.320947 42.1816 0.194673 42.1342 0.142059C42.0764 0.07366 41.9764 0.0526143 41.6765 0.0526143C41.4713 0.0526143 41.2872 0.0683986 41.2766 0.0947057ZM25.1661 8.00263L25.1714 11.7488C26.4078 11.733 26.9077 11.6909 27.1181 11.6488C27.3233 11.6067 27.618 11.5173 27.7758 11.4541C27.9336 11.3857 28.2072 11.2437 28.3756 11.1279C28.5492 11.0122 28.8386 10.7491 29.028 10.5492C29.2648 10.2914 29.4332 10.0388 29.591 9.70733C29.712 9.44426 29.8541 9.05492 29.9067 8.8392C29.9803 8.52351 29.9961 8.30779 29.9698 7.78691C29.954 7.42387 29.9067 6.98717 29.8593 6.81355C29.812 6.63992 29.7068 6.3558 29.6278 6.18218C29.5436 6.00855 29.3858 5.73496 29.2701 5.57711C29.1543 5.41927 28.9386 5.18777 28.7965 5.06675C28.6545 4.94048 28.3756 4.76159 28.1704 4.66162C27.9705 4.5564 27.6601 4.43538 27.4864 4.38803C27.2602 4.32489 26.8814 4.29332 26.1658 4.27754L25.1556 4.25123L25.1661 8.00263ZM12.5249 6.15082L12.5246 6.15124C12.388 6.3656 12.2451 6.5897 12.1178 6.78724C11.8126 7.26603 11.3549 7.97632 11.1023 8.36567C10.9896 8.54177 10.8633 8.73674 10.7463 8.91736L10.7462 8.91742L10.7461 8.91766C10.6009 9.14166 10.4701 9.34356 10.3973 9.46005C10.2605 9.6705 10.1553 9.85465 10.1553 9.86518C10.1553 9.88096 10.8866 9.89148 11.7863 9.89148H13.4174C13.4174 6.01907 13.3963 4.89313 13.3753 4.89313C13.349 4.89313 13.1806 5.12463 13.0017 5.40875C12.8944 5.5712 12.7157 5.85149 12.5249 6.15082Z" fill="white"/>
</svg>
