<svg width="31" height="21" viewBox="0 0 31 21" fill="none" xmlns="http://www.w3.org/2000/svg">
<path d="M0.357955 21L1.40909 14.8636C1.71212 13.1212 2.34659 11.3409 3.3125 9.52273C4.29735 7.70455 5.48106 5.99053 6.86364 4.38068C8.26515 2.77083 9.72349 1.42613 11.2386 0.34659L16.0114 3.5C14.6667 5.16667 13.5019 6.90909 12.517 8.72727C11.5322 10.5455 10.8598 12.572 10.5 14.8068L9.44886 21H0.357955ZM14.7045 21L15.7557 14.8636C16.0587 13.1212 16.6932 11.3409 17.6591 9.52273C18.6439 7.70455 19.8277 5.99053 21.2102 4.38068C22.6117 2.77083 24.0701 1.42613 25.5852 0.34659L30.358 3.5C29.0133 5.16667 27.8485 6.90909 26.8636 8.72727C25.8788 10.5455 25.2064 12.572 24.8466 14.8068L23.7955 21H14.7045Z" fill="#F4C91D" fill-opacity="0.5"/>
</svg>
