<svg width="40" height="40" viewBox="0 0 40 40" fill="none" xmlns="http://www.w3.org/2000/svg">
<rect width="40" height="40" rx="8" fill="#1C1C1C"/>
<path d="M11 14C11 13.8011 11.079 13.6103 11.2197 13.4697C11.3603 13.329 11.5511 13.25 11.75 13.25H28.25C28.4489 13.25 28.6397 13.329 28.7803 13.4697C28.921 13.6103 29 13.8011 29 14C29 14.1989 28.921 14.3897 28.7803 14.5303C28.6397 14.671 28.4489 14.75 28.25 14.75H11.75C11.5511 14.75 11.3603 14.671 11.2197 14.5303C11.079 14.3897 11 14.1989 11 14ZM20.75 19.25H11.75C11.5511 19.25 11.3603 19.329 11.2197 19.4697C11.079 19.6103 11 19.8011 11 20C11 20.1989 11.079 20.3897 11.2197 20.5303C11.3603 20.671 11.5511 20.75 11.75 20.75H20.75C20.9489 20.75 21.1397 20.671 21.2803 20.5303C21.421 20.3897 21.5 20.1989 21.5 20C21.5 19.8011 21.421 19.6103 21.2803 19.4697C21.1397 19.329 20.9489 19.25 20.75 19.25ZM20.75 25.25H11.75C11.5511 25.25 11.3603 25.329 11.2197 25.4697C11.079 25.6103 11 25.8011 11 26C11 26.1989 11.079 26.3897 11.2197 26.5303C11.3603 26.671 11.5511 26.75 11.75 26.75H20.75C20.9489 26.75 21.1397 26.671 21.2803 26.5303C21.421 26.3897 21.5 26.1989 21.5 26C21.5 25.8011 21.421 25.6103 21.2803 25.4697C21.1397 25.329 20.9489 25.25 20.75 25.25ZM31.25 23C31.2499 23.1271 31.2176 23.2522 31.1559 23.3634C31.0942 23.4746 31.0053 23.5682 30.8975 23.6356L24.8975 27.3856C24.784 27.4566 24.6536 27.4958 24.5198 27.4994C24.386 27.5029 24.2537 27.4706 24.1366 27.4057C24.0195 27.3408 23.9219 27.2458 23.8539 27.1305C23.786 27.0152 23.7501 26.8838 23.75 26.75V19.25C23.7501 19.1162 23.786 18.9848 23.8539 18.8695C23.9219 18.7542 24.0195 18.6592 24.1366 18.5943C24.2537 18.5294 24.386 18.4971 24.5198 18.5006C24.6536 18.5042 24.784 18.5434 24.8975 18.6144L30.8975 22.3644C31.0053 22.4318 31.0942 22.5254 31.1559 22.6366C31.2176 22.7478 31.2499 22.8729 31.25 23ZM29.0853 23L25.25 20.6028V25.3972L29.0853 23Z" fill="white"/>
</svg>
