<svg width="24" height="26" viewBox="0 0 24 26" fill="none" xmlns="http://www.w3.org/2000/svg">
<path d="M22 2H19V1C19 0.734784 18.8946 0.48043 18.7071 0.292893C18.5196 0.105357 18.2652 0 18 0C17.7348 0 17.4804 0.105357 17.2929 0.292893C17.1054 0.48043 17 0.734784 17 1V2H7V1C7 0.734784 6.89464 0.48043 6.70711 0.292893C6.51957 0.105357 6.26522 0 6 0C5.73478 0 5.48043 0.105357 5.29289 0.292893C5.10536 0.48043 5 0.734784 5 1V2H2C1.46957 2 0.960859 2.21071 0.585786 2.58579C0.210714 2.96086 0 3.46957 0 4V24C0 24.5304 0.210714 25.0391 0.585786 25.4142C0.960859 25.7893 1.46957 26 2 26H22C22.5304 26 23.0391 25.7893 23.4142 25.4142C23.7893 25.0391 24 24.5304 24 24V4C24 3.46957 23.7893 2.96086 23.4142 2.58579C23.0391 2.21071 22.5304 2 22 2ZM6.5 21C6.20333 21 5.91332 20.912 5.66665 20.7472C5.41997 20.5824 5.22771 20.3481 5.11418 20.074C5.00065 19.7999 4.97094 19.4983 5.02882 19.2074C5.0867 18.9164 5.22956 18.6491 5.43934 18.4393C5.64912 18.2296 5.91639 18.0867 6.20736 18.0288C6.49834 17.9709 6.79994 18.0007 7.07403 18.1142C7.34811 18.2277 7.58238 18.42 7.7472 18.6666C7.91203 18.9133 8 19.2033 8 19.5C8 19.8978 7.84196 20.2794 7.56066 20.5607C7.27936 20.842 6.89782 21 6.5 21ZM12 21C11.7033 21 11.4133 20.912 11.1666 20.7472C10.92 20.5824 10.7277 20.3481 10.6142 20.074C10.5006 19.7999 10.4709 19.4983 10.5288 19.2074C10.5867 18.9164 10.7296 18.6491 10.9393 18.4393C11.1491 18.2296 11.4164 18.0867 11.7074 18.0288C11.9983 17.9709 12.2999 18.0007 12.574 18.1142C12.8481 18.2277 13.0824 18.42 13.2472 18.6666C13.412 18.9133 13.5 19.2033 13.5 19.5C13.5 19.8978 13.342 20.2794 13.0607 20.5607C12.7794 20.842 12.3978 21 12 21ZM12 16C11.7033 16 11.4133 15.912 11.1666 15.7472C10.92 15.5824 10.7277 15.3481 10.6142 15.074C10.5006 14.7999 10.4709 14.4983 10.5288 14.2074C10.5867 13.9164 10.7296 13.6491 10.9393 13.4393C11.1491 13.2296 11.4164 13.0867 11.7074 13.0288C11.9983 12.9709 12.2999 13.0006 12.574 13.1142C12.8481 13.2277 13.0824 13.42 13.2472 13.6666C13.412 13.9133 13.5 14.2033 13.5 14.5C13.5 14.8978 13.342 15.2794 13.0607 15.5607C12.7794 15.842 12.3978 16 12 16ZM17.5 21C17.2033 21 16.9133 20.912 16.6666 20.7472C16.42 20.5824 16.2277 20.3481 16.1142 20.074C16.0007 19.7999 15.9709 19.4983 16.0288 19.2074C16.0867 18.9164 16.2296 18.6491 16.4393 18.4393C16.6491 18.2296 16.9164 18.0867 17.2074 18.0288C17.4983 17.9709 17.7999 18.0007 18.074 18.1142C18.3481 18.2277 18.5824 18.42 18.7472 18.6666C18.912 18.9133 19 19.2033 19 19.5C19 19.8978 18.842 20.2794 18.5607 20.5607C18.2794 20.842 17.8978 21 17.5 21ZM17.5 16C17.2033 16 16.9133 15.912 16.6666 15.7472C16.42 15.5824 16.2277 15.3481 16.1142 15.074C16.0007 14.7999 15.9709 14.4983 16.0288 14.2074C16.0867 13.9164 16.2296 13.6491 16.4393 13.4393C16.6491 13.2296 16.9164 13.0867 17.2074 13.0288C17.4983 12.9709 17.7999 13.0006 18.074 13.1142C18.3481 13.2277 18.5824 13.42 18.7472 13.6666C18.912 13.9133 19 14.2033 19 14.5C19 14.8978 18.842 15.2794 18.5607 15.5607C18.2794 15.842 17.8978 16 17.5 16ZM22 8H2V4H5V5C5 5.26522 5.10536 5.51957 5.29289 5.70711C5.48043 5.89464 5.73478 6 6 6C6.26522 6 6.51957 5.89464 6.70711 5.70711C6.89464 5.51957 7 5.26522 7 5V4H17V5C17 5.26522 17.1054 5.51957 17.2929 5.70711C17.4804 5.89464 17.7348 6 18 6C18.2652 6 18.5196 5.89464 18.7071 5.70711C18.8946 5.51957 19 5.26522 19 5V4H22V8Z" fill="#F4C91D"/>
</svg>
