<svg width="80" height="80" viewBox="0 0 80 80" fill="none" xmlns="http://www.w3.org/2000/svg">
<circle cx="40" cy="40" r="35" fill="#021705"/>
<path d="M80 40C80 62.0914 62.0914 80 40 80C17.9086 80 0 62.0914 0 40C0 17.9086 17.9086 0 40 0C62.0914 0 80 17.9086 80 40ZM7.45813 40C7.45813 57.9724 22.0276 72.5419 40 72.5419C57.9724 72.5419 72.5419 57.9724 72.5419 40C72.5419 22.0276 57.9724 7.45813 40 7.45813C22.0276 7.45813 7.45813 22.0276 7.45813 40Z" fill="#D9D9D9"/>
<path d="M40 3.72906C40 1.66956 41.6732 -0.0180571 43.7238 0.173617C52.5064 0.994564 60.8113 4.70226 67.3077 10.7718C73.8041 16.8413 78.0668 24.8754 79.4819 33.5821C79.8123 35.6149 78.2421 37.3988 76.1873 37.5386C74.1326 37.6783 72.3752 36.1189 72.0015 34.0936C70.743 27.2746 67.3304 20.9997 62.2161 16.2215C57.1018 11.4432 50.6098 8.46425 43.7211 7.67148C41.6751 7.43602 40 5.78857 40 3.72906Z" fill="#1EED36"/>
<path d="M32.2734 46H24.7891V44.9141L27.8438 41.8125C28.4115 41.2396 28.888 40.7292 29.2734 40.2812C29.6641 39.8333 29.9609 39.3932 30.1641 38.9609C30.3672 38.5234 30.4688 38.0443 30.4688 37.5234C30.4688 36.8776 30.276 36.3854 29.8906 36.0469C29.5104 35.7031 29.0078 35.5312 28.3828 35.5312C27.8359 35.5312 27.3516 35.625 26.9297 35.8125C26.5078 36 26.0755 36.2656 25.6328 36.6094L24.9375 35.7344C25.2396 35.4792 25.5677 35.2526 25.9219 35.0547C26.2812 34.8568 26.6641 34.7005 27.0703 34.5859C27.4818 34.4714 27.9193 34.4141 28.3828 34.4141C29.0859 34.4141 29.6927 34.5365 30.2031 34.7812C30.7135 35.026 31.1068 35.375 31.3828 35.8281C31.6641 36.2812 31.8047 36.8203 31.8047 37.4453C31.8047 38.0495 31.6849 38.612 31.4453 39.1328C31.2057 39.6484 30.8698 40.1615 30.4375 40.6719C30.0052 41.1771 29.5 41.7135 28.9219 42.2812L26.4375 44.7578V44.8125H32.2734V46ZM41.0078 37.2422C41.0078 37.7526 40.9089 38.1953 40.7109 38.5703C40.513 38.9453 40.237 39.2526 39.8828 39.4922C39.5286 39.7266 39.112 39.8906 38.6328 39.9844V40.0469C39.5391 40.1615 40.2188 40.4531 40.6719 40.9219C41.1302 41.3906 41.3594 42.0052 41.3594 42.7656C41.3594 43.4271 41.2031 44.013 40.8906 44.5234C40.5833 45.0339 40.1094 45.4349 39.4688 45.7266C38.8333 46.013 38.0182 46.1562 37.0234 46.1562C36.4193 46.1562 35.8594 46.1068 35.3438 46.0078C34.8333 45.9141 34.3438 45.7552 33.875 45.5312V44.3125C34.349 44.5469 34.8646 44.7318 35.4219 44.8672C35.9792 44.9974 36.5182 45.0625 37.0391 45.0625C38.0807 45.0625 38.8333 44.8568 39.2969 44.4453C39.7604 44.0286 39.9922 43.4609 39.9922 42.7422C39.9922 42.2474 39.862 41.849 39.6016 41.5469C39.3464 41.2396 38.9766 41.0156 38.4922 40.875C38.013 40.7292 37.4349 40.6562 36.7578 40.6562H35.6172V39.5469H36.7656C37.3854 39.5469 37.9115 39.4557 38.3438 39.2734C38.776 39.0911 39.1042 38.8359 39.3281 38.5078C39.5573 38.1745 39.6719 37.7812 39.6719 37.3281C39.6719 36.75 39.4792 36.3047 39.0938 35.9922C38.7083 35.6745 38.1849 35.5156 37.5234 35.5156C37.1172 35.5156 36.7474 35.5573 36.4141 35.6406C36.0807 35.724 35.7682 35.8385 35.4766 35.9844C35.1849 36.1302 34.8932 36.2995 34.6016 36.4922L33.9453 35.6016C34.362 35.2786 34.8698 35 35.4688 34.7656C36.0677 34.5312 36.7474 34.4141 37.5078 34.4141C38.6745 34.4141 39.5495 34.6797 40.1328 35.2109C40.7161 35.7422 41.0078 36.4193 41.0078 37.2422ZM45.4297 34.4141C46.2109 34.4141 46.8021 34.7266 47.2031 35.3516C47.6094 35.9714 47.8125 36.849 47.8125 37.9844C47.8125 39.1198 47.6172 40.0052 47.2266 40.6406C46.8359 41.2708 46.237 41.5859 45.4297 41.5859C44.6797 41.5859 44.1042 41.2708 43.7031 40.6406C43.3073 40.0052 43.1094 39.1198 43.1094 37.9844C43.1094 36.849 43.2995 35.9714 43.6797 35.3516C44.0599 34.7266 44.6432 34.4141 45.4297 34.4141ZM45.4297 35.3438C45.0078 35.3438 44.6979 35.5651 44.5 36.0078C44.3021 36.4453 44.2031 37.1042 44.2031 37.9844C44.2031 38.8646 44.3021 39.5286 44.5 39.9766C44.6979 40.4245 45.0078 40.6484 45.4297 40.6484C45.8672 40.6484 46.1927 40.4245 46.4062 39.9766C46.6198 39.5286 46.7266 38.8646 46.7266 37.9844C46.7266 37.1094 46.6198 36.4505 46.4062 36.0078C46.1979 35.5651 45.8724 35.3438 45.4297 35.3438ZM52.6641 34.5781L46.3281 46H45.1875L51.5234 34.5781H52.6641ZM52.3594 38.9922C53.1354 38.9922 53.7266 39.3047 54.1328 39.9297C54.5391 40.5495 54.7422 41.4271 54.7422 42.5625C54.7422 43.6927 54.5469 44.5755 54.1562 45.2109C53.7656 45.8411 53.1667 46.1562 52.3594 46.1562C51.6042 46.1562 51.0286 45.8411 50.6328 45.2109C50.237 44.5755 50.0391 43.6927 50.0391 42.5625C50.0391 41.4271 50.2266 40.5495 50.6016 39.9297C50.9818 39.3047 51.5677 38.9922 52.3594 38.9922ZM52.3594 39.9297C51.9375 39.9297 51.6276 40.1484 51.4297 40.5859C51.2318 41.0234 51.1328 41.6823 51.1328 42.5625C51.1328 43.4427 51.2318 44.1068 51.4297 44.5547C51.6276 44.9974 51.9375 45.2188 52.3594 45.2188C52.7969 45.2188 53.1224 45 53.3359 44.5625C53.5495 44.1198 53.6562 43.4531 53.6562 42.5625C53.6562 41.6875 53.5495 41.0312 53.3359 40.5938C53.1276 40.151 52.8021 39.9297 52.3594 39.9297Z" fill="#0FDA27"/>
</svg>
