<svg width="131" height="38" viewBox="0 0 131 38" fill="none" xmlns="http://www.w3.org/2000/svg">
<path d="M52.2436 37.9999H48.0525L44.2891 32.6399L40.5257 37.9999H36.3346L42.1793 29.6463L36.3346 21.2642H40.5257L44.2891 26.6242L46.2278 23.8586L48.0525 21.2642H52.2436L48.3376 26.8523L46.3989 29.6463L52.2436 37.9999Z" fill="#F4C91D"/>
<path d="M33.3239 21.2927V38H29.9026V21.2927H33.3239Z" fill="#F4C91D"/>
<path d="M18.3725 21.2927V34.5787H26.8972V38H18.3725H14.9512V34.5787V30.8438V21.2927H18.3725Z" fill="#F4C91D"/>
<path d="M0 24.7425V21.2927H3.42128H11.946V24.7425H3.42128V25.4553V27.5651V27.9357H11.946V31.3855H3.42128V38H2.99362H2.56597H2.13831H1.71064H1.28298H0.855322H0.427661H0V35.1204V31.3855V27.9357V27.5651V25.4553V24.7425Z" fill="#F4C91D"/>
<path d="M119.78 13.9132L118.611 17.1064H114.961L121.034 0.370605H124.712L130.813 17.1064H127.135L125.966 13.9132H119.78ZM122.887 5.38849L121.034 10.4919H124.712L122.887 5.38849Z" fill="white"/>
<path d="M108.364 13.6566H111.956V17.1064H108.364C103.774 17.1064 100.01 13.343 100.01 8.75275C100.01 4.13402 103.774 0.370605 108.364 0.370605H111.956V3.8204H108.364C105.655 3.8204 103.431 6.04424 103.431 8.75275C103.431 11.4328 105.655 13.6566 108.364 13.6566Z" fill="white"/>
<path d="M85.6527 3.84896V0.39917H89.074H97.5987V3.84896H89.074V4.56173V6.67152V7.04216H97.5987V10.492H89.074V10.8341V12.9439V13.6852H97.5987V17.1064H89.074H88.6463H88.2187H87.791H87.3634H86.9357H86.508H86.0804H85.6527V13.6852V12.9439V10.8341V10.492V7.04216V6.67152V4.56173V3.84896Z" fill="white"/>
<path d="M73.2594 3.84896V4.56173V6.67152V8.01153H76.5667C77.7071 8.01153 78.6479 7.07067 78.6479 5.93024C78.6479 4.78982 77.7071 3.84896 76.5667 3.84896H73.2594ZM73.2594 11.4613V12.9439V15.0252V17.1064H72.8318H72.4041H71.9764H71.5488H71.1211H70.6935H70.2658H69.8381V15.0252V12.9439V10.8341V8.7528V6.67152V4.56173V2.48045V0.39917H70.2658H70.6935H73.2594H76.5667C79.6173 0.39917 82.0977 2.8796 82.0977 5.93024C82.0977 8.12557 80.8147 10.0358 78.933 10.9196L82.6394 17.1064H78.6194L75.2552 11.4613H73.2594Z" fill="white"/>
<path d="M50.7382 8.72427C50.7382 3.90596 54.6442 0 59.4625 0C60.0612 0 60.6314 0.0570206 61.2016 0.199574C61.7719 0.313617 62.3421 0.484682 62.8553 0.684256C63.3685 0.912342 63.8816 1.19745 64.3378 1.51107L62.3991 4.36213C62.114 4.16256 61.8289 3.9915 61.5153 3.87745C61.2016 3.7349 60.8595 3.62086 60.5174 3.56384C60.1753 3.4783 59.8046 3.44979 59.4625 3.44979C56.5259 3.44979 54.1595 5.81618 54.1595 8.72427C54.1595 11.6609 56.5259 14.0273 59.4625 14.0273C61.0021 14.0273 62.3991 13.343 63.3685 12.2881V10.4919H59.4625V7.04214H63.3685H64.4519H66.8182V10.4919V12.8583V13.4285C65.2787 15.8519 62.5416 17.4771 59.4625 17.4771C54.6442 17.4771 50.7382 13.5711 50.7382 8.72427Z" fill="white"/>
<path d="M39.0831 13.9132L37.9141 17.1064H34.2648L40.3375 0.370605H44.0154L50.1167 17.1064H46.4388L45.2699 13.9132H39.0831ZM42.1907 5.38849L40.3375 10.4919H44.0154L42.1907 5.38849Z" fill="white"/>
<path d="M18.3725 12.5447V17.1064H14.9512V9.40855V5.07492V0.39917L18.3725 3.53535L23.3904 8.15408L28.4083 3.53535L31.8581 0.39917V17.1064H28.4083V8.2111L23.3904 12.8013L18.3725 8.2111V12.5447Z" fill="white"/>
<path d="M0 3.84896V0.39917H3.42128H11.946V3.84896H3.42128V4.56173V6.67152V7.04216H11.946V10.492H3.42128V10.8341V12.9439V13.6852H11.946V17.1064H3.42128H2.99362H2.56596H2.1383H1.71064H1.28298H0.855321H0.42766H0V13.6852V12.9439V10.8341V10.492V7.04216V6.67152V4.56173V3.84896Z" fill="white"/>
<path d="M106.754 18.6778C106.81 18.9249 107.028 19.1252 107.296 19.1786C107.345 19.1853 107.387 19.192 107.437 19.192C107.831 19.192 108.148 18.8915 108.148 18.5175C108.148 17.783 107.289 17.7629 106.782 17.182C106.57 16.9416 106.423 16.601 106.423 16.0801V16H107.275V16.0801C107.275 16.3806 107.317 16.601 107.57 16.788C107.972 17.0818 108.345 17.1686 108.683 17.596C108.894 17.8698 109 18.1836 109 18.5175C109 18.818 108.901 19.0985 108.746 19.3255C108.465 19.7329 107.986 20 107.437 20C106.789 20 106.232 19.6194 106 19.0785L106.754 18.6778Z" fill="white"/>
</svg>
