<svg width="27" height="24" viewBox="0 0 27 24" fill="none" xmlns="http://www.w3.org/2000/svg">
<rect x="0.86377" y="0.5" width="25" height="23" rx="0.5" stroke="white" stroke-opacity="0.5"/>
<path d="M5.12229 16V7.27273H6.96746V10.8736H10.7132V7.27273H12.5541V16H10.7132V12.3949H6.96746V16H5.12229ZM17.1692 16H14.0754V7.27273H17.1947C18.0726 7.27273 18.8283 7.44744 19.4618 7.79688C20.0953 8.14347 20.5825 8.64205 20.9234 9.29261C21.2672 9.94318 21.4391 10.7216 21.4391 11.6278C21.4391 12.5369 21.2672 13.3182 20.9234 13.9716C20.5825 14.625 20.0925 15.1264 19.4533 15.4759C18.8169 15.8253 18.0555 16 17.1692 16ZM15.9206 14.419H17.0925C17.6379 14.419 18.0967 14.3224 18.4689 14.1293C18.8439 13.9332 19.1251 13.6307 19.3126 13.2216C19.503 12.8097 19.5981 12.2784 19.5981 11.6278C19.5981 10.983 19.503 10.456 19.3126 10.0469C19.1251 9.63778 18.8453 9.33665 18.4731 9.14347C18.101 8.95028 17.6422 8.85369 17.0967 8.85369H15.9206V14.419Z" fill="white"/>
</svg>
