<svg width="21" height="20" viewBox="0 0 21 20" fill="none" xmlns="http://www.w3.org/2000/svg">
<path d="M10.5 0.356628C8.57164 0.356628 6.68657 0.928456 5.08319 1.9998C3.47982 3.07114 2.23013 4.59388 1.49218 6.37546C0.754225 8.15704 0.561142 10.1174 0.937348 12.0088C1.31355 13.9001 2.24215 15.6374 3.60571 17.0009C4.96928 18.3645 6.70656 19.2931 8.59787 19.6693C10.4892 20.0455 12.4496 19.8524 14.2312 19.1145C16.0127 18.3765 17.5355 17.1268 18.6068 15.5234C19.6782 13.9201 20.25 12.035 20.25 10.1066C20.2473 7.52161 19.2192 5.04324 17.3913 3.21535C15.5634 1.38746 13.085 0.359358 10.5 0.356628ZM14.7806 8.38725L9.53063 13.6373C9.46097 13.707 9.37826 13.7623 9.28721 13.8C9.19616 13.8378 9.09857 13.8572 9 13.8572C8.90144 13.8572 8.80385 13.8378 8.7128 13.8C8.62175 13.7623 8.53903 13.707 8.46938 13.6373L6.21938 11.3873C6.07865 11.2465 5.99959 11.0557 5.99959 10.8566C5.99959 10.6576 6.07865 10.4667 6.21938 10.326C6.36011 10.1853 6.55098 10.1062 6.75 10.1062C6.94903 10.1062 7.1399 10.1853 7.28063 10.326L9 12.0463L13.7194 7.326C13.7891 7.25632 13.8718 7.20105 13.9628 7.16333C14.0539 7.12562 14.1515 7.10621 14.25 7.10621C14.3486 7.10621 14.4461 7.12562 14.5372 7.16333C14.6282 7.20105 14.7109 7.25632 14.7806 7.326C14.8503 7.39569 14.9056 7.47841 14.9433 7.56946C14.981 7.6605 15.0004 7.75808 15.0004 7.85663C15.0004 7.95517 14.981 8.05276 14.9433 8.1438C14.9056 8.23485 14.8503 8.31757 14.7806 8.38725Z" fill="#169A3B"/>
</svg>
