<svg width="21" height="20" viewBox="0 0 21 20" fill="none" xmlns="http://www.w3.org/2000/svg">
<path d="M10.5 0.356689C8.57163 0.356689 6.68657 0.928517 5.08319 1.99986C3.47981 3.0712 2.23013 4.59395 1.49218 6.37553C0.754221 8.15711 0.561138 10.1175 0.937344 12.0088C1.31355 13.9001 2.24215 15.6374 3.60571 17.001C4.96927 18.3645 6.70656 19.2931 8.59787 19.6693C10.4892 20.0456 12.4496 19.8525 14.2312 19.1145C16.0127 18.3766 17.5355 17.1269 18.6068 15.5235C19.6782 13.9201 20.25 12.0351 20.25 10.1067C20.2473 7.52167 19.2192 5.0433 17.3913 3.21541C15.5634 1.38752 13.085 0.359419 10.5 0.356689ZM15.75 10.8567H10.5C10.3011 10.8567 10.1103 10.7777 9.96967 10.637C9.82902 10.4964 9.75 10.3056 9.75 10.1067V4.85669C9.75 4.65778 9.82902 4.46701 9.96967 4.32636C10.1103 4.18571 10.3011 4.10669 10.5 4.10669C10.6989 4.10669 10.8897 4.18571 11.0303 4.32636C11.171 4.46701 11.25 4.65778 11.25 4.85669V9.35669H15.75C15.9489 9.35669 16.1397 9.43571 16.2803 9.57636C16.421 9.71701 16.5 9.90778 16.5 10.1067C16.5 10.3056 16.421 10.4964 16.2803 10.637C16.1397 10.7777 15.9489 10.8567 15.75 10.8567Z" fill="#9B9B9B"/>
</svg>
