<svg width="21" height="20" viewBox="0 0 21 20" fill="none" xmlns="http://www.w3.org/2000/svg">
<path d="M10.5 0.356628C8.57164 0.356628 6.68657 0.928456 5.08319 1.9998C3.47982 3.07114 2.23013 4.59388 1.49218 6.37546C0.754225 8.15704 0.561142 10.1174 0.937348 12.0088C1.31355 13.9001 2.24215 15.6374 3.60571 17.0009C4.96928 18.3645 6.70656 19.2931 8.59787 19.6693C10.4892 20.0455 12.4496 19.8524 14.2312 19.1145C16.0127 18.3765 17.5355 17.1268 18.6068 15.5234C19.6782 13.9201 20.25 12.035 20.25 10.1066C20.2473 7.52161 19.2192 5.04324 17.3913 3.21535C15.5634 1.38746 13.085 0.359358 10.5 0.356628ZM14.3016 10.7235L9.42657 14.0985C9.31402 14.1763 9.18233 14.2219 9.04576 14.2302C8.90918 14.2386 8.77293 14.2094 8.65174 14.1459C8.53056 14.0823 8.42907 13.9868 8.35825 13.8698C8.28744 13.7527 8.25001 13.6185 8.25 13.4816V6.73163C8.25001 6.5948 8.28744 6.46058 8.35825 6.34349C8.42907 6.22641 8.53056 6.13093 8.65174 6.0674C8.77293 6.00386 8.90918 5.97469 9.04576 5.98303C9.18233 5.99138 9.31402 6.03693 9.42657 6.11475L14.3016 9.48975C14.4013 9.55875 14.4829 9.65093 14.5392 9.75837C14.5956 9.86581 14.625 9.98531 14.625 10.1066C14.625 10.2279 14.5956 10.3474 14.5392 10.4549C14.4829 10.5623 14.4013 10.6545 14.3016 10.7235Z" fill="#DA750F"/>
</svg>
