<svg width="21" height="20" viewBox="0 0 21 20" fill="none" xmlns="http://www.w3.org/2000/svg">
<path d="M10.5 0.356689C8.57164 0.356689 6.68657 0.928517 5.08319 1.99986C3.47982 3.0712 2.23013 4.59395 1.49218 6.37553C0.754225 8.15711 0.561142 10.1175 0.937348 12.0088C1.31355 13.9001 2.24215 15.6374 3.60571 17.001C4.96928 18.3645 6.70656 19.2931 8.59787 19.6693C10.4892 20.0456 12.4496 19.8525 14.2312 19.1145C16.0127 18.3766 17.5355 17.1269 18.6068 15.5235C19.6782 13.9201 20.25 12.0351 20.25 10.1067C20.2468 7.52182 19.2185 5.04374 17.3907 3.21596C15.563 1.38818 13.0849 0.359914 10.5 0.356689ZM9 13.1067C9 13.3056 8.92099 13.4964 8.78033 13.637C8.63968 13.7777 8.44892 13.8567 8.25 13.8567C8.05109 13.8567 7.86033 13.7777 7.71967 13.637C7.57902 13.4964 7.5 13.3056 7.5 13.1067V7.10669C7.5 6.90778 7.57902 6.71701 7.71967 6.57636C7.86033 6.43571 8.05109 6.35669 8.25 6.35669C8.44892 6.35669 8.63968 6.43571 8.78033 6.57636C8.92099 6.71701 9 6.90778 9 7.10669V13.1067ZM13.5 13.1067C13.5 13.3056 13.421 13.4964 13.2803 13.637C13.1397 13.7777 12.9489 13.8567 12.75 13.8567C12.5511 13.8567 12.3603 13.7777 12.2197 13.637C12.079 13.4964 12 13.3056 12 13.1067V7.10669C12 6.90778 12.079 6.71701 12.2197 6.57636C12.3603 6.43571 12.5511 6.35669 12.75 6.35669C12.9489 6.35669 13.1397 6.43571 13.2803 6.57636C13.421 6.71701 13.5 6.90778 13.5 7.10669V13.1067Z" fill="#9B9B9B"/>
</svg>
