<svg width="176" height="34" viewBox="0 0 176 34" fill="none" xmlns="http://www.w3.org/2000/svg">
<rect x="0.5" y="0.5" width="175" height="33" rx="3.5" stroke="url(#paint0_linear_2745_6409)"/>
<path d="M17.4347 9.45455H20.6591L24.9773 19.9943H25.1477L29.4659 9.45455H32.6903V24H30.1619V14.0071H30.027L26.0071 23.9574H24.1179L20.098 13.9858H19.9631V24H17.4347V9.45455ZM35.5597 24V9.45455H45.0199V11.6634H38.1946V15.6122H44.5298V17.821H38.1946V21.7912H45.0767V24H35.5597ZM59.6612 9.45455V24H57.3175L50.4638 14.0923H50.343V24H47.7081V9.45455H50.0661L56.9126 19.3693H57.0405V9.45455H59.6612ZM61.8931 11.6634V9.45455H73.4982V11.6634H69.0025V24H66.3888V11.6634H61.8931ZM88.0881 16.7273C88.0881 18.2945 87.7945 19.6368 87.2074 20.7543C86.625 21.867 85.8295 22.7192 84.821 23.3111C83.8172 23.9029 82.6785 24.1989 81.4048 24.1989C80.1312 24.1989 78.9901 23.9029 77.9815 23.3111C76.9777 22.7145 76.1823 21.8598 75.5952 20.7472C75.0128 19.6297 74.7216 18.2898 74.7216 16.7273C74.7216 15.16 75.0128 13.8201 75.5952 12.7074C76.1823 11.59 76.9777 10.7353 77.9815 10.1435C78.9901 9.55161 80.1312 9.25568 81.4048 9.25568C82.6785 9.25568 83.8172 9.55161 84.821 10.1435C85.8295 10.7353 86.625 11.59 87.2074 12.7074C87.7945 13.8201 88.0881 15.16 88.0881 16.7273ZM85.4389 16.7273C85.4389 15.6241 85.2661 14.6937 84.9205 13.9361C84.5795 13.1738 84.1061 12.5985 83.5 12.2102C82.8939 11.8172 82.1955 11.6207 81.4048 11.6207C80.6141 11.6207 79.9157 11.8172 79.3097 12.2102C78.7036 12.5985 78.2277 13.1738 77.8821 13.9361C77.5412 14.6937 77.3707 15.6241 77.3707 16.7273C77.3707 17.8305 77.5412 18.7633 77.8821 19.5256C78.2277 20.2831 78.7036 20.8584 79.3097 21.2514C79.9157 21.6397 80.6141 21.8338 81.4048 21.8338C82.1955 21.8338 82.8939 21.6397 83.5 21.2514C84.1061 20.8584 84.5795 20.2831 84.9205 19.5256C85.2661 18.7633 85.4389 17.8305 85.4389 16.7273ZM90.5792 24V9.45455H96.0337C97.1512 9.45455 98.0887 9.64867 98.8462 10.0369C99.6085 10.4252 100.184 10.9697 100.572 11.6705C100.965 12.3665 101.162 13.1785 101.162 14.1065C101.162 15.0393 100.963 15.849 100.565 16.5355C100.172 17.2173 99.592 17.7453 98.8249 18.1193C98.0579 18.4886 97.1156 18.6733 95.9982 18.6733H92.1133V16.4858H95.6431C96.2965 16.4858 96.8316 16.3958 97.2482 16.2159C97.6649 16.0312 97.9727 15.7637 98.1715 15.4134C98.3751 15.0582 98.4769 14.6226 98.4769 14.1065C98.4769 13.5904 98.3751 13.1501 98.1715 12.7855C97.9679 12.4162 97.6578 12.1368 97.2411 11.9474C96.8245 11.7533 96.2871 11.6562 95.6289 11.6562H93.2141V24H90.5792ZM98.0934 17.4091L101.694 24H98.7539L95.217 17.4091H98.0934ZM106.222 9.45455V24H103.587V9.45455H106.222ZM110.943 24H108.131L113.251 9.45455H116.504L121.632 24H118.82L114.935 12.4375H114.821L110.943 24ZM111.036 18.2969H118.706V20.4134H111.036V18.2969ZM130.455 9.45455L134.24 20.9034H134.39L138.168 9.45455H141.066L135.938 24H132.685L127.564 9.45455H130.455ZM145.616 9.45455V24H142.982V9.45455H145.616ZM148.47 24V9.45455H153.924C155.042 9.45455 155.979 9.66288 156.737 10.0795C157.499 10.4962 158.074 11.0691 158.463 11.7983C158.856 12.5227 159.052 13.3466 159.052 14.2699C159.052 15.2027 158.856 16.0312 158.463 16.7557C158.07 17.4801 157.49 18.0507 156.723 18.4673C155.956 18.8793 155.011 19.0852 153.889 19.0852H150.274V16.919H153.534C154.187 16.919 154.722 16.8054 155.139 16.5781C155.556 16.3509 155.863 16.0384 156.062 15.6406C156.266 15.2429 156.368 14.786 156.368 14.2699C156.368 13.7538 156.266 13.2992 156.062 12.9062C155.863 12.5133 155.553 12.2079 155.132 11.9901C154.715 11.7675 154.178 11.6562 153.52 11.6562H151.105V24H148.47Z" fill="url(#paint1_linear_2745_6409)"/>
<defs>
<linearGradient id="paint0_linear_2745_6409" x1="9.10626e-08" y1="2.83333" x2="37.7254" y2="80.947" gradientUnits="userSpaceOnUse">
<stop stop-color="#693E07"/>
<stop offset="0.085" stop-color="#855211"/>
<stop offset="0.24" stop-color="#B57310"/>
<stop offset="0.53" stop-color="#F8D166"/>
<stop offset="0.665" stop-color="#CCA11E"/>
<stop offset="0.84" stop-color="#EAC84F"/>
<stop offset="0.97" stop-color="#BB760C"/>
</linearGradient>
<linearGradient id="paint1_linear_2745_6409" x1="16" y1="7.83333" x2="36.7769" y2="62.231" gradientUnits="userSpaceOnUse">
<stop stop-color="#693E07"/>
<stop offset="0.085" stop-color="#855211"/>
<stop offset="0.24" stop-color="#B57310"/>
<stop offset="0.53" stop-color="#F8D166"/>
<stop offset="0.665" stop-color="#CCA11E"/>
<stop offset="0.84" stop-color="#EAC84F"/>
<stop offset="0.97" stop-color="#BB760C"/>
</linearGradient>
</defs>
</svg>
