<svg width="180" height="54" viewBox="0 0 180 54" fill="none" xmlns="http://www.w3.org/2000/svg">
<path d="M2.41731 9.80508H9.01131L11.9513 30.8471H12.0353L14.9753 9.80508H21.5693V39.2051H17.2013V16.9451H17.1173L13.7573 39.2051H9.89331L6.53331 16.9451H6.44931V39.2051H2.41731V9.80508ZM25.0169 9.80508H37.6169V14.0051H29.6369V21.7751H35.9789V25.9751H29.6369V35.0051H37.6169V39.2051H25.0169V9.80508ZM40.2747 9.80508H46.0707L50.5647 27.4031H50.6487V9.80508H54.7647V39.2051H50.0187L44.4747 17.7431H44.3907V39.2051H40.2747V9.80508ZM61.8106 14.0051H56.9806V9.80508H71.2606V14.0051H66.4306V39.2051H61.8106V14.0051ZM80.0113 39.6251C77.7433 39.6251 76.0073 38.9811 74.8033 37.6931C73.5993 36.4051 72.9973 34.5851 72.9973 32.2331V16.7771C72.9973 14.4251 73.5993 12.6051 74.8033 11.3171C76.0073 10.0291 77.7433 9.38508 80.0113 9.38508C82.2793 9.38508 84.0153 10.0291 85.2193 11.3171C86.4233 12.6051 87.0253 14.4251 87.0253 16.7771V32.2331C87.0253 34.5851 86.4233 36.4051 85.2193 37.6931C84.0153 38.9811 82.2793 39.6251 80.0113 39.6251ZM80.0113 35.4251C81.6073 35.4251 82.4053 34.4591 82.4053 32.5271V16.4831C82.4053 14.5511 81.6073 13.5851 80.0113 13.5851C78.4153 13.5851 77.6173 14.5511 77.6173 16.4831V32.5271C77.6173 34.4591 78.4153 35.4251 80.0113 35.4251ZM90.1497 9.80508H96.9957C99.3757 9.80508 101.112 10.3651 102.204 11.4851C103.296 12.5771 103.842 14.2711 103.842 16.5671V18.3731C103.842 21.4251 102.834 23.3571 100.818 24.1691V24.2531C101.938 24.5891 102.722 25.2751 103.17 26.3111C103.646 27.3471 103.884 28.7331 103.884 30.4691V35.6351C103.884 36.4751 103.912 37.1611 103.968 37.6931C104.024 38.1971 104.164 38.7011 104.388 39.2051H99.6837C99.5157 38.7291 99.4037 38.2811 99.3477 37.8611C99.2917 37.4411 99.2637 36.6851 99.2637 35.5931V30.2171C99.2637 28.8731 99.0397 27.9351 98.5917 27.4031C98.1717 26.8711 97.4297 26.6051 96.3657 26.6051H94.7697V39.2051H90.1497V9.80508ZM96.4497 22.4051C97.3737 22.4051 98.0597 22.1671 98.5077 21.6911C98.9837 21.2151 99.2217 20.4171 99.2217 19.2971V17.0291C99.2217 15.9651 99.0257 15.1951 98.6337 14.7191C98.2697 14.2431 97.6817 14.0051 96.8697 14.0051H94.7697V22.4051H96.4497ZM107.089 9.80508H111.709V39.2051H107.089V9.80508ZM118.739 9.80508H124.997L129.785 39.2051H125.165L124.325 33.3671V33.4511H119.075L118.235 39.2051H113.951L118.739 9.80508ZM123.779 29.4611L121.721 14.9291H121.637L119.621 29.4611H123.779Z" fill="url(#paint0_linear_2771_10530)"/>
<path d="M139.345 9.80508H144.007L147.031 32.6111H147.115L150.139 9.80508H154.381L149.929 39.2051H143.797L139.345 9.80508ZM156.6 9.80508H161.22V39.2051H156.6V9.80508ZM164.68 9.80508H171.484C173.78 9.80508 175.502 10.4211 176.65 11.6531C177.798 12.8851 178.372 14.6911 178.372 17.0711V19.9691C178.372 22.3491 177.798 24.1551 176.65 25.3871C175.502 26.6191 173.78 27.2351 171.484 27.2351H169.3V39.2051H164.68V9.80508ZM171.484 23.0351C172.24 23.0351 172.8 22.8251 173.164 22.4051C173.556 21.9851 173.752 21.2711 173.752 20.2631V16.7771C173.752 15.7691 173.556 15.0551 173.164 14.6351C172.8 14.2151 172.24 14.0051 171.484 14.0051H169.3V23.0351H171.484Z" fill="url(#paint1_linear_2771_10530)"/>
<defs>
<linearGradient id="paint0_linear_2771_10530" x1="65.1368" y1="-1.31404" x2="66.4535" y2="54.7103" gradientUnits="userSpaceOnUse">
<stop offset="0.16" stop-color="white"/>
<stop offset="1" stop-color="#575757"/>
</linearGradient>
<linearGradient id="paint1_linear_2771_10530" x1="138.5" y1="4.62174" x2="180.906" y2="17.7437" gradientUnits="userSpaceOnUse">
<stop stop-color="#693E07"/>
<stop offset="0.085" stop-color="#855211"/>
<stop offset="0.24" stop-color="#B57310"/>
<stop offset="0.53" stop-color="#F8D166"/>
<stop offset="0.665" stop-color="#CCA11E"/>
<stop offset="0.84" stop-color="#EAC84F"/>
<stop offset="0.97" stop-color="#BB760C"/>
</linearGradient>
</defs>
</svg>
