<svg width="624" height="116" viewBox="0 0 624 116" fill="none" xmlns="http://www.w3.org/2000/svg">
<path d="M10.9815 46.64C7.61083 46.64 5.0295 45.68 3.2375 43.76C1.48817 41.84 0.6135 39.1307 0.6135 35.632V11.568C0.6135 8.06933 1.48817 5.36 3.2375 3.44C5.0295 1.52 7.61083 0.559998 10.9815 0.559998C14.3522 0.559998 16.9122 1.52 18.6615 3.44C20.4535 5.36 21.3495 8.06933 21.3495 11.568V16.304H14.6935V11.12C14.6935 8.34667 13.5202 6.96 11.1735 6.96C8.82683 6.96 7.6535 8.34667 7.6535 11.12V36.144C7.6535 38.8747 8.82683 40.24 11.1735 40.24C13.5202 40.24 14.6935 38.8747 14.6935 36.144V29.296H21.3495V35.632C21.3495 39.1307 20.4535 41.84 18.6615 43.76C16.9122 45.68 14.3522 46.64 10.9815 46.64ZM35.8625 46.64C32.4065 46.64 29.7612 45.6587 27.9265 43.696C26.0918 41.7333 25.1745 38.96 25.1745 35.376V11.824C25.1745 8.24 26.0918 5.46666 27.9265 3.504C29.7612 1.54133 32.4065 0.559998 35.8625 0.559998C39.3185 0.559998 41.9638 1.54133 43.7985 3.504C45.6332 5.46666 46.5505 8.24 46.5505 11.824V35.376C46.5505 38.96 45.6332 41.7333 43.7985 43.696C41.9638 45.6587 39.3185 46.64 35.8625 46.64ZM35.8625 40.24C38.2945 40.24 39.5105 38.768 39.5105 35.824V11.376C39.5105 8.432 38.2945 6.96 35.8625 6.96C33.4305 6.96 32.2145 8.432 32.2145 11.376V35.824C32.2145 38.768 33.4305 40.24 35.8625 40.24ZM51.3115 1.2H61.3595L65.8395 33.264H65.9675L70.4475 1.2H80.4955V46H73.8395V12.08H73.7115L68.5915 46H62.7035L57.5835 12.08H57.4555V46H51.3115V1.2ZM95.925 46.64C92.469 46.64 89.8237 45.6587 87.989 43.696C86.1543 41.7333 85.237 38.96 85.237 35.376V11.824C85.237 8.24 86.1543 5.46666 87.989 3.504C89.8237 1.54133 92.469 0.559998 95.925 0.559998C99.381 0.559998 102.026 1.54133 103.861 3.504C105.696 5.46666 106.613 8.24 106.613 11.824V35.376C106.613 38.96 105.696 41.7333 103.861 43.696C102.026 45.6587 99.381 46.64 95.925 46.64ZM95.925 40.24C98.357 40.24 99.573 38.768 99.573 35.824V11.376C99.573 8.432 98.357 6.96 95.925 6.96C93.493 6.96 92.277 8.432 92.277 11.376V35.824C92.277 38.768 93.493 40.24 95.925 40.24ZM127.064 1.2H136.6L143.896 46H136.856L135.576 37.104V37.232H127.576L126.296 46H119.768L127.064 1.2ZM134.744 31.152L131.608 9.008H131.48L128.408 31.152H134.744ZM147.312 1.2H156.144L162.992 28.016H163.12V1.2H169.392V46H162.16L153.712 13.296H153.584V46H147.312V1.2ZM174.624 1.2H185.376C188.875 1.2 191.499 2.13866 193.248 4.016C194.997 5.89333 195.872 8.64533 195.872 12.272V34.928C195.872 38.5547 194.997 41.3067 193.248 43.184C191.499 45.0613 188.875 46 185.376 46H174.624V1.2ZM185.248 39.6C186.4 39.6 187.275 39.2587 187.872 38.576C188.512 37.8933 188.832 36.784 188.832 35.248V11.952C188.832 10.416 188.512 9.30666 187.872 8.624C187.275 7.94133 186.4 7.6 185.248 7.6H181.664V39.6H185.248ZM205.939 1.2H215.475L222.771 46H215.731L214.451 37.104V37.232H206.451L205.171 46H198.643L205.939 1.2ZM213.619 31.152L210.483 9.008H210.355L207.283 31.152H213.619ZM246.613 46.64C243.157 46.64 240.511 45.6587 238.677 43.696C236.842 41.7333 235.924 38.96 235.924 35.376V11.824C235.924 8.24 236.842 5.46666 238.677 3.504C240.511 1.54133 243.157 0.559998 246.613 0.559998C250.069 0.559998 252.714 1.54133 254.549 3.504C256.383 5.46666 257.301 8.24 257.301 11.824V35.376C257.301 38.96 256.383 41.7333 254.549 43.696C252.714 45.6587 250.069 46.64 246.613 46.64ZM246.613 40.24C249.045 40.24 250.26 38.768 250.26 35.824V11.376C250.26 8.432 249.045 6.96 246.613 6.96C244.181 6.96 242.965 8.432 242.965 11.376V35.824C242.965 38.768 244.181 40.24 246.613 40.24ZM272.312 1.2H282.36L286.84 33.264H286.968L291.448 1.2H301.496V46H294.84V12.08H294.712L289.592 46H283.704L278.584 12.08H278.456V46H272.312V1.2ZM306.749 1.2H325.949V7.6H313.789V19.44H323.453V25.84H313.789V39.6H325.949V46H306.749V1.2ZM329.999 1.2H340.431C344.058 1.2 346.703 2.05333 348.367 3.76C350.031 5.424 350.863 8.00533 350.863 11.504V14.256C350.863 18.9067 349.327 21.8507 346.255 23.088V23.216C347.962 23.728 349.156 24.7733 349.839 26.352C350.564 27.9307 350.927 30.0427 350.927 32.688V40.56C350.927 41.84 350.97 42.8853 351.055 43.696C351.14 44.464 351.354 45.232 351.695 46H344.527C344.271 45.2747 344.1 44.592 344.015 43.952C343.93 43.312 343.887 42.16 343.887 40.496V32.304C343.887 30.256 343.546 28.8267 342.863 28.016C342.223 27.2053 341.092 26.8 339.471 26.8H337.039V46H329.999V1.2ZM339.599 20.4C341.007 20.4 342.052 20.0373 342.735 19.312C343.46 18.5867 343.823 17.3707 343.823 15.664V12.208C343.823 10.5867 343.524 9.41333 342.927 8.688C342.372 7.96267 341.476 7.6 340.239 7.6H337.039V20.4H339.599ZM365.732 46.64C362.361 46.64 359.78 45.68 357.988 43.76C356.238 41.84 355.364 39.1307 355.364 35.632V11.568C355.364 8.06933 356.238 5.36 357.988 3.44C359.78 1.52 362.361 0.559998 365.732 0.559998C369.102 0.559998 371.662 1.52 373.412 3.44C375.204 5.36 376.1 8.06933 376.1 11.568V16.304H369.444V11.12C369.444 8.34667 368.27 6.96 365.924 6.96C363.577 6.96 362.404 8.34667 362.404 11.12V36.144C362.404 38.8747 363.577 40.24 365.924 40.24C368.27 40.24 369.444 38.8747 369.444 36.144V29.296H376.1V35.632C376.1 39.1307 375.204 41.84 373.412 43.76C371.662 45.68 369.102 46.64 365.732 46.64ZM385.752 1.2H395.288L402.584 46H395.544L394.264 37.104V37.232H386.264L384.984 46H378.456L385.752 1.2ZM393.432 31.152L390.296 9.008H390.168L387.095 31.152H393.432ZM405.999 1.2H416.751C420.25 1.2 422.874 2.13866 424.623 4.016C426.372 5.89333 427.247 8.64533 427.247 12.272V34.928C427.247 38.5547 426.372 41.3067 424.623 43.184C422.874 45.0613 420.25 46 416.751 46H405.999V1.2ZM416.623 39.6C417.775 39.6 418.65 39.2587 419.247 38.576C419.887 37.8933 420.207 36.784 420.207 35.248V11.952C420.207 10.416 419.887 9.30666 419.247 8.624C418.65 7.94133 417.775 7.6 416.623 7.6H413.039V39.6H416.623ZM442.175 46.64C438.719 46.64 436.074 45.6587 434.239 43.696C432.404 41.7333 431.487 38.96 431.487 35.376V11.824C431.487 8.24 432.404 5.46666 434.239 3.504C436.074 1.54133 438.719 0.559998 442.175 0.559998C445.631 0.559998 448.276 1.54133 450.111 3.504C451.946 5.46666 452.863 8.24 452.863 11.824V35.376C452.863 38.96 451.946 41.7333 450.111 43.696C448.276 45.6587 445.631 46.64 442.175 46.64ZM442.175 40.24C444.607 40.24 445.823 38.768 445.823 35.824V11.376C445.823 8.432 444.607 6.96 442.175 6.96C439.743 6.96 438.527 8.432 438.527 11.376V35.824C438.527 38.768 439.743 40.24 442.175 40.24ZM467.874 1.2H478.242C481.741 1.2 484.365 2.13866 486.114 4.016C487.863 5.89333 488.738 8.64533 488.738 12.272V16.688C488.738 20.3147 487.863 23.0667 486.114 24.944C484.365 26.8213 481.741 27.76 478.242 27.76H474.914V46H467.874V1.2ZM478.242 21.36C479.394 21.36 480.247 21.04 480.802 20.4C481.399 19.76 481.698 18.672 481.698 17.136V11.824C481.698 10.288 481.399 9.2 480.802 8.56C480.247 7.92 479.394 7.6 478.242 7.6H474.914V21.36H478.242ZM495.752 1.2H505.288L512.584 46H505.544L504.264 37.104V37.232H496.264L494.984 46H488.456L495.752 1.2ZM503.432 31.152L500.296 9.008H500.168L497.095 31.152H503.432ZM515.999 1.2H526.431C530.058 1.2 532.703 2.05333 534.367 3.76C536.031 5.424 536.863 8.00533 536.863 11.504V14.256C536.863 18.9067 535.327 21.8507 532.255 23.088V23.216C533.962 23.728 535.156 24.7733 535.839 26.352C536.564 27.9307 536.927 30.0427 536.927 32.688V40.56C536.927 41.84 536.97 42.8853 537.055 43.696C537.14 44.464 537.354 45.232 537.695 46H530.527C530.271 45.2747 530.1 44.592 530.015 43.952C529.93 43.312 529.887 42.16 529.887 40.496V32.304C529.887 30.256 529.546 28.8267 528.863 28.016C528.223 27.2053 527.092 26.8 525.471 26.8H523.039V46H515.999V1.2ZM525.599 20.4C527.007 20.4 528.052 20.0373 528.735 19.312C529.46 18.5867 529.823 17.3707 529.823 15.664V12.208C529.823 10.5867 529.524 9.41333 528.927 8.688C528.372 7.96267 527.476 7.6 526.239 7.6H523.039V20.4H525.599ZM547.252 1.2H556.788L564.084 46H557.044L555.764 37.104V37.232H547.764L546.484 46H539.956L547.252 1.2ZM554.932 31.152L551.796 9.008H551.668L548.595 31.152H554.932ZM587.925 46.64C584.469 46.64 581.824 45.6587 579.989 43.696C578.154 41.7333 577.237 38.96 577.237 35.376V11.824C577.237 8.24 578.154 5.46666 579.989 3.504C581.824 1.54133 584.469 0.559998 587.925 0.559998C591.381 0.559998 594.026 1.54133 595.861 3.504C597.696 5.46666 598.613 8.24 598.613 11.824V35.376C598.613 38.96 597.696 41.7333 595.861 43.696C594.026 45.6587 591.381 46.64 587.925 46.64ZM587.925 40.24C590.357 40.24 591.573 38.768 591.573 35.824V11.376C591.573 8.432 590.357 6.96 587.925 6.96C585.493 6.96 584.277 8.432 584.277 11.376V35.824C584.277 38.768 585.493 40.24 587.925 40.24ZM612.526 46.64C609.113 46.64 606.531 45.68 604.782 43.76C603.033 41.7973 602.158 39.0027 602.158 35.376V32.816H608.814V35.888C608.814 38.7893 610.03 40.24 612.462 40.24C613.657 40.24 614.553 39.8987 615.15 39.216C615.79 38.4907 616.11 37.3387 616.11 35.76C616.11 33.8827 615.683 32.24 614.83 30.832C613.977 29.3813 612.398 27.6533 610.094 25.648C607.193 23.088 605.166 20.784 604.014 18.736C602.862 16.6453 602.286 14.2987 602.286 11.696C602.286 8.15467 603.182 5.424 604.974 3.504C606.766 1.54133 609.369 0.559998 612.782 0.559998C616.153 0.559998 618.691 1.54133 620.398 3.504C622.147 5.424 623.022 8.19733 623.022 11.824V13.68H616.366V11.376C616.366 9.84 616.067 8.73066 615.47 8.048C614.873 7.32266 613.998 6.96 612.846 6.96C610.499 6.96 609.326 8.38933 609.326 11.248C609.326 12.8693 609.753 14.384 610.606 15.792C611.502 17.2 613.102 18.9067 615.406 20.912C618.35 23.472 620.377 25.7973 621.486 27.888C622.595 29.9787 623.15 32.432 623.15 35.248C623.15 38.9173 622.233 41.7333 620.398 43.696C618.606 45.6587 615.982 46.64 612.526 46.64ZM27.0303 70.2H37.3983C40.8969 70.2 43.5209 71.1387 45.2703 73.016C47.0196 74.8933 47.8943 77.6453 47.8943 81.272V85.688C47.8943 89.3147 47.0196 92.0667 45.2703 93.944C43.5209 95.8213 40.8969 96.76 37.3983 96.76H34.0703V115H27.0303V70.2ZM37.3983 90.36C38.5503 90.36 39.4036 90.04 39.9583 89.4C40.5556 88.76 40.8542 87.672 40.8542 86.136V80.824C40.8542 79.288 40.5556 78.2 39.9583 77.56C39.4036 76.92 38.5503 76.6 37.3983 76.6H34.0703V90.36H37.3983ZM51.7178 70.2H62.1498C65.7764 70.2 68.4218 71.0533 70.0858 72.76C71.7498 74.424 72.5818 77.0053 72.5818 80.504V83.256C72.5818 87.9067 71.0458 90.8507 67.9738 92.088V92.216C69.6804 92.728 70.8751 93.7733 71.5578 95.352C72.2831 96.9307 72.6458 99.0427 72.6458 101.688V109.56C72.6458 110.84 72.6884 111.885 72.7738 112.696C72.8591 113.464 73.0724 114.232 73.4138 115H66.2458C65.9898 114.275 65.8191 113.592 65.7338 112.952C65.6484 112.312 65.6058 111.16 65.6058 109.496V101.304C65.6058 99.256 65.2644 97.8267 64.5818 97.016C63.9418 96.2053 62.8111 95.8 61.1898 95.8H58.7578V115H51.7178V70.2ZM61.3178 89.4C62.7258 89.4 63.7711 89.0373 64.4538 88.312C65.1791 87.5867 65.5417 86.3707 65.5417 84.664V81.208C65.5417 79.5867 65.2431 78.4133 64.6458 77.688C64.0911 76.9627 63.1951 76.6 61.9578 76.6H58.7578V89.4H61.3178ZM87.7063 115.64C84.2503 115.64 81.6049 114.659 79.7703 112.696C77.9356 110.733 77.0182 107.96 77.0182 104.376V80.824C77.0182 77.24 77.9356 74.4667 79.7703 72.504C81.6049 70.5413 84.2503 69.56 87.7063 69.56C91.1623 69.56 93.8076 70.5413 95.6423 72.504C97.4769 74.4667 98.3943 77.24 98.3943 80.824V104.376C98.3943 107.96 97.4769 110.733 95.6423 112.696C93.8076 114.659 91.1623 115.64 87.7063 115.64ZM87.7063 109.24C90.1383 109.24 91.3542 107.768 91.3542 104.824V80.376C91.3542 77.432 90.1383 75.96 87.7063 75.96C85.2743 75.96 84.0583 77.432 84.0583 80.376V104.824C84.0583 107.768 85.2743 109.24 87.7063 109.24ZM103.155 70.2H121.779V76.6H110.195V89.08H119.283V95.48H110.195V115H103.155V70.2ZM125.155 70.2H132.195V115H125.155V70.2ZM146.62 115.64C143.206 115.64 140.625 114.68 138.876 112.76C137.126 110.797 136.252 108.003 136.252 104.376V101.816H142.908V104.888C142.908 107.789 144.124 109.24 146.556 109.24C147.75 109.24 148.646 108.899 149.244 108.216C149.884 107.491 150.204 106.339 150.204 104.76C150.204 102.883 149.777 101.24 148.924 99.832C148.07 98.3813 146.492 96.6533 144.188 94.648C141.286 92.088 139.26 89.784 138.108 87.736C136.956 85.6453 136.38 83.2987 136.38 80.696C136.38 77.1547 137.276 74.424 139.068 72.504C140.86 70.5413 143.462 69.56 146.876 69.56C150.246 69.56 152.785 70.5413 154.492 72.504C156.241 74.424 157.116 77.1973 157.116 80.824V82.68H150.46V80.376C150.46 78.84 150.161 77.7307 149.564 77.048C148.966 76.3227 148.092 75.96 146.94 75.96C144.593 75.96 143.42 77.3893 143.42 80.248C143.42 81.8693 143.846 83.384 144.7 84.792C145.596 86.2 147.196 87.9067 149.5 89.912C152.444 92.472 154.47 94.7973 155.58 96.888C156.689 98.9787 157.244 101.432 157.244 104.248C157.244 107.917 156.326 110.733 154.492 112.696C152.7 114.659 150.076 115.64 146.62 115.64ZM170.432 115.64C167.019 115.64 164.438 114.68 162.688 112.76C160.939 110.797 160.064 108.003 160.064 104.376V101.816H166.72V104.888C166.72 107.789 167.936 109.24 170.368 109.24C171.563 109.24 172.459 108.899 173.056 108.216C173.696 107.491 174.016 106.339 174.016 104.76C174.016 102.883 173.59 101.24 172.736 99.832C171.883 98.3813 170.304 96.6533 168 94.648C165.099 92.088 163.072 89.784 161.92 87.736C160.768 85.6453 160.192 83.2987 160.192 80.696C160.192 77.1547 161.088 74.424 162.88 72.504C164.672 70.5413 167.275 69.56 170.688 69.56C174.059 69.56 176.598 70.5413 178.304 72.504C180.054 74.424 180.928 77.1973 180.928 80.824V82.68H174.272V80.376C174.272 78.84 173.974 77.7307 173.376 77.048C172.779 76.3227 171.904 75.96 170.752 75.96C168.406 75.96 167.232 77.3893 167.232 80.248C167.232 81.8693 167.659 83.384 168.512 84.792C169.408 86.2 171.008 87.9067 173.312 89.912C176.256 92.472 178.283 94.7973 179.392 96.888C180.502 98.9787 181.056 101.432 181.056 104.248C181.056 107.917 180.139 110.733 178.304 112.696C176.512 114.659 173.888 115.64 170.432 115.64ZM185.093 70.2H192.133V115H185.093V70.2ZM207.581 115.64C204.125 115.64 201.48 114.659 199.645 112.696C197.811 110.733 196.893 107.96 196.893 104.376V80.824C196.893 77.24 197.811 74.4667 199.645 72.504C201.48 70.5413 204.125 69.56 207.581 69.56C211.037 69.56 213.683 70.5413 215.517 72.504C217.352 74.4667 218.269 77.24 218.269 80.824V104.376C218.269 107.96 217.352 110.733 215.517 112.696C213.683 114.659 211.037 115.64 207.581 115.64ZM207.581 109.24C210.013 109.24 211.229 107.768 211.229 104.824V80.376C211.229 77.432 210.013 75.96 207.581 75.96C205.149 75.96 203.933 77.432 203.933 80.376V104.824C203.933 107.768 205.149 109.24 207.581 109.24ZM223.03 70.2H231.862L238.71 97.016H238.838V70.2H245.11V115H237.878L229.43 82.296H229.302V115H223.03V70.2ZM255.783 70.2H265.319L272.615 115H265.575L264.295 106.104V106.232H256.295L255.015 115H248.487L255.783 70.2ZM263.463 100.152L260.327 78.008H260.199L257.127 100.152H263.463ZM276.03 70.2H283.07V115H276.03V70.2ZM297.495 115.64C294.081 115.64 291.5 114.68 289.751 112.76C288.001 110.797 287.127 108.003 287.127 104.376V101.816H293.783V104.888C293.783 107.789 294.999 109.24 297.431 109.24C298.625 109.24 299.521 108.899 300.119 108.216C300.759 107.491 301.079 106.339 301.079 104.76C301.079 102.883 300.652 101.24 299.799 99.832C298.945 98.3813 297.367 96.6533 295.063 94.648C292.161 92.088 290.135 89.784 288.983 87.736C287.831 85.6453 287.255 83.2987 287.255 80.696C287.255 77.1547 288.151 74.424 289.943 72.504C291.735 70.5413 294.337 69.56 297.751 69.56C301.121 69.56 303.66 70.5413 305.367 72.504C307.116 74.424 307.991 77.1973 307.991 80.824V82.68H301.335V80.376C301.335 78.84 301.036 77.7307 300.439 77.048C299.841 76.3227 298.967 75.96 297.815 75.96C295.468 75.96 294.295 77.3893 294.295 80.248C294.295 81.8693 294.721 83.384 295.575 84.792C296.471 86.2 298.071 87.9067 300.375 89.912C303.319 92.472 305.345 94.7973 306.455 96.888C307.564 98.9787 308.119 101.432 308.119 104.248C308.119 107.917 307.201 110.733 305.367 112.696C303.575 114.659 300.951 115.64 297.495 115.64ZM322.405 70.2H333.157C336.656 70.2 339.28 71.1387 341.029 73.016C342.779 74.8933 343.653 77.6453 343.653 81.272V103.928C343.653 107.555 342.779 110.307 341.029 112.184C339.28 114.061 336.656 115 333.157 115H322.405V70.2ZM333.029 108.6C334.181 108.6 335.056 108.259 335.653 107.576C336.293 106.893 336.613 105.784 336.613 104.248V80.952C336.613 79.416 336.293 78.3067 335.653 77.624C335.056 76.9413 334.181 76.6 333.029 76.6H329.445V108.6H333.029ZM348.405 70.2H367.605V76.6H355.445V88.44H365.109V94.84H355.445V108.6H367.605V115H348.405V70.2ZM381.905 70.2H391.953L396.433 102.264H396.561L401.041 70.2H411.089V115H404.433V81.08H404.305L399.185 115H393.297L388.177 81.08H388.049V115H381.905V70.2ZM416.343 70.2H435.543V76.6H423.383V88.44H433.047V94.84H423.383V108.6H435.543V115H416.343V70.2ZM439.593 70.2H450.345C453.843 70.2 456.467 71.1387 458.217 73.016C459.966 74.8933 460.841 77.6453 460.841 81.272V103.928C460.841 107.555 459.966 110.307 458.217 112.184C456.467 114.061 453.843 115 450.345 115H439.593V70.2ZM450.217 108.6C451.369 108.6 452.243 108.259 452.841 107.576C453.481 106.893 453.801 105.784 453.801 104.248V80.952C453.801 79.416 453.481 78.3067 452.841 77.624C452.243 76.9413 451.369 76.6 450.217 76.6H446.633V108.6H450.217ZM465.593 70.2H472.633V115H465.593V70.2ZM487.825 115.64C484.455 115.64 481.873 114.68 480.081 112.76C478.332 110.84 477.457 108.131 477.457 104.632V80.568C477.457 77.0693 478.332 74.36 480.081 72.44C481.873 70.52 484.455 69.56 487.825 69.56C491.196 69.56 493.756 70.52 495.505 72.44C497.297 74.36 498.193 77.0693 498.193 80.568V85.304H491.537V80.12C491.537 77.3467 490.364 75.96 488.017 75.96C485.671 75.96 484.497 77.3467 484.497 80.12V105.144C484.497 107.875 485.671 109.24 488.017 109.24C490.364 109.24 491.537 107.875 491.537 105.144V98.296H498.193V104.632C498.193 108.131 497.297 110.84 495.505 112.76C493.756 114.68 491.196 115.64 487.825 115.64ZM502.405 70.2H509.445V115H502.405V70.2ZM514.718 70.2H523.55L530.398 97.016H530.526V70.2H536.798V115H529.566L521.118 82.296H520.99V115H514.718V70.2ZM547.47 70.2H557.006L564.302 115H557.262L555.982 106.104V106.232H547.982L546.702 115H540.174L547.47 70.2ZM555.15 100.152L552.014 78.008H551.886L548.814 100.152H555.15ZM582.832 100.472C582.832 98.8933 583.066 97.4 583.536 95.992C584.048 94.5413 584.965 92.8773 586.288 91C587.824 88.824 588.869 86.9467 589.424 85.368C589.978 83.7893 590.256 82.1253 590.256 80.376C590.256 78.84 589.957 77.7307 589.36 77.048C588.762 76.3227 587.888 75.96 586.736 75.96C585.584 75.96 584.709 76.3227 584.112 77.048C583.514 77.7307 583.216 78.84 583.216 80.376V85.24H576.56V80.824C576.56 77.1973 577.434 74.424 579.184 72.504C580.933 70.5413 583.493 69.56 586.864 69.56C590.277 69.56 592.858 70.5413 594.608 72.504C596.4 74.424 597.296 77.1973 597.296 80.824C597.296 82.7867 596.933 84.6853 596.208 86.52C595.525 88.312 594.33 90.3387 592.624 92.6C591.258 94.4347 590.298 95.9707 589.744 97.208C589.232 98.4027 588.976 99.576 588.976 100.728V103.16H582.832V100.472ZM582.512 108.216H589.296V115H582.512V108.216Z" fill="url(#paint0_radial_2753_10047)"/>
<defs>
<radialGradient id="paint0_radial_2753_10047" cx="0" cy="0" r="1" gradientUnits="userSpaceOnUse" gradientTransform="translate(229.5 45.7474) rotate(-26.4654) scale(853.996 181.22)">
<stop stop-color="white"/>
<stop offset="1" stop-color="#999999"/>
</radialGradient>
</defs>
</svg>
