<svg width="56" height="56" viewBox="0 0 56 56" fill="none" xmlns="http://www.w3.org/2000/svg">
<rect width="56" height="56" rx="28" fill="#DAB319" fill-opacity="0.2"/>
<path d="M28 5.25C23.5005 5.25 19.102 6.58426 15.3608 9.08407C11.6196 11.5839 8.70364 15.1369 6.98175 19.294C5.25986 23.451 4.80933 28.0252 5.68715 32.4383C6.56496 36.8514 8.73169 40.905 11.9133 44.0867C15.095 47.2683 19.1486 49.4351 23.5617 50.3129C27.9748 51.1907 32.549 50.7402 36.7061 49.0183C40.8631 47.2964 44.4161 44.3804 46.9159 40.6392C49.4157 36.898 50.75 32.4995 50.75 28C50.7425 21.9686 48.3432 16.1865 44.0784 11.9216C39.8136 7.65681 34.0314 5.25753 28 5.25ZM24.5 35C24.5 35.4641 24.3156 35.9093 23.9874 36.2374C23.6593 36.5656 23.2141 36.75 22.75 36.75C22.2859 36.75 21.8408 36.5656 21.5126 36.2374C21.1844 35.9093 21 35.4641 21 35V21C21 20.5359 21.1844 20.0908 21.5126 19.7626C21.8408 19.4344 22.2859 19.25 22.75 19.25C23.2141 19.25 23.6593 19.4344 23.9874 19.7626C24.3156 20.0908 24.5 20.5359 24.5 21V35ZM35 35C35 35.4641 34.8156 35.9093 34.4874 36.2374C34.1593 36.5656 33.7141 36.75 33.25 36.75C32.7859 36.75 32.3408 36.5656 32.0126 36.2374C31.6844 35.9093 31.5 35.4641 31.5 35V21C31.5 20.5359 31.6844 20.0908 32.0126 19.7626C32.3408 19.4344 32.7859 19.25 33.25 19.25C33.7141 19.25 34.1593 19.4344 34.4874 19.7626C34.8156 20.0908 35 20.5359 35 21V35Z" fill="#F4C91D"/>
</svg>
