<svg width="28" height="28" viewBox="0 0 28 28" fill="none" xmlns="http://www.w3.org/2000/svg">
<path d="M27.9249 2.54257C27.9249 2.54257 27.9249 2.55507 27.9249 2.56132L20.6499 26.5538C20.5398 26.9435 20.3131 27.2902 20.0003 27.5474C19.6875 27.8045 19.3035 27.9599 18.8999 27.9926C18.8424 27.9976 18.7849 28.0001 18.7274 28.0001C18.3491 28.0012 17.9784 27.8942 17.6591 27.6915C17.3397 27.4889 17.0849 27.1991 16.9249 26.8563L12.3749 17.5188C12.3294 17.4252 12.3142 17.3198 12.3314 17.2172C12.3487 17.1145 12.3975 17.0199 12.4711 16.9463L19.7111 9.70632C19.8908 9.51726 19.9894 9.26551 19.9861 9.00475C19.9827 8.74399 19.8777 8.49484 19.6933 8.31044C19.5089 8.12604 19.2597 8.02097 18.999 8.01763C18.7382 8.01429 18.4865 8.11295 18.2974 8.29257L11.0536 15.5326C10.9801 15.6062 10.8854 15.655 10.7828 15.6723C10.6802 15.6895 10.5747 15.6744 10.4811 15.6288L1.1349 11.0801C0.769422 10.9047 0.465853 10.6225 0.264419 10.2707C0.062984 9.91894 -0.0268062 9.51427 0.00694683 9.11032C0.0406998 8.70637 0.196402 8.32221 0.453421 8.00875C0.71044 7.69529 1.05664 7.46733 1.44615 7.35507L25.4386 0.0800707H25.4574C25.799 -0.0159025 26.16 -0.019267 26.5033 0.0703222C26.8467 0.159911 27.16 0.339229 27.4111 0.589877C27.6623 0.840524 27.8422 1.15348 27.9325 1.49663C28.0228 1.83978 28.0202 2.20077 27.9249 2.54257Z" fill="#5B5B5B"/>
</svg>
