<svg width="341" height="104" viewBox="0 0 341 104" fill="none" xmlns="http://www.w3.org/2000/svg">
<path d="M42.1493 16.4183C42.1725 15.8217 41.9952 15.3544 41.6173 15.0163C41.2428 14.6783 40.7175 14.5092 40.0413 14.5092C39.5707 14.5092 39.1398 14.5921 38.7487 14.7578C38.3609 14.9202 38.0411 15.1439 37.7892 15.429C37.5406 15.714 37.3865 16.0388 37.3269 16.4034C37.2838 16.6719 37.3037 16.9072 37.3865 17.1094C37.4694 17.3082 37.597 17.4806 37.7693 17.6264C37.9417 17.7723 38.1389 17.8965 38.3609 17.9993C38.5863 18.102 38.815 18.1882 39.047 18.2578L40.0761 18.5661C40.3811 18.6555 40.6843 18.7699 40.9859 18.9091C41.2876 19.0483 41.556 19.2223 41.7913 19.4311C42.0267 19.6399 42.2007 19.8968 42.3134 20.2017C42.4294 20.5066 42.4526 20.8712 42.383 21.2955C42.2902 21.8456 42.0681 22.3378 41.7168 22.772C41.3688 23.2029 40.9114 23.5443 40.3446 23.7962C39.7779 24.0481 39.1233 24.174 38.3808 24.174C37.6881 24.174 37.1048 24.0597 36.6308 23.831C36.1569 23.599 35.8072 23.2791 35.5818 22.8714C35.3565 22.4638 35.2703 21.9915 35.3233 21.4545H36.2779C36.2414 21.8556 36.316 22.1953 36.5016 22.4737C36.6905 22.7521 36.959 22.9643 37.307 23.1101C37.6583 23.2526 38.0627 23.3239 38.52 23.3239C39.0271 23.3239 39.4928 23.2393 39.9171 23.0703C40.3413 22.898 40.691 22.6593 40.9661 22.3544C41.2445 22.0462 41.4168 21.6882 41.4831 21.2805C41.5428 20.9358 41.5013 20.6458 41.3588 20.4105C41.2196 20.1752 41.0025 19.978 40.7075 19.8189C40.4159 19.6565 40.0679 19.514 39.6635 19.3913L38.5002 19.0334C37.7412 18.8014 37.1761 18.4749 36.8048 18.054C36.4369 17.633 36.306 17.0961 36.4121 16.4432C36.5049 15.893 36.7319 15.4107 37.0932 14.9964C37.4578 14.5788 37.9102 14.254 38.4504 14.022C38.9907 13.79 39.574 13.674 40.2004 13.674C40.8335 13.674 41.3721 13.7917 41.8162 14.027C42.2636 14.2623 42.5951 14.5871 42.8105 15.0014C43.0293 15.4124 43.1105 15.8847 43.0541 16.4183H42.1493ZM46.9867 24.1591C46.3172 24.1591 45.7537 23.9901 45.2963 23.652C44.8389 23.3106 44.5158 22.8383 44.3269 22.2351C44.1379 21.6319 44.1065 20.9358 44.2324 20.147C44.3583 19.3781 44.6086 18.7019 44.9831 18.1186C45.3609 17.532 45.825 17.0762 46.3752 16.7514C46.9253 16.4233 47.5236 16.2592 48.1699 16.2592C48.8427 16.2592 49.4062 16.4299 49.8602 16.7713C50.3176 17.1127 50.6408 17.585 50.8297 18.1882C51.0219 18.7914 51.0551 19.4891 50.9291 20.2812C50.8032 21.0469 50.5513 21.7214 50.1734 22.3047C49.7956 22.8847 49.3316 23.3388 48.7814 23.6669C48.2345 23.995 47.6363 24.1591 46.9867 24.1591ZM46.9966 23.3487C47.5402 23.3487 48.0241 23.2045 48.4483 22.9162C48.8759 22.6245 49.2288 22.2367 49.5073 21.7528C49.7857 21.2656 49.9729 20.7304 50.069 20.147C50.1585 19.5902 50.1486 19.0781 50.0392 18.6108C49.9298 18.1435 49.7194 17.7689 49.4078 17.4872C49.0963 17.2055 48.682 17.0646 48.1649 17.0646C47.6247 17.0646 47.1408 17.2121 46.7132 17.5071C46.2857 17.7988 45.9327 18.1899 45.6543 18.6804C45.3759 19.1676 45.1903 19.7012 45.0975 20.2812C45.0047 20.8414 45.0113 21.3535 45.1173 21.8175C45.2267 22.2815 45.4372 22.6527 45.7487 22.9311C46.0636 23.2095 46.4796 23.3487 46.9966 23.3487ZM57.5898 21.0817L58.3803 16.3636H59.2652L57.9925 24H57.1076L57.3164 22.7322H57.2518C57.0131 23.1233 56.675 23.4498 56.2375 23.7116C55.8034 23.9702 55.3062 24.0994 54.7461 24.0994C54.2589 24.0994 53.8429 23.9934 53.4982 23.7812C53.1568 23.5658 52.9132 23.2509 52.7674 22.8366C52.6215 22.4223 52.5983 21.9136 52.6978 21.3104L53.528 16.3636H54.413L53.5976 21.2557C53.5015 21.8523 53.5976 22.3329 53.886 22.6974C54.1777 23.0587 54.5986 23.2393 55.1488 23.2393C55.4935 23.2393 55.8382 23.1565 56.1829 22.9908C56.5309 22.825 56.8325 22.5831 57.0877 22.2649C57.3462 21.9434 57.5136 21.549 57.5898 21.0817ZM66.3063 24.169C65.8224 24.169 65.3998 24.0795 65.0385 23.9006C64.6772 23.7183 64.4104 23.4548 64.2381 23.1101C64.0657 22.7654 64.021 22.3428 64.1038 21.8423C64.1768 21.4115 64.3193 21.0568 64.5314 20.7784C64.7468 20.5 65.0087 20.2796 65.3169 20.1172C65.6252 19.9515 65.9599 19.8272 66.3212 19.7443C66.6824 19.6615 67.047 19.6001 67.4149 19.5604C67.8789 19.5073 68.2551 19.4626 68.5435 19.4261C68.8351 19.3897 69.0539 19.3333 69.1997 19.2571C69.3456 19.1776 69.4334 19.0483 69.4632 18.8693V18.8345C69.5328 18.4036 69.4699 18.0689 69.2743 17.8303C69.0821 17.5883 68.7473 17.4673 68.27 17.4673C67.7729 17.4673 67.3553 17.5767 67.0172 17.7955C66.6824 18.0142 66.4355 18.2595 66.2764 18.5312L64.944 18.2131C65.1827 17.7491 65.4859 17.3745 65.8538 17.0895C66.2251 16.8011 66.6311 16.5923 67.0719 16.4631C67.5127 16.3305 67.9635 16.2642 68.4242 16.2642C68.7291 16.2642 69.0456 16.3007 69.3737 16.3736C69.7019 16.4432 70.0002 16.5724 70.2686 16.7614C70.5404 16.9503 70.7426 17.2204 70.8752 17.5717C71.0077 17.9197 71.0276 18.3722 70.9348 18.929L70.0946 24H68.6429L68.8219 22.956H68.7622C68.6363 23.1482 68.4606 23.3371 68.2352 23.5227C68.0132 23.7083 67.7414 23.8625 67.4199 23.9851C67.0984 24.1077 66.7272 24.169 66.3063 24.169ZM66.8134 22.9759C67.2277 22.9759 67.5939 22.8946 67.9121 22.7322C68.2336 22.5698 68.4938 22.3577 68.6926 22.0959C68.8915 21.8307 69.0158 21.5473 69.0655 21.2457L69.2296 20.2614C69.1666 20.3144 69.0556 20.3625 68.8965 20.4055C68.7407 20.4486 68.565 20.4867 68.3695 20.5199C68.1739 20.553 67.9817 20.5812 67.7928 20.6044C67.6072 20.6276 67.453 20.6491 67.3304 20.669C67.0387 20.7055 66.7653 20.7668 66.5101 20.853C66.2582 20.9392 66.0477 21.0634 65.8787 21.2259C65.7097 21.3849 65.6036 21.5971 65.5605 21.8622C65.5009 22.2301 65.5887 22.5085 65.824 22.6974C66.0627 22.883 66.3924 22.9759 66.8134 22.9759ZM71.6022 26.8636L73.3622 16.3636H74.8139L74.6101 17.6016H74.7344C74.847 17.4425 74.9995 17.2585 75.1917 17.0497C75.3873 16.8409 75.6442 16.6586 75.9623 16.5028C76.2805 16.3438 76.6766 16.2642 77.1505 16.2642C77.767 16.2642 78.289 16.42 78.7166 16.7315C79.1442 17.0431 79.4491 17.4922 79.6314 18.0788C79.8137 18.6655 79.8369 19.3714 79.701 20.1967C79.5651 21.022 79.3099 21.7296 78.9353 22.3196C78.5608 22.9062 78.1067 23.3587 77.5731 23.6768C77.0428 23.9917 76.4678 24.1491 75.848 24.1491C75.384 24.1491 75.0177 24.0713 74.7493 23.9155C74.4841 23.7597 74.2869 23.5774 74.1576 23.3686C74.0284 23.1598 73.9306 22.9742 73.8643 22.8118H73.7748L73.0987 26.8636H71.6022ZM74.1825 20.1818C74.0963 20.7187 74.0963 21.1894 74.1825 21.5938C74.2687 21.9981 74.441 22.3146 74.6996 22.5433C74.9614 22.7687 75.3061 22.8814 75.7336 22.8814C76.1778 22.8814 76.5672 22.7637 76.902 22.5284C77.2367 22.2898 77.5135 21.9666 77.7322 21.5589C77.9543 21.1513 78.1084 20.6922 78.1946 20.1818C78.2774 19.678 78.2758 19.2256 78.1896 18.8246C78.1067 18.4235 77.9361 18.107 77.6775 17.875C77.419 17.643 77.066 17.527 76.6186 17.527C76.1844 17.527 75.7999 17.638 75.4652 17.8601C75.1337 18.0821 74.8586 18.392 74.6399 18.7898C74.4211 19.1875 74.2687 19.6515 74.1825 20.1818ZM82.9313 24.169C82.4474 24.169 82.0248 24.0795 81.6635 23.9006C81.3022 23.7183 81.0354 23.4548 80.8631 23.1101C80.6907 22.7654 80.646 22.3428 80.7288 21.8423C80.8018 21.4115 80.9443 21.0568 81.1564 20.7784C81.3718 20.5 81.6337 20.2796 81.9419 20.1172C82.2502 19.9515 82.5849 19.8272 82.9462 19.7443C83.3074 19.6615 83.672 19.6001 84.0399 19.5604C84.5039 19.5073 84.8801 19.4626 85.1685 19.4261C85.4601 19.3897 85.6789 19.3333 85.8247 19.2571C85.9706 19.1776 86.0584 19.0483 86.0882 18.8693V18.8345C86.1578 18.4036 86.0949 18.0689 85.8993 17.8303C85.7071 17.5883 85.3723 17.4673 84.895 17.4673C84.3979 17.4673 83.9803 17.5767 83.6422 17.7955C83.3074 18.0142 83.0605 18.2595 82.9014 18.5312L81.569 18.2131C81.8077 17.7491 82.1109 17.3745 82.4788 17.0895C82.8501 16.8011 83.2561 16.5923 83.6969 16.4631C84.1377 16.3305 84.5885 16.2642 85.0492 16.2642C85.3541 16.2642 85.6706 16.3007 85.9987 16.3736C86.3269 16.4432 86.6252 16.5724 86.8936 16.7614C87.1654 16.9503 87.3676 17.2204 87.5002 17.5717C87.6327 17.9197 87.6526 18.3722 87.5598 18.929L86.7196 24H85.2679L85.4469 22.956H85.3872C85.2613 23.1482 85.0856 23.3371 84.8602 23.5227C84.6382 23.7083 84.3664 23.8625 84.0449 23.9851C83.7234 24.1077 83.3522 24.169 82.9313 24.169ZM83.4384 22.9759C83.8527 22.9759 84.2189 22.8946 84.5371 22.7322C84.8586 22.5698 85.1188 22.3577 85.3176 22.0959C85.5165 21.8307 85.6408 21.5473 85.6905 21.2457L85.8546 20.2614C85.7916 20.3144 85.6806 20.3625 85.5215 20.4055C85.3657 20.4486 85.19 20.4867 84.9945 20.5199C84.7989 20.553 84.6067 20.5812 84.4178 20.6044C84.2322 20.6276 84.078 20.6491 83.9554 20.669C83.6637 20.7055 83.3903 20.7668 83.1351 20.853C82.8832 20.9392 82.6727 21.0634 82.5037 21.2259C82.3347 21.3849 82.2286 21.5971 82.1855 21.8622C82.1259 22.2301 82.2137 22.5085 82.449 22.6974C82.6877 22.883 83.0174 22.9759 83.4384 22.9759ZM88.6996 24L89.9723 16.3636H91.4588L90.1861 24H88.6996ZM91.0263 15.1705C90.7677 15.1705 90.549 15.0843 90.37 14.9119C90.1943 14.7363 90.1131 14.5275 90.1264 14.2855C90.1397 14.0402 90.2424 13.8314 90.4346 13.6591C90.6269 13.4834 90.8506 13.3956 91.1058 13.3956C91.3643 13.3956 91.5814 13.4834 91.7571 13.6591C91.9327 13.8314 92.0156 14.0402 92.0057 14.2855C91.9924 14.5275 91.8897 14.7363 91.6974 14.9119C91.5085 15.0843 91.2848 15.1705 91.0263 15.1705ZM94.6319 16.3636L95.8251 19.3366L98.0176 16.3636H99.6433L96.6255 20.1818L98.3904 24H96.7647L95.5218 21.1463L93.3293 24H91.6987L94.7114 20.1818L93.0012 16.3636H94.6319ZM102.847 24.1541C102.122 24.1541 101.515 23.9884 101.028 23.657C100.541 23.3222 100.198 22.8549 99.9987 22.255C99.8032 21.6518 99.77 20.9508 99.8993 20.152C100.025 19.3698 100.279 18.687 100.66 18.1037C101.044 17.5204 101.525 17.0679 102.102 16.7464C102.682 16.425 103.326 16.2642 104.036 16.2642C104.762 16.2642 105.366 16.4316 105.85 16.7663C106.338 17.1011 106.681 17.5701 106.879 18.1733C107.078 18.7765 107.113 19.4792 106.984 20.2812C106.858 21.0568 106.601 21.7363 106.213 22.3196C105.829 22.8996 105.348 23.3504 104.771 23.6719C104.195 23.9934 103.553 24.1541 102.847 24.1541ZM102.932 22.9062C103.409 22.9062 103.825 22.7803 104.18 22.5284C104.538 22.2765 104.829 21.9418 105.055 21.5241C105.28 21.1065 105.434 20.6491 105.517 20.152C105.593 19.6714 105.592 19.2322 105.512 18.8345C105.436 18.4335 105.27 18.112 105.015 17.87C104.76 17.6281 104.405 17.5071 103.951 17.5071C103.474 17.5071 103.055 17.6347 102.693 17.8899C102.335 18.1418 102.044 18.4782 101.818 18.8991C101.596 19.3201 101.445 19.7791 101.366 20.2763C101.29 20.7536 101.29 21.1927 101.366 21.5938C101.442 21.9915 101.608 22.3097 101.863 22.5483C102.118 22.7869 102.475 22.9062 102.932 22.9062ZM110.269 19.4659L109.523 24H108.037L109.309 16.3636H110.736L110.527 17.6065H110.622C110.864 17.1989 111.194 16.8741 111.611 16.6321C112.032 16.3868 112.529 16.2642 113.103 16.2642C113.62 16.2642 114.054 16.3736 114.405 16.5923C114.76 16.8078 115.01 17.1293 115.156 17.5568C115.305 17.9844 115.328 18.513 115.225 19.1428L114.41 24H112.924L113.704 19.3217C113.794 18.7682 113.721 18.3357 113.485 18.0241C113.253 17.7093 112.884 17.5518 112.377 17.5518C112.032 17.5518 111.712 17.6264 111.417 17.7756C111.126 17.9247 110.879 18.1435 110.676 18.4318C110.478 18.7169 110.342 19.0616 110.269 19.4659ZM118.601 24.169C118.117 24.169 117.695 24.0795 117.333 23.9006C116.972 23.7183 116.705 23.4548 116.533 23.1101C116.361 22.7654 116.316 22.3428 116.399 21.8423C116.472 21.4115 116.614 21.0568 116.826 20.7784C117.042 20.5 117.304 20.2796 117.612 20.1172C117.92 19.9515 118.255 19.8272 118.616 19.7443C118.977 19.6615 119.342 19.6001 119.71 19.5604C120.174 19.5073 120.55 19.4626 120.838 19.4261C121.13 19.3897 121.349 19.3333 121.495 19.2571C121.64 19.1776 121.728 19.0483 121.758 18.8693V18.8345C121.828 18.4036 121.765 18.0689 121.569 17.8303C121.377 17.5883 121.042 17.4673 120.565 17.4673C120.068 17.4673 119.65 17.5767 119.312 17.7955C118.977 18.0142 118.73 18.2595 118.571 18.5312L117.239 18.2131C117.478 17.7491 117.781 17.3745 118.149 17.0895C118.52 16.8011 118.926 16.5923 119.367 16.4631C119.808 16.3305 120.258 16.2642 120.719 16.2642C121.024 16.2642 121.341 16.3007 121.669 16.3736C121.997 16.4432 122.295 16.5724 122.564 16.7614C122.835 16.9503 123.038 17.2204 123.17 17.5717C123.303 17.9197 123.323 18.3722 123.23 18.929L122.39 24H120.938L121.117 22.956H121.057C120.931 23.1482 120.756 23.3371 120.53 23.5227C120.308 23.7083 120.036 23.8625 119.715 23.9851C119.393 24.1077 119.022 24.169 118.601 24.169ZM119.108 22.9759C119.523 22.9759 119.889 22.8946 120.207 22.7322C120.529 22.5698 120.789 22.3577 120.988 22.0959C121.186 21.8307 121.311 21.5473 121.36 21.2457L121.524 20.2614C121.462 20.3144 121.35 20.3625 121.191 20.4055C121.036 20.4486 120.86 20.4867 120.664 20.5199C120.469 20.553 120.277 20.5812 120.088 20.6044C119.902 20.6276 119.748 20.6491 119.625 20.669C119.334 20.7055 119.06 20.7668 118.805 20.853C118.553 20.9392 118.343 21.0634 118.174 21.2259C118.005 21.3849 117.899 21.5971 117.855 21.8622C117.796 22.2301 117.884 22.5085 118.119 22.6974C118.358 22.883 118.687 22.9759 119.108 22.9759ZM127.218 24.1491C126.598 24.1491 126.073 23.9917 125.642 23.6768C125.215 23.3587 124.911 22.9062 124.732 22.3196C124.557 21.7296 124.537 21.022 124.673 20.1967C124.812 19.3714 125.069 18.6655 125.443 18.0788C125.818 17.4922 126.272 17.0431 126.806 16.7315C127.339 16.42 127.914 16.2642 128.531 16.2642C129.005 16.2642 129.373 16.3438 129.634 16.5028C129.9 16.6586 130.095 16.8409 130.221 17.0497C130.347 17.2585 130.441 17.4425 130.504 17.6016H130.589L131.22 13.8182H132.707L131.016 24H129.565L129.769 22.8118H129.644C129.528 22.9742 129.368 23.1598 129.162 23.3686C128.96 23.5774 128.701 23.7597 128.387 23.9155C128.072 24.0713 127.682 24.1491 127.218 24.1491ZM127.72 22.8814C128.148 22.8814 128.531 22.7687 128.869 22.5433C129.21 22.3146 129.494 21.9981 129.719 21.5938C129.948 21.1894 130.107 20.7187 130.196 20.1818C130.286 19.6515 130.284 19.1875 130.191 18.7898C130.098 18.392 129.919 18.0821 129.654 17.8601C129.389 17.638 129.039 17.527 128.605 17.527C128.158 17.527 127.768 17.643 127.437 17.875C127.106 18.107 126.834 18.4235 126.622 18.8246C126.413 19.2256 126.267 19.678 126.184 20.1818C126.098 20.6922 126.095 21.1513 126.174 21.5589C126.254 21.9666 126.421 22.2898 126.676 22.5284C126.931 22.7637 127.28 22.8814 127.72 22.8814ZM136.385 24.1541C135.659 24.1541 135.052 23.9884 134.565 23.657C134.078 23.3222 133.735 22.8549 133.536 22.255C133.34 21.6518 133.307 20.9508 133.436 20.152C133.562 19.3698 133.816 18.687 134.197 18.1037C134.582 17.5204 135.062 17.0679 135.639 16.7464C136.219 16.425 136.863 16.2642 137.573 16.2642C138.299 16.2642 138.904 16.4316 139.387 16.7663C139.875 17.1011 140.218 17.5701 140.417 18.1733C140.615 18.7765 140.65 19.4792 140.521 20.2812C140.395 21.0568 140.138 21.7363 139.75 22.3196C139.366 22.8996 138.885 23.3504 138.309 23.6719C137.732 23.9934 137.091 24.1541 136.385 24.1541ZM136.469 22.9062C136.946 22.9062 137.362 22.7803 137.717 22.5284C138.075 22.2765 138.367 21.9418 138.592 21.5241C138.817 21.1065 138.971 20.6491 139.054 20.152C139.131 19.6714 139.129 19.2322 139.049 18.8345C138.973 18.4335 138.807 18.112 138.552 17.87C138.297 17.6281 137.942 17.5071 137.488 17.5071C137.011 17.5071 136.592 17.6347 136.23 17.8899C135.872 18.1418 135.581 18.4782 135.355 18.8991C135.133 19.3201 134.983 19.7791 134.903 20.2763C134.827 20.7536 134.827 21.1927 134.903 21.5938C134.979 21.9915 135.145 22.3097 135.4 22.5483C135.655 22.7869 136.012 22.9062 136.469 22.9062ZM148.743 24.1591C148.03 24.1591 147.442 23.9934 146.978 23.6619C146.514 23.3272 146.189 22.8648 146.003 22.2749C145.818 21.6816 145.79 20.9988 145.919 20.2266C146.048 19.4576 146.303 18.7749 146.684 18.1783C147.066 17.5784 147.536 17.1094 148.096 16.7713C148.657 16.4299 149.265 16.2592 149.921 16.2592C150.335 16.2592 150.723 16.3355 151.084 16.4879C151.446 16.6371 151.752 16.8674 152.004 17.179C152.259 17.4872 152.437 17.8767 152.536 18.3473C152.635 18.8146 152.632 19.3681 152.526 20.0078L152.456 20.4453H146.491L146.615 19.6648H151.681C151.764 19.1742 151.741 18.7334 151.611 18.3423C151.482 17.9512 151.262 17.6413 150.95 17.4126C150.642 17.1806 150.259 17.0646 149.802 17.0646C149.334 17.0646 148.892 17.1955 148.474 17.4574C148.06 17.7192 147.709 18.0606 147.42 18.4815C147.135 18.8991 146.951 19.3449 146.868 19.8189L146.769 20.4055C146.663 21.0518 146.676 21.5938 146.809 22.0312C146.941 22.4654 147.182 22.7936 147.53 23.0156C147.878 23.2377 148.323 23.3487 148.867 23.3487C149.232 23.3487 149.561 23.2924 149.856 23.1797C150.151 23.067 150.408 22.9162 150.627 22.7273C150.846 22.535 151.021 22.3246 151.154 22.0959L151.944 22.3693C151.775 22.6908 151.537 22.9875 151.228 23.2592C150.924 23.531 150.561 23.7498 150.14 23.9155C149.722 24.0779 149.256 24.1591 148.743 24.1591ZM153.81 24L155.083 16.3636H155.943L155.744 17.5369H155.823C156.046 17.1425 156.354 16.8326 156.748 16.6072C157.143 16.3786 157.59 16.2642 158.091 16.2642C158.614 16.2642 159.025 16.3885 159.323 16.6371C159.622 16.8823 159.821 17.2204 159.92 17.6513H159.985C160.223 17.227 160.56 16.8906 160.994 16.642C161.428 16.3902 161.924 16.2642 162.48 16.2642C163.186 16.2642 163.708 16.4879 164.046 16.9354C164.385 17.3828 164.482 18.0324 164.34 18.8842L163.485 24H162.6L163.455 18.8842C163.551 18.281 163.473 17.8286 163.221 17.527C162.969 17.2254 162.591 17.0746 162.088 17.0746C161.504 17.0746 161.022 17.2536 160.641 17.6115C160.263 17.9661 160.029 18.4202 159.94 18.9737L159.1 24H158.195L159.065 18.8047C159.148 18.2876 159.073 17.87 158.841 17.5518C158.613 17.2337 158.236 17.0746 157.713 17.0746C157.358 17.0746 157.025 17.1624 156.713 17.3381C156.405 17.5104 156.143 17.7507 155.928 18.0589C155.716 18.3639 155.577 18.7135 155.51 19.108L154.695 24H153.81ZM171.798 24.169C171.315 24.169 170.892 24.0795 170.531 23.9006C170.169 23.7183 169.903 23.4548 169.73 23.1101C169.558 22.7654 169.513 22.3428 169.596 21.8423C169.669 21.4115 169.811 21.0568 170.024 20.7784C170.239 20.5 170.501 20.2796 170.809 20.1172C171.117 19.9515 171.452 19.8272 171.813 19.7443C172.175 19.6615 172.539 19.6001 172.907 19.5604C173.371 19.5073 173.747 19.4626 174.036 19.4261C174.327 19.3897 174.546 19.3333 174.692 19.2571C174.838 19.1776 174.926 19.0483 174.955 18.8693V18.8345C175.025 18.4036 174.962 18.0689 174.766 17.8303C174.574 17.5883 174.24 17.4673 173.762 17.4673C173.265 17.4673 172.847 17.5767 172.509 17.7955C172.175 18.0142 171.928 18.2595 171.769 18.5312L170.436 18.2131C170.675 17.7491 170.978 17.3745 171.346 17.0895C171.717 16.8011 172.123 16.5923 172.564 16.4631C173.005 16.3305 173.456 16.2642 173.916 16.2642C174.221 16.2642 174.538 16.3007 174.866 16.3736C175.194 16.4432 175.492 16.5724 175.761 16.7614C176.033 16.9503 176.235 17.2204 176.367 17.5717C176.5 17.9197 176.52 18.3722 176.427 18.929L175.587 24H174.135L174.314 22.956H174.254C174.128 23.1482 173.953 23.3371 173.727 23.5227C173.505 23.7083 173.234 23.8625 172.912 23.9851C172.591 24.1077 172.219 24.169 171.798 24.169ZM172.306 22.9759C172.72 22.9759 173.086 22.8946 173.404 22.7322C173.726 22.5698 173.986 22.3577 174.185 22.0959C174.384 21.8307 174.508 21.5473 174.558 21.2457L174.722 20.2614C174.659 20.3144 174.548 20.3625 174.389 20.4055C174.233 20.4486 174.057 20.4867 173.862 20.5199C173.666 20.553 173.474 20.5812 173.285 20.6044C173.099 20.6276 172.945 20.6491 172.823 20.669C172.531 20.7055 172.257 20.7668 172.002 20.853C171.75 20.9392 171.54 21.0634 171.371 21.2259C171.202 21.3849 171.096 21.5971 171.053 21.8622C170.993 22.2301 171.081 22.5085 171.316 22.6974C171.555 22.883 171.885 22.9759 172.306 22.9759ZM178.839 16.3636H180.326L178.979 24.4972C178.892 25.0076 178.727 25.4384 178.482 25.7898C178.236 26.1411 177.918 26.4079 177.527 26.5902C177.136 26.7725 176.677 26.8636 176.15 26.8636C176.1 26.8636 176.052 26.8636 176.006 26.8636C175.956 26.8636 175.905 26.862 175.852 26.8587L176.065 25.581C176.108 25.581 176.148 25.581 176.185 25.581C176.221 25.581 176.261 25.581 176.304 25.581C176.655 25.581 176.927 25.4865 177.119 25.2976C177.308 25.1087 177.434 24.8385 177.497 24.4872L178.839 16.3636ZM179.859 15.1854C179.603 15.1854 179.386 15.0992 179.207 14.9268C179.032 14.7512 178.95 14.5424 178.964 14.3004C178.974 14.0552 179.075 13.8464 179.267 13.674C179.459 13.4983 179.685 13.4105 179.943 13.4105C180.202 13.4105 180.419 13.4983 180.594 13.674C180.77 13.8464 180.851 14.0552 180.838 14.3004C180.828 14.5424 180.727 14.7512 180.535 14.9268C180.343 15.0992 180.117 15.1854 179.859 15.1854ZM186.417 20.8331L187.163 16.3636H188.655L187.382 24H185.92L186.144 22.6776H186.064C185.826 23.0852 185.488 23.425 185.05 23.6967C184.616 23.9652 184.112 24.0994 183.539 24.0994C183.048 24.0994 182.632 23.9917 182.291 23.7763C181.953 23.5575 181.713 23.2344 181.57 22.8068C181.428 22.3793 181.408 21.8506 181.51 21.2209L182.326 16.3636H183.812L183.032 21.0419C182.949 21.5623 183.027 21.9766 183.265 22.2848C183.504 22.593 183.852 22.7472 184.309 22.7472C184.588 22.7472 184.876 22.6776 185.175 22.5384C185.473 22.3991 185.736 22.1887 185.965 21.907C186.197 21.6252 186.348 21.2673 186.417 20.8331ZM192.228 24.1491C191.608 24.1491 191.083 23.9917 190.652 23.6768C190.224 23.3587 189.921 22.9062 189.742 22.3196C189.567 21.7296 189.547 21.022 189.683 20.1967C189.822 19.3714 190.079 18.6655 190.453 18.0788C190.828 17.4922 191.282 17.0431 191.815 16.7315C192.349 16.42 192.924 16.2642 193.54 16.2642C194.014 16.2642 194.382 16.3438 194.644 16.5028C194.909 16.6586 195.105 16.8409 195.231 17.0497C195.357 17.2585 195.451 17.4425 195.514 17.6016H195.599L196.23 13.8182H197.717L196.026 24H194.575L194.778 22.8118H194.654C194.538 22.9742 194.377 23.1598 194.172 23.3686C193.97 23.5774 193.711 23.7597 193.396 23.9155C193.081 24.0713 192.692 24.1491 192.228 24.1491ZM192.73 22.8814C193.158 22.8814 193.54 22.7687 193.879 22.5433C194.22 22.3146 194.503 21.9981 194.729 21.5938C194.957 21.1894 195.116 20.7187 195.206 20.1818C195.295 19.6515 195.294 19.1875 195.201 18.7898C195.108 18.392 194.929 18.0821 194.664 17.8601C194.399 17.638 194.049 17.527 193.615 17.527C193.168 17.527 192.778 17.643 192.447 17.875C192.115 18.107 191.843 18.4235 191.631 18.8246C191.423 19.2256 191.277 19.678 191.194 20.1818C191.108 20.6922 191.104 21.1513 191.184 21.5589C191.263 21.9666 191.431 22.2898 191.686 22.5284C191.941 22.7637 192.289 22.8814 192.73 22.8814ZM200.345 24.169C199.861 24.169 199.439 24.0795 199.078 23.9006C198.716 23.7183 198.449 23.4548 198.277 23.1101C198.105 22.7654 198.06 22.3428 198.143 21.8423C198.216 21.4115 198.358 21.0568 198.57 20.7784C198.786 20.5 199.048 20.2796 199.356 20.1172C199.664 19.9515 199.999 19.8272 200.36 19.7443C200.722 19.6615 201.086 19.6001 201.454 19.5604C201.918 19.5073 202.294 19.4626 202.583 19.4261C202.874 19.3897 203.093 19.3333 203.239 19.2571C203.385 19.1776 203.472 19.0483 203.502 18.8693V18.8345C203.572 18.4036 203.509 18.0689 203.313 17.8303C203.121 17.5883 202.786 17.4673 202.309 17.4673C201.812 17.4673 201.394 17.5767 201.056 17.7955C200.722 18.0142 200.475 18.2595 200.315 18.5312L198.983 18.2131C199.222 17.7491 199.525 17.3745 199.893 17.0895C200.264 16.8011 200.67 16.5923 201.111 16.4631C201.552 16.3305 202.003 16.2642 202.463 16.2642C202.768 16.2642 203.085 16.3007 203.413 16.3736C203.741 16.4432 204.039 16.5724 204.308 16.7614C204.579 16.9503 204.782 17.2204 204.914 17.5717C205.047 17.9197 205.067 18.3722 204.974 18.929L204.134 24H202.682L202.861 22.956H202.801C202.675 23.1482 202.5 23.3371 202.274 23.5227C202.052 23.7083 201.78 23.8625 201.459 23.9851C201.137 24.1077 200.766 24.169 200.345 24.169ZM200.852 22.9759C201.267 22.9759 201.633 22.8946 201.951 22.7322C202.273 22.5698 202.533 22.3577 202.732 22.0959C202.931 21.8307 203.055 21.5473 203.105 21.2457L203.269 20.2614C203.206 20.3144 203.095 20.3625 202.936 20.4055C202.78 20.4486 202.604 20.4867 202.409 20.5199C202.213 20.553 202.021 20.5812 201.832 20.6044C201.646 20.6276 201.492 20.6491 201.369 20.669C201.078 20.7055 200.804 20.7668 200.549 20.853C200.297 20.9392 200.087 21.0634 199.918 21.2259C199.749 21.3849 199.643 21.5971 199.6 21.8622C199.54 22.2301 199.628 22.5085 199.863 22.6974C200.102 22.883 200.431 22.9759 200.852 22.9759ZM206.114 24L207.386 16.3636H208.823L208.619 17.5767H208.699C208.904 17.1657 209.204 16.8426 209.599 16.6072C209.993 16.3686 210.414 16.2493 210.861 16.2493C210.958 16.2493 211.067 16.2526 211.19 16.2592C211.312 16.2625 211.412 16.2708 211.488 16.2841L211.249 17.706C211.193 17.6894 211.09 17.6712 210.941 17.6513C210.792 17.6281 210.638 17.6165 210.479 17.6165C210.131 17.6165 209.808 17.6911 209.509 17.8402C209.211 17.986 208.961 18.1899 208.758 18.4517C208.556 18.7102 208.425 19.0052 208.366 19.3366L207.6 24H206.114ZM214.747 26.8636L216.507 16.3636H217.958L217.755 17.6016H217.879C217.992 17.4425 218.144 17.2585 218.336 17.0497C218.532 16.8409 218.789 16.6586 219.107 16.5028C219.425 16.3438 219.821 16.2642 220.295 16.2642C220.912 16.2642 221.434 16.42 221.861 16.7315C222.289 17.0431 222.594 17.4922 222.776 18.0788C222.958 18.6655 222.981 19.3714 222.846 20.1967C222.71 21.022 222.454 21.7296 222.08 22.3196C221.705 22.9062 221.251 23.3587 220.718 23.6768C220.187 23.9917 219.612 24.1491 218.993 24.1491C218.529 24.1491 218.162 24.0713 217.894 23.9155C217.629 23.7597 217.431 23.5774 217.302 23.3686C217.173 23.1598 217.075 22.9742 217.009 22.8118H216.919L216.243 26.8636H214.747ZM217.327 20.1818C217.241 20.7187 217.241 21.1894 217.327 21.5938C217.413 21.9981 217.586 22.3146 217.844 22.5433C218.106 22.7687 218.451 22.8814 218.878 22.8814C219.322 22.8814 219.712 22.7637 220.046 22.5284C220.381 22.2898 220.658 21.9666 220.877 21.5589C221.099 21.1513 221.253 20.6922 221.339 20.1818C221.422 19.678 221.42 19.2256 221.334 18.8246C221.251 18.4235 221.081 18.107 220.822 17.875C220.564 17.643 220.211 17.527 219.763 17.527C219.329 17.527 218.944 17.638 218.61 17.8601C218.278 18.0821 218.003 18.392 217.784 18.7898C217.566 19.1875 217.413 19.6515 217.327 20.1818ZM227.145 24.1541C226.396 24.1541 225.776 23.9934 225.285 23.6719C224.798 23.3471 224.457 22.8913 224.261 22.3047C224.066 21.7147 224.034 21.0237 224.167 20.2315C224.296 19.4493 224.556 18.7599 224.947 18.1634C225.338 17.5668 225.826 17.1011 226.409 16.7663C226.996 16.4316 227.644 16.2642 228.353 16.2642C228.784 16.2642 229.19 16.3355 229.571 16.478C229.955 16.6205 230.282 16.8442 230.55 17.1491C230.819 17.4541 231.004 17.8501 231.107 18.3374C231.213 18.8213 231.21 19.4096 231.097 20.1023L231.013 20.6293H224.937L225.111 19.5156H229.725C229.795 19.1245 229.776 18.7782 229.67 18.4766C229.564 18.1716 229.382 17.9313 229.123 17.7557C228.868 17.58 228.547 17.4922 228.159 17.4922C227.761 17.4922 227.39 17.5966 227.045 17.8054C226.701 18.0142 226.412 18.281 226.18 18.6058C225.952 18.9273 225.807 19.2588 225.748 19.6001L225.574 20.6193C225.487 21.1761 225.502 21.6236 225.618 21.9616C225.738 22.2997 225.947 22.545 226.245 22.6974C226.543 22.8499 226.916 22.9261 227.363 22.9261C227.652 22.9261 227.919 22.8864 228.164 22.8068C228.412 22.724 228.633 22.603 228.825 22.4439C229.017 22.2815 229.178 22.0793 229.307 21.8374L230.67 22.0909C230.487 22.5052 230.225 22.8681 229.884 23.1797C229.543 23.4879 229.14 23.7282 228.676 23.9006C228.215 24.0696 227.705 24.1541 227.145 24.1541ZM238.804 18.228L237.417 18.4666C237.387 18.291 237.326 18.1252 237.233 17.9695C237.144 17.8137 237.006 17.6877 236.821 17.5916C236.635 17.4922 236.388 17.4425 236.08 17.4425C235.652 17.4425 235.278 17.5402 234.956 17.7358C234.638 17.9313 234.456 18.1799 234.409 18.4815C234.366 18.7268 234.424 18.9257 234.583 19.0781C234.743 19.2273 235.023 19.3516 235.424 19.451L236.597 19.7294C237.273 19.8918 237.757 20.1454 238.049 20.4901C238.344 20.8314 238.446 21.2756 238.357 21.8224C238.281 22.2765 238.082 22.6792 237.76 23.0305C237.442 23.3819 237.034 23.657 236.537 23.8558C236.04 24.0547 235.487 24.1541 234.877 24.1541C234.008 24.1541 233.332 23.9702 232.848 23.6023C232.364 23.2344 232.116 22.714 232.103 22.0412L233.574 21.8224C233.601 22.197 233.735 22.4804 233.977 22.6726C234.222 22.8615 234.562 22.956 234.996 22.956C235.493 22.9593 235.909 22.8549 236.244 22.6428C236.579 22.4306 236.769 22.1738 236.816 21.8722C236.855 21.6368 236.802 21.4413 236.657 21.2855C236.514 21.1297 236.262 21.0104 235.901 20.9276L234.668 20.6442C233.979 20.4818 233.491 20.2199 233.206 19.8587C232.921 19.4974 232.825 19.0433 232.918 18.4964C232.991 18.049 233.18 17.6596 233.485 17.3281C233.793 16.9934 234.182 16.7332 234.653 16.5476C235.124 16.3587 235.644 16.2642 236.214 16.2642C237.046 16.2642 237.671 16.4432 238.088 16.8011C238.506 17.1558 238.745 17.6314 238.804 18.228ZM246.31 18.228L244.923 18.4666C244.893 18.291 244.832 18.1252 244.739 17.9695C244.65 17.8137 244.512 17.6877 244.327 17.5916C244.141 17.4922 243.894 17.4425 243.586 17.4425C243.158 17.4425 242.784 17.5402 242.462 17.7358C242.144 17.9313 241.962 18.1799 241.915 18.4815C241.872 18.7268 241.93 18.9257 242.089 19.0781C242.248 19.2273 242.528 19.3516 242.929 19.451L244.103 19.7294C244.779 19.8918 245.263 20.1454 245.554 20.4901C245.849 20.8314 245.952 21.2756 245.863 21.8224C245.786 22.2765 245.588 22.6792 245.266 23.0305C244.948 23.3819 244.54 23.657 244.043 23.8558C243.546 24.0547 242.992 24.1541 242.383 24.1541C241.514 24.1541 240.838 23.9702 240.354 23.6023C239.87 23.2344 239.622 22.714 239.608 22.0412L241.08 21.8224C241.107 22.197 241.241 22.4804 241.483 22.6726C241.728 22.8615 242.068 22.956 242.502 22.956C242.999 22.9593 243.415 22.8549 243.75 22.6428C244.085 22.4306 244.275 22.1738 244.322 21.8722C244.361 21.6368 244.308 21.4413 244.162 21.2855C244.02 21.1297 243.768 21.0104 243.407 20.9276L242.174 20.6442C241.484 20.4818 240.997 20.2199 240.712 19.8587C240.427 19.4974 240.331 19.0433 240.424 18.4964C240.497 18.049 240.686 17.6596 240.991 17.3281C241.299 16.9934 241.688 16.7332 242.159 16.5476C242.63 16.3587 243.15 16.2642 243.72 16.2642C244.552 16.2642 245.177 16.4432 245.594 16.8011C246.012 17.1558 246.251 17.6314 246.31 18.228ZM250.381 24.1541C249.655 24.1541 249.048 23.9884 248.561 23.657C248.074 23.3222 247.731 22.8549 247.532 22.255C247.336 21.6518 247.303 20.9508 247.433 20.152C247.558 19.3698 247.812 18.687 248.193 18.1037C248.578 17.5204 249.058 17.0679 249.635 16.7464C250.215 16.425 250.86 16.2642 251.569 16.2642C252.295 16.2642 252.9 16.4316 253.383 16.7663C253.871 17.1011 254.214 17.5701 254.413 18.1733C254.611 18.7765 254.646 19.4792 254.517 20.2812C254.391 21.0568 254.134 21.7363 253.746 22.3196C253.362 22.8996 252.881 23.3504 252.305 23.6719C251.728 23.9934 251.087 24.1541 250.381 24.1541ZM250.465 22.9062C250.942 22.9062 251.358 22.7803 251.713 22.5284C252.071 22.2765 252.363 21.9418 252.588 21.5241C252.813 21.1065 252.968 20.6491 253.05 20.152C253.127 19.6714 253.125 19.2322 253.045 18.8345C252.969 18.4335 252.803 18.112 252.548 17.87C252.293 17.6281 251.938 17.5071 251.484 17.5071C251.007 17.5071 250.588 17.6347 250.227 17.8899C249.869 18.1418 249.577 18.4782 249.352 18.8991C249.129 19.3201 248.979 19.7791 248.899 20.2763C248.823 20.7536 248.823 21.1927 248.899 21.5938C248.975 21.9915 249.141 22.3097 249.396 22.5483C249.651 22.7869 250.008 22.9062 250.465 22.9062ZM257.767 24.169C257.283 24.169 256.861 24.0795 256.499 23.9006C256.138 23.7183 255.871 23.4548 255.699 23.1101C255.527 22.7654 255.482 22.3428 255.565 21.8423C255.638 21.4115 255.78 21.0568 255.992 20.7784C256.208 20.5 256.47 20.2796 256.778 20.1172C257.086 19.9515 257.421 19.8272 257.782 19.7443C258.143 19.6615 258.508 19.6001 258.876 19.5604C259.34 19.5073 259.716 19.4626 260.004 19.4261C260.296 19.3897 260.515 19.3333 260.661 19.2571C260.806 19.1776 260.894 19.0483 260.924 18.8693V18.8345C260.994 18.4036 260.931 18.0689 260.735 17.8303C260.543 17.5883 260.208 17.4673 259.731 17.4673C259.234 17.4673 258.816 17.5767 258.478 17.7955C258.143 18.0142 257.896 18.2595 257.737 18.5312L256.405 18.2131C256.644 17.7491 256.947 17.3745 257.315 17.0895C257.686 16.8011 258.092 16.5923 258.533 16.4631C258.974 16.3305 259.424 16.2642 259.885 16.2642C260.19 16.2642 260.507 16.3007 260.835 16.3736C261.163 16.4432 261.461 16.5724 261.73 16.7614C262.001 16.9503 262.204 17.2204 262.336 17.5717C262.469 17.9197 262.489 18.3722 262.396 18.929L261.556 24H260.104L260.283 22.956H260.223C260.097 23.1482 259.922 23.3371 259.696 23.5227C259.474 23.7083 259.202 23.8625 258.881 23.9851C258.559 24.1077 258.188 24.169 257.767 24.169ZM258.274 22.9759C258.689 22.9759 259.055 22.8946 259.373 22.7322C259.695 22.5698 259.955 22.3577 260.154 22.0959C260.352 21.8307 260.477 21.5473 260.526 21.2457L260.69 20.2614C260.628 20.3144 260.516 20.3625 260.357 20.4055C260.202 20.4486 260.026 20.4867 259.83 20.5199C259.635 20.553 259.443 20.5812 259.254 20.6044C259.068 20.6276 258.914 20.6491 258.791 20.669C258.5 20.7055 258.226 20.7668 257.971 20.853C257.719 20.9392 257.509 21.0634 257.34 21.2259C257.171 21.3849 257.065 21.5971 257.021 21.8622C256.962 22.2301 257.05 22.5085 257.285 22.6974C257.524 22.883 257.853 22.9759 258.274 22.9759ZM270.222 18.228L268.835 18.4666C268.805 18.291 268.744 18.1252 268.651 17.9695C268.562 17.8137 268.424 17.6877 268.239 17.5916C268.053 17.4922 267.806 17.4425 267.498 17.4425C267.07 17.4425 266.696 17.5402 266.374 17.7358C266.056 17.9313 265.874 18.1799 265.827 18.4815C265.784 18.7268 265.842 18.9257 266.001 19.0781C266.16 19.2273 266.441 19.3516 266.842 19.451L268.015 19.7294C268.691 19.8918 269.175 20.1454 269.467 20.4901C269.762 20.8314 269.864 21.2756 269.775 21.8224C269.699 22.2765 269.5 22.6792 269.178 23.0305C268.86 23.3819 268.452 23.657 267.955 23.8558C267.458 24.0547 266.905 24.1541 266.295 24.1541C265.426 24.1541 264.75 23.9702 264.266 23.6023C263.782 23.2344 263.534 22.714 263.521 22.0412L264.992 21.8224C265.019 22.197 265.153 22.4804 265.395 22.6726C265.64 22.8615 265.98 22.956 266.414 22.956C266.911 22.9593 267.327 22.8549 267.662 22.6428C267.997 22.4306 268.187 22.1738 268.234 21.8722C268.273 21.6368 268.22 21.4413 268.075 21.2855C267.932 21.1297 267.68 21.0104 267.319 20.9276L266.086 20.6442C265.397 20.4818 264.909 20.2199 264.624 19.8587C264.339 19.4974 264.243 19.0433 264.336 18.4964C264.409 18.049 264.598 17.6596 264.903 17.3281C265.211 16.9934 265.6 16.7332 266.071 16.5476C266.542 16.3587 267.062 16.2642 267.632 16.2642C268.464 16.2642 269.089 16.4432 269.506 16.8011C269.924 17.1558 270.163 17.6314 270.222 18.228Z" fill="white"/>
<path d="M8.60216 57.3542C7.6643 57.3542 6.83778 57.1721 6.12258 56.8077C5.40738 56.4366 4.87435 55.9036 4.5235 55.2086C4.1794 54.5069 4.08494 53.6568 4.24012 52.6582C4.37506 51.889 4.63146 51.2413 5.0093 50.715C5.39388 50.1887 5.87968 49.7569 6.46668 49.4196C7.05369 49.0755 7.7284 48.8056 8.49083 48.6099C9.25326 48.4142 10.0832 48.2658 10.9805 48.1646C11.8577 48.0566 12.6066 47.9622 13.2273 47.8812C13.8481 47.8002 14.3305 47.6721 14.6746 47.4966C15.0187 47.3212 15.2245 47.0378 15.292 46.6465L15.3527 46.2821C15.5281 45.2228 15.3662 44.3896 14.8669 43.7823C14.3676 43.1683 13.531 42.8613 12.357 42.8613C11.2369 42.8613 10.2653 43.111 9.44218 43.6103C8.62577 44.1028 8.01853 44.6797 7.62045 45.3409L6.02137 44.7235C6.50717 43.8734 7.10429 43.1953 7.81274 42.6893C8.52119 42.1765 9.28025 41.8088 10.0899 41.5861C10.8996 41.3567 11.6991 41.242 12.4885 41.242C13.0823 41.242 13.6861 41.3196 14.3001 41.4748C14.9141 41.63 15.464 41.8999 15.9498 42.2844C16.4424 42.6623 16.8033 43.1919 17.0327 43.8734C17.2689 44.5481 17.3026 45.405 17.1339 46.4441L15.3729 57H13.5714L13.9864 54.5407H13.8751C13.5917 54.9995 13.2003 55.4448 12.7011 55.8766C12.2085 56.3084 11.6181 56.6626 10.9299 56.9393C10.2417 57.2159 9.46579 57.3542 8.60216 57.3542ZM9.05759 55.7045C10.0157 55.7045 10.8827 55.492 11.6586 55.0669C12.4413 54.6419 13.0823 54.0785 13.5816 53.3768C14.0876 52.6683 14.4115 51.889 14.5532 51.0389L14.9276 48.7921C14.7792 48.9203 14.5363 49.035 14.1989 49.1362C13.8683 49.2374 13.4938 49.3285 13.0755 49.4094C12.6639 49.4837 12.249 49.5478 11.8307 49.6017C11.4191 49.6557 11.0548 49.7029 10.7376 49.7434C9.84026 49.8514 9.05759 50.0201 8.38962 50.2495C7.7284 50.4789 7.19875 50.796 6.80067 51.2008C6.40258 51.5989 6.15294 52.1117 6.05173 52.7392C5.89655 53.6838 6.10234 54.4158 6.6691 54.9354C7.24261 55.4482 8.03877 55.7045 9.05759 55.7045ZM34.3443 57.3137C32.8329 57.3137 31.5948 56.973 30.6299 56.2915C29.6651 55.6033 28.9938 54.6554 28.6159 53.4476C28.2381 52.2399 28.1774 50.8567 28.4337 49.2981C28.6901 47.7193 29.213 46.326 30.0025 45.1183C30.7986 43.9038 31.7938 42.9558 32.9881 42.2743C34.1891 41.5929 35.5216 41.2521 36.9858 41.2521C38.1665 41.2521 39.182 41.4714 40.0321 41.91C40.8823 42.3418 41.5266 42.949 41.9652 43.7317C42.4037 44.5144 42.5927 45.4286 42.5319 46.4744H39.5868C39.5396 45.7457 39.2697 45.1183 38.7771 44.592C38.2846 44.0657 37.5593 43.8026 36.6012 43.8026C35.7578 43.8026 34.9819 44.0252 34.2734 44.4705C33.565 44.9091 32.9678 45.5366 32.482 46.353C31.9962 47.1626 31.6656 48.1207 31.4902 49.2273C31.3013 50.3608 31.3114 51.3391 31.5206 52.1623C31.7297 52.9854 32.1143 53.623 32.6743 54.0751C33.2343 54.5272 33.9394 54.7532 34.7896 54.7532C35.3698 54.7532 35.9096 54.6486 36.4089 54.4395C36.9149 54.2235 37.3602 53.9165 37.7448 53.5185C38.1362 53.1204 38.4398 52.6413 38.6557 52.0813H41.6109C41.3208 53.0866 40.835 53.984 40.1536 54.7734C39.4788 55.5629 38.6489 56.1836 37.6639 56.6357C36.6788 57.0877 35.5722 57.3137 34.3443 57.3137ZM50.626 57.3137C49.1484 57.3137 47.9136 56.9764 46.9218 56.3017C45.93 55.6202 45.2316 54.6689 44.8268 53.4476C44.4287 52.2196 44.3613 50.7926 44.6244 49.1665C44.8808 47.5742 45.3969 46.1843 46.1729 44.9968C46.9555 43.8093 47.9339 42.8883 49.1079 42.2338C50.2886 41.5794 51.601 41.2521 53.0448 41.2521C54.5225 41.2521 55.7538 41.5929 56.7389 42.2743C57.7308 42.9558 58.4291 43.9105 58.8339 45.1385C59.2387 46.3665 59.3096 47.7969 59.0464 49.4297C58.7901 51.0085 58.2671 52.3917 57.4777 53.5792C56.6951 54.7599 55.7167 55.6776 54.5427 56.332C53.3687 56.9865 52.0631 57.3137 50.626 57.3137ZM50.798 54.7734C51.7696 54.7734 52.6164 54.517 53.3384 54.0043C54.067 53.4915 54.6608 52.81 55.1196 51.9599C55.5784 51.1097 55.8921 50.1786 56.0608 49.1665C56.216 48.1882 56.2126 47.2942 56.0507 46.4846C55.8955 45.6681 55.5582 45.0137 55.0386 44.5211C54.5191 44.0286 53.7972 43.7823 52.8728 43.7823C51.9012 43.7823 51.0477 44.0421 50.3122 44.5616C49.5836 45.0744 48.9898 45.7592 48.531 46.6161C48.0789 47.473 47.7719 48.4075 47.61 49.4196C47.4548 50.3912 47.4548 51.2852 47.61 52.1016C47.7652 52.9112 48.1026 53.5589 48.6221 54.0447C49.1416 54.5305 49.8669 54.7734 50.798 54.7734ZM65.7337 47.7699L64.2156 57H61.1895L63.7804 41.4545H66.6851L66.26 43.9847H66.4523C66.9448 43.1548 67.6162 42.4936 68.4663 42.0011C69.3232 41.5018 70.3353 41.2521 71.5025 41.2521C72.5551 41.2521 73.439 41.4748 74.1542 41.9201C74.8761 42.3587 75.3855 43.0131 75.6824 43.8835C75.986 44.7539 76.0333 45.8301 75.8241 47.112L74.1643 57H71.1382L72.7272 47.4764C72.9093 46.3496 72.7609 45.4691 72.2818 44.8349C71.8095 44.1939 71.0572 43.8734 70.0249 43.8734C69.3232 43.8734 68.6721 44.0252 68.0716 44.3288C67.4779 44.6325 66.9752 45.0778 66.5636 45.6648C66.1588 46.245 65.8822 46.9467 65.7337 47.7699ZM91.825 45.2498L89.0013 45.7356C88.9406 45.378 88.8158 45.0407 88.6268 44.7235C88.4447 44.4064 88.1647 44.15 87.7868 43.9544C87.409 43.752 86.9063 43.6507 86.2788 43.6507C85.4084 43.6507 84.646 43.8498 83.9915 44.2479C83.3438 44.646 82.9727 45.152 82.8783 45.766C82.7905 46.2653 82.9086 46.6701 83.2325 46.9805C83.5563 47.2841 84.1265 47.5371 84.9429 47.7395L87.3314 48.3063C88.7078 48.6369 89.6929 49.1531 90.2866 49.8548C90.8871 50.5497 91.0963 51.4538 90.9141 52.5671C90.7589 53.4915 90.3541 54.3113 89.6996 55.0265C89.0519 55.7417 88.222 56.3017 87.2099 56.7065C86.1979 57.1113 85.0711 57.3137 83.8296 57.3137C82.0618 57.3137 80.6854 56.9393 79.7003 56.1903C78.7153 55.4414 78.2092 54.3821 78.1822 53.0124L81.178 52.5671C81.2319 53.3295 81.5052 53.9064 81.9977 54.2978C82.497 54.6824 83.1886 54.8746 84.0725 54.8746C85.0846 54.8814 85.9313 54.6689 86.6128 54.237C87.2943 53.8052 87.6822 53.2823 87.7767 52.6683C87.8577 52.1893 87.7497 51.7912 87.4528 51.4741C87.1627 51.157 86.6499 50.9141 85.9145 50.7454L83.4045 50.1685C82.0011 49.8379 81.0093 49.3049 80.429 48.5694C79.8488 47.834 79.6531 46.9096 79.842 45.7963C79.9905 44.8855 80.3751 44.0927 80.9958 43.418C81.6233 42.7365 82.4161 42.2069 83.3742 41.829C84.3323 41.4444 85.3916 41.2521 86.5521 41.2521C88.2456 41.2521 89.5175 41.6165 90.3676 42.3452C91.2177 43.0671 91.7035 44.0353 91.825 45.2498ZM103.34 41.4545L102.945 43.8835H94.4538L94.8486 41.4545H103.34ZM97.733 37.7301H100.759L98.3098 52.4355C98.2154 53.0225 98.2323 53.4645 98.3605 53.7614C98.4886 54.0515 98.6843 54.2505 98.9475 54.3585C99.2173 54.4597 99.5176 54.5103 99.8482 54.5103C100.091 54.5103 100.304 54.4934 100.486 54.4597C100.668 54.426 100.813 54.399 100.921 54.3787L101.083 56.8786C100.881 56.946 100.607 57.0135 100.263 57.081C99.9258 57.1552 99.5142 57.1957 99.0284 57.2024C98.2323 57.2159 97.5137 57.0742 96.8727 56.7773C96.2317 56.4737 95.7527 56.0149 95.4356 55.4009C95.1184 54.7802 95.0408 54.0009 95.2028 53.063L97.733 37.7301ZM104.096 57L106.687 41.4545H109.612L109.197 43.924H109.359C109.777 43.0874 110.388 42.4295 111.191 41.9505C111.994 41.4647 112.851 41.2218 113.762 41.2218C113.957 41.2218 114.18 41.2285 114.43 41.242C114.679 41.2488 114.882 41.2656 115.037 41.2926L114.551 44.1871C114.436 44.1534 114.227 44.1163 113.924 44.0758C113.62 44.0286 113.306 44.005 112.982 44.005C112.274 44.005 111.616 44.1568 111.009 44.4604C110.402 44.7573 109.892 45.1722 109.481 45.7053C109.069 46.2315 108.803 46.832 108.681 47.5067L107.122 57H104.096ZM126.01 50.5531L127.528 41.4545H130.565L127.974 57H124.998L125.454 54.3079H125.292C124.806 55.1378 124.118 55.8294 123.227 56.3826C122.343 56.9292 121.318 57.2024 120.15 57.2024C119.152 57.2024 118.305 56.9831 117.61 56.5446C116.922 56.0993 116.433 55.4414 116.143 54.571C115.852 53.7006 115.812 52.6245 116.021 51.3425L117.681 41.4545H120.707L119.118 50.9782C118.949 52.0375 119.108 52.8809 119.594 53.5083C120.08 54.1358 120.788 54.4496 121.719 54.4496C122.286 54.4496 122.873 54.3079 123.48 54.0245C124.087 53.7411 124.624 53.3127 125.089 52.7392C125.562 52.1657 125.869 51.437 126.01 50.5531ZM132.04 57L134.631 41.4545H137.657L135.066 57H132.04ZM135.258 39.3494L138.396 34.6838H141.584L137.687 39.3494H135.258ZM139.137 57L141.728 41.4545H144.653L144.238 43.924H144.4C144.818 43.0874 145.429 42.4295 146.232 41.9505C147.034 41.4647 147.891 41.2218 148.802 41.2218C148.998 41.2218 149.221 41.2285 149.47 41.242C149.72 41.2488 149.922 41.2656 150.077 41.2926L149.592 44.1871C149.477 44.1534 149.268 44.1163 148.964 44.0758C148.661 44.0286 148.347 44.005 148.023 44.005C147.314 44.005 146.657 44.1568 146.049 44.4604C145.442 44.7573 144.933 45.1722 144.521 45.7053C144.11 46.2315 143.843 46.832 143.722 47.5067L142.163 57H139.137ZM156.233 57.3137C154.708 57.3137 153.447 56.9865 152.448 56.332C151.456 55.6708 150.761 54.7431 150.363 53.5488C149.965 52.3478 149.901 50.9411 150.171 49.3285C150.434 47.7362 150.964 46.3327 151.76 45.1183C152.556 43.9038 153.548 42.9558 154.735 42.2743C155.93 41.5929 157.249 41.2521 158.693 41.2521C159.57 41.2521 160.396 41.3972 161.172 41.6873C161.955 41.9775 162.62 42.4329 163.166 43.0536C163.713 43.6744 164.09 44.4806 164.3 45.4725C164.515 46.4576 164.509 47.6552 164.279 49.0653L164.107 50.1381H151.74L152.094 47.8711H161.486C161.628 47.0749 161.591 46.3699 161.375 45.7559C161.159 45.1351 160.788 44.646 160.261 44.2884C159.742 43.9308 159.087 43.752 158.298 43.752C157.488 43.752 156.733 43.9645 156.031 44.3896C155.329 44.8146 154.742 45.3578 154.27 46.019C153.804 46.6735 153.511 47.3482 153.389 48.0431L153.035 50.1179C152.86 51.2514 152.89 52.1623 153.126 52.8505C153.369 53.5387 153.794 54.038 154.402 54.3484C155.009 54.6587 155.768 54.8139 156.679 54.8139C157.266 54.8139 157.809 54.733 158.308 54.571C158.814 54.4023 159.263 54.1561 159.654 53.8322C160.046 53.5016 160.373 53.09 160.636 52.5975L163.409 53.1136C163.038 53.957 162.505 54.6958 161.81 55.3301C161.115 55.9576 160.295 56.4467 159.351 56.7976C158.413 57.1417 157.374 57.3137 156.233 57.3137ZM166.367 57L168.958 41.4545H171.862L171.437 43.9847H171.63C172.102 43.1278 172.743 42.4599 173.552 41.9808C174.369 41.495 175.293 41.2521 176.326 41.2521C177.351 41.2521 178.178 41.495 178.805 41.9808C179.439 42.4666 179.854 43.1346 180.05 43.9847H180.212C180.711 43.1481 181.41 42.4835 182.307 41.9909C183.204 41.4984 184.213 41.2521 185.333 41.2521C186.73 41.2521 187.802 41.6974 188.551 42.5881C189.307 43.4719 189.536 44.8011 189.24 46.5756L187.499 57H184.463L186.163 46.859C186.332 45.7997 186.17 45.0373 185.677 44.5717C185.185 44.0994 184.54 43.8633 183.744 43.8633C182.759 43.8633 181.943 44.1669 181.295 44.7741C180.647 45.3746 180.249 46.1472 180.101 47.0918L178.431 57H175.425L177.155 46.6667C177.29 45.8166 177.135 45.1385 176.69 44.6325C176.251 44.1197 175.61 43.8633 174.767 43.8633C174.193 43.8633 173.637 44.0151 173.097 44.3187C172.564 44.6223 172.109 45.0407 171.731 45.5737C171.353 46.1067 171.107 46.7207 170.992 47.4157L169.393 57H166.367ZM212.699 45.2498L209.876 45.7356C209.815 45.378 209.69 45.0407 209.501 44.7235C209.319 44.4064 209.039 44.15 208.661 43.9544C208.283 43.752 207.781 43.6507 207.153 43.6507C206.283 43.6507 205.521 43.8498 204.866 44.2479C204.218 44.646 203.847 45.152 203.753 45.766C203.665 46.2653 203.783 46.6701 204.107 46.9805C204.431 47.2841 205.001 47.5371 205.817 47.7395L208.206 48.3063C209.582 48.6369 210.567 49.1531 211.161 49.8548C211.762 50.5497 211.971 51.4538 211.789 52.5671C211.633 53.4915 211.229 54.3113 210.574 55.0265C209.926 55.7417 209.097 56.3017 208.084 56.7065C207.072 57.1113 205.946 57.3137 204.704 57.3137C202.936 57.3137 201.56 56.9393 200.575 56.1903C199.59 55.4414 199.084 54.3821 199.057 53.0124L202.052 52.5671C202.106 53.3295 202.38 53.9064 202.872 54.2978C203.372 54.6824 204.063 54.8746 204.947 54.8746C205.959 54.8814 206.806 54.6689 207.487 54.237C208.169 53.8052 208.557 53.2823 208.651 52.6683C208.732 52.1893 208.624 51.7912 208.327 51.4741C208.037 51.157 207.524 50.9141 206.789 50.7454L204.279 50.1685C202.876 49.8379 201.884 49.3049 201.304 48.5694C200.723 47.834 200.528 46.9096 200.717 45.7963C200.865 44.8855 201.25 44.0927 201.87 43.418C202.498 42.7365 203.291 42.2069 204.249 41.829C205.207 41.4444 206.266 41.2521 207.427 41.2521C209.12 41.2521 210.392 41.6165 211.242 42.3452C212.092 43.0671 212.578 44.0353 212.699 45.2498ZM225.287 50.5531L226.805 41.4545H229.841L227.251 57H224.275L224.731 54.3079H224.569C224.083 55.1378 223.395 55.8294 222.504 56.3826C221.62 56.9292 220.595 57.2024 219.427 57.2024C218.429 57.2024 217.582 56.9831 216.887 56.5446C216.199 56.0993 215.71 55.4414 215.419 54.571C215.129 53.7006 215.089 52.6245 215.298 51.3425L216.958 41.4545H219.984L218.395 50.9782C218.226 52.0375 218.385 52.8809 218.871 53.5083C219.356 54.1358 220.065 54.4496 220.996 54.4496C221.563 54.4496 222.15 54.3079 222.757 54.0245C223.364 53.7411 223.901 53.3127 224.366 52.7392C224.838 52.1657 225.145 51.437 225.287 50.5531ZM235.8 57.3441C234.815 57.3441 233.955 57.1619 233.219 56.7976C232.484 56.4265 231.941 55.8901 231.59 55.1884C231.239 54.4867 231.148 53.6264 231.317 52.6076C231.465 51.7305 231.755 51.0085 232.187 50.4418C232.626 49.875 233.159 49.4263 233.786 49.0957C234.414 48.7583 235.095 48.5053 235.83 48.3366C236.566 48.168 237.308 48.0431 238.057 47.9622C239.002 47.8542 239.767 47.7631 240.354 47.6889C240.948 47.6147 241.393 47.5 241.69 47.3448C241.987 47.1829 242.166 46.9197 242.227 46.5554V46.4846C242.368 45.6074 242.24 44.926 241.842 44.4402C241.451 43.9476 240.769 43.7013 239.798 43.7013C238.786 43.7013 237.936 43.924 237.247 44.3693C236.566 44.8146 236.063 45.3139 235.739 45.8672L233.027 45.2195C233.513 44.2749 234.13 43.5124 234.879 42.9322C235.635 42.3452 236.461 41.9201 237.359 41.657C238.256 41.3871 239.174 41.2521 240.112 41.2521C240.732 41.2521 241.377 41.3264 242.045 41.4748C242.713 41.6165 243.32 41.8796 243.866 42.2642C244.42 42.6488 244.831 43.1987 245.101 43.9139C245.371 44.6223 245.411 45.5433 245.222 46.6768L243.512 57H240.557L240.921 54.8746H240.8C240.543 55.266 240.186 55.6506 239.727 56.0284C239.275 56.4063 238.722 56.72 238.067 56.9696C237.413 57.2193 236.657 57.3441 235.8 57.3441ZM236.832 54.9151C237.676 54.9151 238.421 54.7498 239.069 54.4192C239.724 54.0886 240.253 53.6568 240.658 53.1238C241.063 52.584 241.316 52.0071 241.417 51.3931L241.751 49.3892C241.623 49.4972 241.397 49.595 241.073 49.6827C240.756 49.7704 240.398 49.848 240 49.9155C239.602 49.983 239.211 50.0403 238.826 50.0875C238.448 50.1348 238.135 50.1786 237.885 50.2191C237.291 50.2933 236.735 50.4181 236.215 50.5936C235.702 50.769 235.274 51.022 234.93 51.3526C234.586 51.6765 234.37 52.1083 234.282 52.6481C234.161 53.397 234.339 53.9638 234.818 54.3484C235.304 54.7262 235.976 54.9151 236.832 54.9151ZM268.698 45.2498L265.874 45.7356C265.813 45.378 265.688 45.0407 265.499 44.7235C265.317 44.4064 265.037 44.15 264.659 43.9544C264.282 43.752 263.779 43.6507 263.151 43.6507C262.281 43.6507 261.519 43.8498 260.864 44.2479C260.216 44.646 259.845 45.152 259.751 45.766C259.663 46.2653 259.781 46.6701 260.105 46.9805C260.429 47.2841 260.999 47.5371 261.815 47.7395L264.204 48.3063C265.58 48.6369 266.565 49.1531 267.159 49.8548C267.76 50.5497 267.969 51.4538 267.787 52.5671C267.631 53.4915 267.227 54.3113 266.572 55.0265C265.924 55.7417 265.095 56.3017 264.082 56.7065C263.07 57.1113 261.944 57.3137 260.702 57.3137C258.934 57.3137 257.558 56.9393 256.573 56.1903C255.588 55.4414 255.082 54.3821 255.055 53.0124L258.051 52.5671C258.104 53.3295 258.378 53.9064 258.87 54.2978C259.37 54.6824 260.061 54.8746 260.945 54.8746C261.957 54.8814 262.804 54.6689 263.485 54.237C264.167 53.8052 264.555 53.2823 264.649 52.6683C264.73 52.1893 264.622 51.7912 264.325 51.4741C264.035 51.157 263.522 50.9141 262.787 50.7454L260.277 50.1685C258.874 49.8379 257.882 49.3049 257.302 48.5694C256.721 47.834 256.526 46.9096 256.715 45.7963C256.863 44.8855 257.248 44.0927 257.868 43.418C258.496 42.7365 259.289 42.2069 260.247 41.829C261.205 41.4444 262.264 41.2521 263.425 41.2521C265.118 41.2521 266.39 41.6165 267.24 42.3452C268.09 43.0671 268.576 44.0353 268.698 45.2498ZM274.848 57.3441C273.863 57.3441 273.003 57.1619 272.268 56.7976C271.532 56.4265 270.989 55.8901 270.638 55.1884C270.287 54.4867 270.196 53.6264 270.365 52.6076C270.513 51.7305 270.803 51.0085 271.235 50.4418C271.674 49.875 272.207 49.4263 272.834 49.0957C273.462 48.7583 274.143 48.5053 274.879 48.3366C275.614 48.168 276.356 48.0431 277.105 47.9622C278.05 47.8542 278.816 47.7631 279.403 47.6889C279.996 47.6147 280.442 47.5 280.739 47.3448C281.036 47.1829 281.214 46.9197 281.275 46.5554V46.4846C281.417 45.6074 281.289 44.926 280.89 44.4402C280.499 43.9476 279.818 43.7013 278.846 43.7013C277.834 43.7013 276.984 43.924 276.296 44.3693C275.614 44.8146 275.112 45.3139 274.788 45.8672L272.075 45.2195C272.561 44.2749 273.178 43.5124 273.927 42.9322C274.683 42.3452 275.51 41.9201 276.407 41.657C277.304 41.3871 278.222 41.2521 279.16 41.2521C279.781 41.2521 280.425 41.3264 281.093 41.4748C281.761 41.6165 282.368 41.8796 282.915 42.2642C283.468 42.6488 283.879 43.1987 284.149 43.9139C284.419 44.6223 284.46 45.5433 284.271 46.6768L282.56 57H279.605L279.969 54.8746H279.848C279.592 55.266 279.234 55.6506 278.775 56.0284C278.323 56.4063 277.77 56.72 277.115 56.9696C276.461 57.2193 275.705 57.3441 274.848 57.3441ZM275.881 54.9151C276.724 54.9151 277.47 54.7498 278.117 54.4192C278.772 54.0886 279.302 53.6568 279.706 53.1238C280.111 52.584 280.364 52.0071 280.465 51.3931L280.799 49.3892C280.671 49.4972 280.445 49.595 280.121 49.6827C279.804 49.7704 279.447 49.848 279.049 49.9155C278.65 49.983 278.259 50.0403 277.875 50.0875C277.497 50.1348 277.183 50.1786 276.933 50.2191C276.34 50.2933 275.783 50.4181 275.263 50.5936C274.751 50.769 274.322 51.022 273.978 51.3526C273.634 51.6765 273.418 52.1083 273.33 52.6481C273.209 53.397 273.388 53.9638 273.867 54.3484C274.352 54.7262 275.024 54.9151 275.881 54.9151ZM297.511 50.5531L299.029 41.4545H302.066L299.475 57H296.499L296.955 54.3079H296.793C296.307 55.1378 295.619 55.8294 294.728 56.3826C293.844 56.9292 292.819 57.2024 291.651 57.2024C290.653 57.2024 289.806 56.9831 289.111 56.5446C288.423 56.0993 287.934 55.4414 287.644 54.571C287.353 53.7006 287.313 52.6245 287.522 51.3425L289.182 41.4545H292.208L290.619 50.9782C290.45 52.0375 290.609 52.8809 291.095 53.5083C291.581 54.1358 292.289 54.4496 293.22 54.4496C293.787 54.4496 294.374 54.3079 294.981 54.0245C295.588 53.7411 296.125 53.3127 296.59 52.7392C297.063 52.1657 297.37 51.437 297.511 50.5531ZM294.708 39.3798L297.845 34.7141H301.033L297.137 39.3798H294.708ZM309.34 57.3036C308.078 57.3036 307.009 56.9831 306.132 56.3422C305.261 55.6944 304.644 54.7734 304.28 53.5792C303.922 52.3782 303.881 50.9377 304.158 49.2576C304.441 47.5776 304.964 46.1404 305.727 44.9462C306.489 43.752 307.414 42.8377 308.5 42.2035C309.586 41.5692 310.757 41.2521 312.012 41.2521C312.977 41.2521 313.726 41.4141 314.259 41.7379C314.798 42.055 315.196 42.4261 315.453 42.8512C315.709 43.2763 315.901 43.6507 316.03 43.9746H316.202L317.487 36.2727H320.513L317.072 57H314.117L314.532 54.5811H314.279C314.043 54.9118 313.715 55.2896 313.297 55.7147C312.886 56.1397 312.359 56.5108 311.718 56.8279C311.077 57.1451 310.284 57.3036 309.34 57.3036ZM310.362 54.7228C311.232 54.7228 312.012 54.4934 312.7 54.0346C313.395 53.5691 313.972 52.9247 314.431 52.1016C314.896 51.2784 315.22 50.3203 315.402 49.2273C315.584 48.1477 315.581 47.2031 315.392 46.3935C315.203 45.5838 314.839 44.9529 314.299 44.5009C313.759 44.0488 313.047 43.8228 312.164 43.8228C311.253 43.8228 310.46 44.0589 309.785 44.5313C309.11 45.0036 308.557 45.6479 308.125 46.4643C307.7 47.2807 307.403 48.2017 307.235 49.2273C307.059 50.2663 307.053 51.2008 307.215 52.0307C307.376 52.8606 307.717 53.5185 308.237 54.0043C308.756 54.4833 309.465 54.7228 310.362 54.7228ZM328.04 57.3137C326.516 57.3137 325.254 56.9865 324.255 56.332C323.263 55.6708 322.569 54.7431 322.17 53.5488C321.772 52.3478 321.708 50.9411 321.978 49.3285C322.241 47.7362 322.771 46.3327 323.567 45.1183C324.363 43.9038 325.355 42.9558 326.543 42.2743C327.737 41.5929 329.056 41.2521 330.5 41.2521C331.377 41.2521 332.203 41.3972 332.979 41.6873C333.762 41.9775 334.427 42.4329 334.973 43.0536C335.52 43.6744 335.898 44.4806 336.107 45.4725C336.323 46.4576 336.316 47.6552 336.086 49.0653L335.914 50.1381H323.547L323.901 47.8711H333.293C333.435 47.0749 333.398 46.3699 333.182 45.7559C332.966 45.1351 332.595 44.646 332.069 44.2884C331.549 43.9308 330.895 43.752 330.105 43.752C329.295 43.752 328.54 43.9645 327.838 44.3896C327.136 44.8146 326.549 45.3578 326.077 46.019C325.611 46.6735 325.318 47.3482 325.197 48.0431L324.842 50.1179C324.667 51.2514 324.697 52.1623 324.933 52.8505C325.176 53.5387 325.601 54.038 326.209 54.3484C326.816 54.6587 327.575 54.8139 328.486 54.8139C329.073 54.8139 329.616 54.733 330.115 54.571C330.621 54.4023 331.07 54.1561 331.461 53.8322C331.853 53.5016 332.18 53.09 332.443 52.5975L335.216 53.1136C334.845 53.957 334.312 54.6958 333.617 55.3301C332.922 55.9576 332.102 56.4467 331.158 56.7976C330.22 57.1417 329.181 57.3137 328.04 57.3137ZM22.4714 95.3239C21.0207 95.3239 19.8231 94.9865 18.8785 94.3118C17.9339 93.6303 17.2727 92.6891 16.8948 91.4881C16.517 90.2804 16.4596 88.8904 16.7228 87.3184C16.9859 85.753 17.5055 84.3631 18.2814 83.1486C19.0573 81.9274 20.0154 80.9727 21.1557 80.2844C22.2959 79.5895 23.534 79.242 24.87 79.242C25.7134 79.242 26.5028 79.3972 27.2382 79.7076C27.9737 80.0112 28.5978 80.4801 29.1106 81.1143C29.6301 81.7418 29.9911 82.5346 30.1935 83.4927C30.3959 84.4441 30.3892 85.5708 30.1732 86.873L30.0316 87.7637H17.8867L18.1397 86.1747H28.4527C28.6214 85.1761 28.5742 84.2788 28.311 83.4826C28.0479 82.6864 27.5992 82.0556 26.965 81.59C26.3375 81.1177 25.5582 80.8816 24.6271 80.8816C23.6757 80.8816 22.775 81.1481 21.9248 81.6811C21.0815 82.2141 20.3663 82.9091 19.7792 83.766C19.199 84.6161 18.8245 85.5236 18.6558 86.4885L18.4534 87.6827C18.2375 88.9984 18.2645 90.1016 18.5344 90.9922C18.8043 91.8761 19.2935 92.544 20.0019 92.9961C20.7104 93.4482 21.6179 93.6742 22.7244 93.6742C23.4666 93.6742 24.1379 93.5595 24.7384 93.3301C25.3389 93.1007 25.8618 92.7937 26.3071 92.4091C26.7524 92.0178 27.11 91.5893 27.3799 91.1238L28.9891 91.6804C28.645 92.3349 28.1592 92.9387 27.5317 93.492C26.911 94.0453 26.1722 94.4906 25.3153 94.8279C24.4652 95.1586 23.5172 95.3239 22.4714 95.3239ZM46.9382 79.4545L38.6696 95H36.7467L33.6598 79.4545H35.5322L37.9612 92.6216H38.0927L44.904 79.4545H46.9382ZM47.8921 95L50.483 79.4545H52.2946L49.7037 95H47.8921ZM52.0416 76.7523C51.6638 76.7523 51.3433 76.6241 51.0802 76.3677C50.8238 76.1113 50.6989 75.801 50.7057 75.4366C50.7192 75.0925 50.8575 74.7956 51.1206 74.546C51.3905 74.2896 51.7076 74.1614 52.072 74.1614C52.4498 74.1614 52.7703 74.293 53.0335 74.5561C53.2966 74.8125 53.4214 75.1229 53.4079 75.4872C53.4012 75.8313 53.2629 76.1282 52.993 76.3778C52.7231 76.6275 52.406 76.7523 52.0416 76.7523ZM60.0345 95.3239C58.7593 95.3239 57.6966 94.9865 56.8465 94.3118C55.9963 93.6371 55.4026 92.6958 55.0652 91.4881C54.7278 90.2804 54.6907 88.8736 54.9539 87.2678C55.2238 85.6687 55.7264 84.2686 56.4619 83.0676C57.2041 81.8599 58.1115 80.9221 59.1843 80.2541C60.2639 79.5794 61.4413 79.242 62.7165 79.242C63.6678 79.242 64.4269 79.4107 64.9936 79.748C65.5672 80.0787 66.0023 80.4902 66.2992 80.9828C66.5961 81.4753 66.8086 81.9544 66.9368 82.4199H67.0988L68.4549 74.2727H70.2665L66.8255 95H65.0746L65.5604 92.1156H65.3378C65.0476 92.5879 64.6664 93.0737 64.1941 93.573C63.7286 94.0655 63.155 94.4805 62.4736 94.8178C61.7921 95.1552 60.9791 95.3239 60.0345 95.3239ZM60.4292 93.6742C61.4345 93.6742 62.342 93.4009 63.1517 92.8544C63.9681 92.3011 64.6495 91.5421 65.1961 90.5772C65.7493 89.6056 66.1272 88.4924 66.3296 87.2374C66.5387 85.9959 66.5354 84.8995 66.3195 83.9482C66.1036 82.9901 65.6852 82.2411 65.0645 81.7013C64.4438 81.1548 63.624 80.8816 62.6052 80.8816C61.5728 80.8816 60.6552 81.165 59.8523 81.7317C59.0494 82.2917 58.3848 83.0508 57.8585 84.0089C57.339 84.967 56.978 86.0431 56.7756 87.2374C56.5799 88.4451 56.5799 89.5348 56.7756 90.5064C56.9713 91.478 57.3694 92.2505 57.9699 92.824C58.5771 93.3908 59.3969 93.6742 60.4292 93.6742ZM78.1911 95.3239C76.7405 95.3239 75.5428 94.9865 74.5982 94.3118C73.6536 93.6303 72.9924 92.6891 72.6146 91.4881C72.2367 90.2804 72.1794 88.8904 72.4425 87.3184C72.7057 85.753 73.2252 84.3631 74.0011 83.1486C74.777 81.9274 75.7351 80.9727 76.8754 80.2844C78.0157 79.5895 79.2538 79.242 80.5897 79.242C81.4331 79.242 82.2225 79.3972 82.958 79.7076C83.6934 80.0112 84.3175 80.4801 84.8303 81.1143C85.3498 81.7418 85.7108 82.5346 85.9132 83.4927C86.1156 84.4441 86.1089 85.5708 85.893 86.873L85.7513 87.7637H73.6064L73.8594 86.1747H84.1724C84.3411 85.1761 84.2939 84.2788 84.0308 83.4826C83.7676 82.6864 83.3189 82.0556 82.6847 81.59C82.0572 81.1177 81.2779 80.8816 80.3468 80.8816C79.3955 80.8816 78.4947 81.1481 77.6446 81.6811C76.8012 82.2141 76.086 82.9091 75.499 83.766C74.9187 84.6161 74.5443 85.5236 74.3756 86.4885L74.1732 87.6827C73.9573 88.9984 73.9842 90.1016 74.2541 90.9922C74.524 91.8761 75.0132 92.544 75.7216 92.9961C76.4301 93.4482 77.3376 93.6742 78.4441 93.6742C79.1863 93.6742 79.8576 93.5595 80.4581 93.3301C81.0586 93.1007 81.5815 92.7937 82.0269 92.4091C82.4722 92.0178 82.8298 91.5893 83.0997 91.1238L84.7088 91.6804C84.3647 92.3349 83.8789 92.9387 83.2515 93.492C82.6307 94.0453 81.8919 94.4906 81.035 94.8279C80.1849 95.1586 79.2369 95.3239 78.1911 95.3239ZM91.9173 85.2841L90.3081 95H88.5066L91.0976 79.4545H92.8484L92.4436 81.8936H92.6055C93.0913 81.0975 93.7627 80.4599 94.6196 79.9808C95.4832 79.495 96.4852 79.2521 97.6254 79.2521C98.6645 79.2521 99.5416 79.4714 100.257 79.91C100.979 80.3418 101.492 80.9794 101.795 81.8228C102.106 82.6662 102.16 83.7019 101.957 84.9299L100.267 95H98.4655L100.125 85.0412C100.334 83.7727 100.149 82.7674 99.5686 82.0252C98.9951 81.2763 98.1079 80.9018 96.9069 80.9018C96.0905 80.9018 95.3314 81.0772 94.6297 81.4281C93.9347 81.7789 93.3477 82.285 92.8687 82.9462C92.3896 83.6007 92.0725 84.38 91.9173 85.2841ZM111.043 95.3239C109.64 95.3239 108.482 94.9764 107.572 94.2814C106.661 93.5865 106.023 92.6351 105.659 91.4274C105.301 90.2129 105.251 88.8365 105.507 87.2981C105.763 85.7328 106.28 84.3462 107.055 83.1385C107.831 81.924 108.789 80.9727 109.93 80.2844C111.077 79.5895 112.328 79.242 113.685 79.242C114.73 79.242 115.641 79.4444 116.417 79.8493C117.193 80.2473 117.794 80.8107 118.219 81.5394C118.644 82.2614 118.846 83.1048 118.826 84.0696H117.004C116.957 83.1722 116.63 82.4165 116.022 81.8026C115.422 81.1886 114.572 80.8816 113.472 80.8816C112.467 80.8816 111.536 81.1515 110.679 81.6912C109.822 82.2243 109.096 82.9698 108.503 83.9279C107.916 84.8793 107.521 85.9824 107.319 87.2374C107.103 88.4991 107.123 89.6158 107.379 90.5874C107.636 91.5522 108.094 92.3079 108.756 92.8544C109.424 93.4009 110.267 93.6742 111.286 93.6742C111.981 93.6742 112.635 93.546 113.249 93.2896C113.863 93.0265 114.406 92.6554 114.879 92.1763C115.351 91.6905 115.712 91.1204 115.962 90.4659H117.783C117.48 91.4105 117.001 92.2472 116.346 92.9759C115.699 93.7045 114.923 94.2781 114.018 94.6964C113.114 95.1147 112.123 95.3239 111.043 95.3239ZM120.896 95L123.486 79.4545H125.298L122.707 95H120.896ZM125.045 76.7523C124.667 76.7523 124.347 76.6241 124.084 76.3677C123.827 76.1113 123.702 75.801 123.709 75.4366C123.723 75.0925 123.861 74.7956 124.124 74.546C124.394 74.2896 124.711 74.1614 125.075 74.1614C125.453 74.1614 125.774 74.293 126.037 74.5561C126.3 74.8125 126.425 75.1229 126.411 75.4872C126.405 75.8313 126.266 76.1282 125.996 76.3778C125.727 76.6275 125.409 76.7523 125.045 76.7523ZM131.773 95.3542C130.835 95.3542 130.008 95.1721 129.293 94.8077C128.578 94.4366 128.045 93.9036 127.694 93.2086C127.35 92.5069 127.256 91.6568 127.411 90.6582C127.546 89.889 127.802 89.2413 128.18 88.715C128.565 88.1887 129.05 87.7569 129.637 87.4196C130.224 87.0755 130.899 86.8056 131.661 86.6099C132.424 86.4142 133.254 86.2658 134.151 86.1646C135.028 86.0566 135.777 85.9622 136.398 85.8812C137.019 85.8002 137.501 85.6721 137.845 85.4966C138.189 85.3212 138.395 85.0378 138.463 84.6465L138.523 84.2821C138.699 83.2228 138.537 82.3896 138.038 81.7823C137.538 81.1683 136.702 80.8613 135.528 80.8613C134.408 80.8613 133.436 81.111 132.613 81.6103C131.796 82.1028 131.189 82.6797 130.791 83.3409L129.192 82.7235C129.678 81.8734 130.275 81.1953 130.983 80.6893C131.692 80.1765 132.451 79.8088 133.261 79.5861C134.07 79.3567 134.87 79.242 135.659 79.242C136.253 79.242 136.857 79.3196 137.471 79.4748C138.085 79.63 138.635 79.8999 139.12 80.2844C139.613 80.6623 139.974 81.1919 140.203 81.8734C140.44 82.5481 140.473 83.405 140.305 84.4441L138.544 95H136.742L137.157 92.5407H137.046C136.762 92.9995 136.371 93.4448 135.872 93.8766C135.379 94.3084 134.789 94.6626 134.101 94.9393C133.412 95.2159 132.636 95.3542 131.773 95.3542ZM132.228 93.7045C133.186 93.7045 134.053 93.492 134.829 93.0669C135.612 92.6419 136.253 92.0785 136.752 91.3768C137.258 90.6683 137.582 89.889 137.724 89.0389L138.098 86.7921C137.95 86.9203 137.707 87.035 137.37 87.1362C137.039 87.2374 136.664 87.3285 136.246 87.4094C135.835 87.4837 135.42 87.5478 135.001 87.6017C134.59 87.6557 134.225 87.7029 133.908 87.7434C133.011 87.8514 132.228 88.0201 131.56 88.2495C130.899 88.4789 130.369 88.796 129.971 89.2008C129.573 89.5989 129.324 90.1117 129.222 90.7392C129.067 91.6838 129.273 92.4158 129.84 92.9354C130.413 93.4482 131.209 93.7045 132.228 93.7045ZM148.902 95.3239C147.627 95.3239 146.564 94.9865 145.714 94.3118C144.864 93.6371 144.27 92.6958 143.933 91.4881C143.596 90.2804 143.558 88.8736 143.822 87.2678C144.091 85.6687 144.594 84.2686 145.33 83.0676C146.072 81.8599 146.979 80.9221 148.052 80.2541C149.132 79.5794 150.309 79.242 151.584 79.242C152.535 79.242 153.295 79.4107 153.861 79.748C154.435 80.0787 154.87 80.4902 155.167 80.9828C155.464 81.4753 155.676 81.9544 155.804 82.4199H155.966L157.323 74.2727H159.134L155.693 95H153.942L154.428 92.1156H154.205C153.915 92.5879 153.534 93.0737 153.062 93.573C152.596 94.0655 152.023 94.4805 151.341 94.8178C150.66 95.1552 149.847 95.3239 148.902 95.3239ZM149.297 93.6742C150.302 93.6742 151.21 93.4009 152.019 92.8544C152.836 92.3011 153.517 91.5421 154.064 90.5772C154.617 89.6056 154.995 88.4924 155.197 87.2374C155.406 85.9959 155.403 84.8995 155.187 83.9482C154.971 82.9901 154.553 82.2411 153.932 81.7013C153.311 81.1548 152.492 80.8816 151.473 80.8816C150.441 80.8816 149.523 81.165 148.72 81.7317C147.917 82.2917 147.252 83.0508 146.726 84.0089C146.207 84.967 145.846 86.0431 145.643 87.2374C145.448 88.4451 145.448 89.5348 145.643 90.5064C145.839 91.478 146.237 92.2505 146.838 92.824C147.445 93.3908 148.265 93.6742 149.297 93.6742ZM165.116 95.3542C164.178 95.3542 163.351 95.1721 162.636 94.8077C161.921 94.4366 161.388 93.9036 161.037 93.2086C160.693 92.5069 160.598 91.6568 160.754 90.6582C160.888 89.889 161.145 89.2413 161.523 88.715C161.907 88.1887 162.393 87.7569 162.98 87.4196C163.567 87.0755 164.242 86.8056 165.004 86.6099C165.767 86.4142 166.597 86.2658 167.494 86.1646C168.371 86.0566 169.12 85.9622 169.741 85.8812C170.361 85.8002 170.844 85.6721 171.188 85.4966C171.532 85.3212 171.738 85.0378 171.805 84.6465L171.866 84.2821C172.042 83.2228 171.88 82.3896 171.38 81.7823C170.881 81.1683 170.044 80.8613 168.87 80.8613C167.75 80.8613 166.779 81.111 165.956 81.6103C165.139 82.1028 164.532 82.6797 164.134 83.3409L162.535 82.7235C163.021 81.8734 163.618 81.1953 164.326 80.6893C165.035 80.1765 165.794 79.8088 166.603 79.5861C167.413 79.3567 168.213 79.242 169.002 79.242C169.596 79.242 170.2 79.3196 170.814 79.4748C171.428 79.63 171.977 79.8999 172.463 80.2844C172.956 80.6623 173.317 81.1919 173.546 81.8734C173.782 82.5481 173.816 83.405 173.647 84.4441L171.886 95H170.085L170.5 92.5407H170.388C170.105 92.9995 169.714 93.4448 169.214 93.8766C168.722 94.3084 168.132 94.6626 167.443 94.9393C166.755 95.2159 165.979 95.3542 165.116 95.3542ZM165.571 93.7045C166.529 93.7045 167.396 93.492 168.172 93.0669C168.955 92.6419 169.596 92.0785 170.095 91.3768C170.601 90.6683 170.925 89.889 171.067 89.0389L171.441 86.7921C171.293 86.9203 171.05 87.035 170.712 87.1362C170.382 87.2374 170.007 87.3285 169.589 87.4094C169.177 87.4837 168.762 87.5478 168.344 87.6017C167.933 87.6557 167.568 87.7029 167.251 87.7434C166.354 87.8514 165.571 88.0201 164.903 88.2495C164.242 88.4789 163.712 88.796 163.314 89.2008C162.916 89.5989 162.666 90.1117 162.565 90.7392C162.41 91.6838 162.616 92.4158 163.183 92.9354C163.756 93.4482 164.552 93.7045 165.571 93.7045ZM188.105 85.2841L186.496 95H184.694L187.285 79.4545H189.036L188.631 81.8936H188.793C189.279 81.0975 189.95 80.4599 190.807 79.9808C191.671 79.495 192.673 79.2521 193.813 79.2521C194.852 79.2521 195.729 79.4714 196.444 79.91C197.166 80.3418 197.679 80.9794 197.983 81.8228C198.293 82.6662 198.347 83.7019 198.145 84.9299L196.454 95H194.653L196.313 85.0412C196.522 83.7727 196.336 82.7674 195.756 82.0252C195.183 81.2763 194.295 80.9018 193.094 80.9018C192.278 80.9018 191.519 81.0772 190.817 81.4281C190.122 81.7789 189.535 82.285 189.056 82.9462C188.577 83.6007 188.26 84.38 188.105 85.2841ZM205.5 95.3542C204.562 95.3542 203.735 95.1721 203.02 94.8077C202.305 94.4366 201.772 93.9036 201.421 93.2086C201.077 92.5069 200.983 91.6568 201.138 90.6582C201.273 89.889 201.529 89.2413 201.907 88.715C202.292 88.1887 202.777 87.7569 203.364 87.4196C203.951 87.0755 204.626 86.8056 205.389 86.6099C206.151 86.4142 206.981 86.2658 207.878 86.1646C208.755 86.0566 209.504 85.9622 210.125 85.8812C210.746 85.8002 211.228 85.6721 211.572 85.4966C211.916 85.3212 212.122 85.0378 212.19 84.6465L212.25 84.2821C212.426 83.2228 212.264 82.3896 211.765 81.7823C211.265 81.1683 210.429 80.8613 209.255 80.8613C208.135 80.8613 207.163 81.111 206.34 81.6103C205.523 82.1028 204.916 82.6797 204.518 83.3409L202.919 82.7235C203.405 81.8734 204.002 81.1953 204.71 80.6893C205.419 80.1765 206.178 79.8088 206.988 79.5861C207.797 79.3567 208.597 79.242 209.386 79.242C209.98 79.242 210.584 79.3196 211.198 79.4748C211.812 79.63 212.362 79.8999 212.848 80.2844C213.34 80.6623 213.701 81.1919 213.93 81.8734C214.167 82.5481 214.2 83.405 214.032 84.4441L212.271 95H210.469L210.884 92.5407H210.773C210.489 92.9995 210.098 93.4448 209.599 93.8766C209.106 94.3084 208.516 94.6626 207.828 94.9393C207.139 95.2159 206.363 95.3542 205.5 95.3542ZM205.955 93.7045C206.913 93.7045 207.78 93.492 208.556 93.0669C209.339 92.6419 209.98 92.0785 210.479 91.3768C210.985 90.6683 211.309 89.889 211.451 89.0389L211.825 86.7921C211.677 86.9203 211.434 87.035 211.097 87.1362C210.766 87.2374 210.392 87.3285 209.973 87.4094C209.562 87.4837 209.147 87.5478 208.728 87.6017C208.317 87.6557 207.952 87.7029 207.635 87.7434C206.738 87.8514 205.955 88.0201 205.287 88.2495C204.626 88.4789 204.096 88.796 203.698 89.2008C203.3 89.5989 203.051 90.1117 202.949 90.7392C202.794 91.6838 203 92.4158 203.567 92.9354C204.14 93.4482 204.936 93.7045 205.955 93.7045ZM231.11 95.3239C229.707 95.3239 228.55 94.9764 227.639 94.2814C226.728 93.5865 226.09 92.6351 225.726 91.4274C225.369 90.2129 225.318 88.8365 225.574 87.2981C225.831 85.7328 226.347 84.3462 227.123 83.1385C227.899 81.924 228.857 80.9727 229.997 80.2844C231.144 79.5895 232.396 79.242 233.752 79.242C234.798 79.242 235.709 79.4444 236.484 79.8493C237.26 80.2473 237.861 80.8107 238.286 81.5394C238.711 82.2614 238.913 83.1048 238.893 84.0696H237.071C237.024 83.1722 236.697 82.4165 236.09 81.8026C235.489 81.1886 234.639 80.8816 233.539 80.8816C232.534 80.8816 231.603 81.1515 230.746 81.6912C229.889 82.2243 229.164 82.9698 228.57 83.9279C227.983 84.8793 227.588 85.9824 227.386 87.2374C227.17 88.4991 227.19 89.6158 227.447 90.5874C227.703 91.5522 228.162 92.3079 228.823 92.8544C229.491 93.4009 230.334 93.6742 231.353 93.6742C232.048 93.6742 232.703 93.546 233.317 93.2896C233.931 93.0265 234.474 92.6554 234.946 92.1763C235.418 91.6905 235.779 91.1204 236.029 90.4659H237.851C237.547 91.4105 237.068 92.2472 236.414 92.9759C235.766 93.7045 234.99 94.2781 234.086 94.6964C233.182 95.1147 232.19 95.3239 231.11 95.3239ZM240.963 95L243.554 79.4545H245.365L242.775 95H240.963ZM245.112 76.7523C244.735 76.7523 244.414 76.6241 244.151 76.3677C243.895 76.1113 243.77 75.801 243.776 75.4366C243.79 75.0925 243.928 74.7956 244.191 74.546C244.461 74.2896 244.778 74.1614 245.143 74.1614C245.521 74.1614 245.841 74.293 246.104 74.5561C246.367 74.8125 246.492 75.1229 246.479 75.4872C246.472 75.8313 246.334 76.1282 246.064 76.3778C245.794 76.6275 245.477 76.7523 245.112 76.7523ZM253.783 95.3239C252.333 95.3239 251.135 94.9865 250.191 94.3118C249.246 93.6303 248.585 92.6891 248.207 91.4881C247.829 90.2804 247.772 88.8904 248.035 87.3184C248.298 85.753 248.817 84.3631 249.593 83.1486C250.369 81.9274 251.327 80.9727 252.468 80.2844C253.608 79.5895 254.846 79.242 256.182 79.242C257.025 79.242 257.815 79.3972 258.55 79.7076C259.286 80.0112 259.91 80.4801 260.423 81.1143C260.942 81.7418 261.303 82.5346 261.505 83.4927C261.708 84.4441 261.701 85.5708 261.485 86.873L261.344 87.7637H249.199L249.452 86.1747H259.765C259.933 85.1761 259.886 84.2788 259.623 83.4826C259.36 82.6864 258.911 82.0556 258.277 81.59C257.649 81.1177 256.87 80.8816 255.939 80.8816C254.988 80.8816 254.087 81.1481 253.237 81.6811C252.393 82.2141 251.678 82.9091 251.091 83.766C250.511 84.6161 250.137 85.5236 249.968 86.4885L249.765 87.6827C249.55 88.9984 249.577 90.1016 249.846 90.9922C250.116 91.8761 250.605 92.544 251.314 92.9961C252.022 93.4482 252.93 93.6742 254.036 93.6742C254.779 93.6742 255.45 93.5595 256.05 93.3301C256.651 93.1007 257.174 92.7937 257.619 92.4091C258.064 92.0178 258.422 91.5893 258.692 91.1238L260.301 91.6804C259.957 92.3349 259.471 92.9387 258.844 93.492C258.223 94.0453 257.484 94.4906 256.627 94.8279C255.777 95.1586 254.829 95.3239 253.783 95.3239ZM258.712 77.6733L256.789 74.7686L253.925 77.6733H252.103L252.124 77.5417L256.212 73.4631H257.73L260.493 77.5417L260.463 77.6733H258.712ZM267.51 85.2841L265.9 95H264.099L266.69 79.4545H268.441L268.036 81.8936H268.198C268.684 81.0975 269.355 80.4599 270.212 79.9808C271.075 79.495 272.077 79.2521 273.218 79.2521C274.257 79.2521 275.134 79.4714 275.849 79.91C276.571 80.3418 277.084 80.9794 277.387 81.8228C277.698 82.6662 277.752 83.7019 277.549 84.9299L275.859 95H274.058L275.718 85.0412C275.927 83.7727 275.741 82.7674 275.161 82.0252C274.587 81.2763 273.7 80.9018 272.499 80.9018C271.683 80.9018 270.924 81.0772 270.222 81.4281C269.527 81.7789 268.94 82.285 268.461 82.9462C267.982 83.6007 267.665 84.38 267.51 85.2841ZM286.635 95.3239C285.232 95.3239 284.075 94.9764 283.164 94.2814C282.253 93.5865 281.615 92.6351 281.251 91.4274C280.893 90.2129 280.843 88.8365 281.099 87.2981C281.356 85.7328 281.872 84.3462 282.648 83.1385C283.424 81.924 284.382 80.9727 285.522 80.2844C286.669 79.5895 287.921 79.242 289.277 79.242C290.323 79.242 291.233 79.4444 292.009 79.8493C292.785 80.2473 293.386 80.8107 293.811 81.5394C294.236 82.2614 294.438 83.1048 294.418 84.0696H292.596C292.549 83.1722 292.222 82.4165 291.615 81.8026C291.014 81.1886 290.164 80.8816 289.064 80.8816C288.059 80.8816 287.128 81.1515 286.271 81.6912C285.414 82.2243 284.689 82.9698 284.095 83.9279C283.508 84.8793 283.113 85.9824 282.911 87.2374C282.695 88.4991 282.715 89.6158 282.972 90.5874C283.228 91.5522 283.687 92.3079 284.348 92.8544C285.016 93.4009 285.859 93.6742 286.878 93.6742C287.573 93.6742 288.228 93.546 288.842 93.2896C289.456 93.0265 289.999 92.6554 290.471 92.1763C290.943 91.6905 291.304 91.1204 291.554 90.4659H293.376C293.072 91.4105 292.593 92.2472 291.939 92.9759C291.291 93.7045 290.515 94.2781 289.611 94.6964C288.707 95.1147 287.715 95.3239 286.635 95.3239ZM296.488 95L299.079 79.4545H300.89L298.299 95H296.488ZM300.637 76.7523C300.259 76.7523 299.939 76.6241 299.676 76.3677C299.419 76.1113 299.295 75.801 299.301 75.4366C299.315 75.0925 299.453 74.7956 299.716 74.546C299.986 74.2896 300.303 74.1614 300.668 74.1614C301.046 74.1614 301.366 74.293 301.629 74.5561C301.892 74.8125 302.017 75.1229 302.004 75.4872C301.997 75.8313 301.859 76.1282 301.589 76.3778C301.319 76.6275 301.002 76.7523 300.637 76.7523ZM307.365 95.3542C306.427 95.3542 305.601 95.1721 304.885 94.8077C304.17 94.4366 303.637 93.9036 303.286 93.2086C302.942 92.5069 302.848 91.6568 303.003 90.6582C303.138 89.889 303.394 89.2413 303.772 88.715C304.157 88.1887 304.643 87.7569 305.23 87.4196C305.817 87.0755 306.491 86.8056 307.254 86.6099C308.016 86.4142 308.846 86.2658 309.743 86.1646C310.621 86.0566 311.37 85.9622 311.99 85.8812C312.611 85.8002 313.093 85.6721 313.438 85.4966C313.782 85.3212 313.987 85.0378 314.055 84.6465L314.116 84.2821C314.291 83.2228 314.129 82.3896 313.63 81.7823C313.131 81.1683 312.294 80.8613 311.12 80.8613C310 80.8613 309.028 81.111 308.205 81.6103C307.389 82.1028 306.781 82.6797 306.383 83.3409L304.784 82.7235C305.27 81.8734 305.867 81.1953 306.576 80.6893C307.284 80.1765 308.043 79.8088 308.853 79.5861C309.662 79.3567 310.462 79.242 311.251 79.242C311.845 79.242 312.449 79.3196 313.063 79.4748C313.677 79.63 314.227 79.8999 314.713 80.2844C315.205 80.6623 315.566 81.1919 315.796 81.8734C316.032 82.5481 316.066 83.405 315.897 84.4441L314.136 95H312.334L312.749 92.5407H312.638C312.355 92.9995 311.963 93.4448 311.464 93.8766C310.971 94.3084 310.381 94.6626 309.693 94.9393C309.005 95.2159 308.229 95.3542 307.365 95.3542ZM307.821 93.7045C308.779 93.7045 309.646 93.492 310.422 93.0669C311.204 92.6419 311.845 92.0785 312.344 91.3768C312.851 90.6683 313.174 89.889 313.316 89.0389L313.691 86.7921C313.542 86.9203 313.299 87.035 312.962 87.1362C312.631 87.2374 312.257 87.3285 311.838 87.4094C311.427 87.4837 311.012 87.5478 310.594 87.6017C310.182 87.6557 309.818 87.7029 309.501 87.7434C308.603 87.8514 307.821 88.0201 307.153 88.2495C306.491 88.4789 305.962 88.796 305.564 89.2008C305.165 89.5989 304.916 90.1117 304.815 90.7392C304.659 91.6838 304.865 92.4158 305.432 92.9354C306.006 93.4482 306.802 93.7045 307.821 93.7045ZM320.568 95.1518C320.163 95.1518 319.822 95.0101 319.545 94.7267C319.275 94.4434 319.141 94.0993 319.141 93.6944C319.141 93.2896 319.289 92.9489 319.586 92.6722C319.883 92.3956 320.23 92.2573 320.628 92.2573C321.026 92.2573 321.367 92.399 321.65 92.6824C321.934 92.9657 322.069 93.3031 322.055 93.6944C322.049 93.9643 321.974 94.2106 321.833 94.4332C321.698 94.6491 321.519 94.8246 321.296 94.9595C321.08 95.0877 320.837 95.1518 320.568 95.1518Z" fill="white"/>
<path d="M18.1506 10.8724L18.6007 8.24491C18.7304 7.49883 19.0021 6.73652 19.4157 5.95799C19.8374 5.17947 20.3443 4.44555 20.9363 3.75623C21.5364 3.0669 22.1608 2.49112 22.8096 2.02887L24.8532 3.37913C24.2774 4.09278 23.7787 4.83886 23.357 5.61739C22.9353 6.39591 22.6474 7.26365 22.4933 8.22058L22.0432 10.8724H18.1506ZM24.2936 10.8724L24.7437 8.24491C24.8735 7.49883 25.1452 6.73652 25.5588 5.95799C25.9805 5.17947 26.4873 4.44555 27.0793 3.75623C27.6794 3.0669 28.3039 2.49112 28.9526 2.02887L30.9963 3.37913C30.4205 4.09278 29.9217 4.83886 29.5 5.61739C29.0783 6.39591 28.7904 7.26365 28.6364 8.22058L28.1863 10.8724H24.2936Z" fill="#F4C91D" fill-opacity="0.5"/>
<path d="M332.99 73.0872L332.564 75.7147C332.442 76.4608 332.17 77.2231 331.749 78.0016C331.335 78.772 330.832 79.5019 330.24 80.1912C329.648 80.8724 329.032 81.4523 328.391 81.9307L326.299 80.5805C326.81 79.9398 327.284 79.2302 327.722 78.4517C328.168 77.6732 328.477 76.769 328.647 75.739L329.097 73.0872H332.99ZM339.108 73.0872L338.67 75.7147C338.557 76.4608 338.289 77.2231 337.867 78.0016C337.446 78.772 336.939 79.5019 336.347 80.1912C335.755 80.8724 335.139 81.4523 334.498 81.9307L332.406 80.5805C332.917 79.9398 333.391 79.2302 333.829 78.4517C334.275 77.6732 334.587 76.769 334.766 75.739L335.216 73.0872H339.108Z" fill="#F4C91D" fill-opacity="0.5"/>
</svg>
