<svg width="1122" height="109" viewBox="0 0 1122 109" fill="none" xmlns="http://www.w3.org/2000/svg">
<path d="M68.8977 29.6705C68.9508 28.3068 68.5455 27.2386 67.6818 26.4659C66.8258 25.6932 65.625 25.3068 64.0795 25.3068C63.0038 25.3068 62.0189 25.4962 61.125 25.875C60.2386 26.2462 59.5076 26.7576 58.9318 27.4091C58.3636 28.0606 58.0114 28.803 57.875 29.6364C57.7765 30.25 57.822 30.7879 58.0114 31.25C58.2008 31.7045 58.4924 32.0985 58.8864 32.4318C59.2803 32.7652 59.7311 33.0492 60.2386 33.2841C60.7538 33.5189 61.2765 33.7159 61.8068 33.875L64.1591 34.5795C64.8561 34.7841 65.5492 35.0455 66.2386 35.3636C66.928 35.6818 67.5417 36.0795 68.0795 36.5568C68.6174 37.0341 69.0152 37.6212 69.2727 38.3182C69.5379 39.0152 69.5909 39.8485 69.4318 40.8182C69.2197 42.0758 68.7121 43.2008 67.9091 44.1932C67.1136 45.178 66.0682 45.9583 64.7727 46.5341C63.4773 47.1098 61.9811 47.3977 60.2841 47.3977C58.7008 47.3977 57.3674 47.1364 56.2841 46.6136C55.2008 46.0833 54.4015 45.3523 53.8864 44.4205C53.3712 43.4886 53.1742 42.4091 53.2955 41.1818H55.4773C55.3939 42.0985 55.5644 42.875 55.9886 43.5114C56.4205 44.1477 57.0341 44.6326 57.8295 44.9659C58.6326 45.2917 59.5568 45.4545 60.6023 45.4545C61.7614 45.4545 62.8258 45.2614 63.7955 44.875C64.7652 44.4811 65.5644 43.9356 66.1932 43.2386C66.8295 42.5341 67.2235 41.7159 67.375 40.7841C67.5114 39.9962 67.4167 39.3333 67.0909 38.7955C66.7727 38.2576 66.2765 37.8068 65.6023 37.4432C64.9356 37.072 64.1402 36.7462 63.2159 36.4659L60.5568 35.6477C58.822 35.1174 57.5303 34.3712 56.6818 33.4091C55.8409 32.447 55.5417 31.2197 55.7841 29.7273C55.9962 28.4697 56.5152 27.3674 57.3409 26.4205C58.1742 25.4659 59.2083 24.7235 60.4432 24.1932C61.678 23.6629 63.0114 23.3977 64.4432 23.3977C65.8902 23.3977 67.1212 23.6667 68.1364 24.2045C69.1591 24.7424 69.9167 25.4848 70.4091 26.4318C70.9091 27.3712 71.0947 28.4508 70.9659 29.6705H68.8977ZM79.9545 47.3636C78.4242 47.3636 77.1364 46.9773 76.0909 46.2045C75.0455 45.4242 74.3068 44.3447 73.875 42.9659C73.4432 41.5871 73.3712 39.9962 73.6591 38.1932C73.947 36.4356 74.5189 34.8902 75.375 33.5568C76.2386 32.2159 77.2992 31.1742 78.5568 30.4318C79.8144 29.6818 81.1818 29.3068 82.6591 29.3068C84.197 29.3068 85.4848 29.697 86.5227 30.4773C87.5682 31.2576 88.3068 32.3371 88.7386 33.7159C89.178 35.0947 89.2538 36.6894 88.9659 38.5C88.678 40.25 88.1023 41.7917 87.2386 43.125C86.375 44.4508 85.3144 45.4886 84.0568 46.2386C82.8068 46.9886 81.4394 47.3636 79.9545 47.3636ZM79.9773 45.5114C81.2197 45.5114 82.3258 45.1818 83.2955 44.5227C84.2727 43.8561 85.0795 42.9697 85.7159 41.8636C86.3523 40.75 86.7803 39.5265 87 38.1932C87.2045 36.9205 87.1818 35.75 86.9318 34.6818C86.6818 33.6136 86.2008 32.7576 85.4886 32.1136C84.7765 31.4697 83.8295 31.1477 82.6477 31.1477C81.4129 31.1477 80.3068 31.4848 79.3295 32.1591C78.3523 32.8258 77.5455 33.7197 76.9091 34.8409C76.2727 35.9545 75.8485 37.1742 75.6364 38.5C75.4242 39.7803 75.4394 40.9508 75.6818 42.0114C75.9318 43.072 76.4129 43.9205 77.125 44.5568C77.8447 45.1932 78.7955 45.5114 79.9773 45.5114ZM104.19 40.3295L105.997 29.5455H108.02L105.111 47H103.088L103.565 44.1023H103.418C102.872 44.9962 102.099 45.7424 101.099 46.3409C100.107 46.9318 98.9706 47.2273 97.6903 47.2273C96.5767 47.2273 95.6259 46.9848 94.8381 46.5C94.0578 46.0076 93.5009 45.2879 93.1676 44.3409C92.8343 43.3939 92.7813 42.2311 93.0085 40.8523L94.9062 29.5455H96.929L95.0653 40.7273C94.8456 42.0909 95.0653 43.1894 95.7244 44.0227C96.3911 44.8485 97.3532 45.2614 98.6108 45.2614C99.3987 45.2614 100.187 45.072 100.974 44.6932C101.77 44.3144 102.459 43.7614 103.043 43.0341C103.634 42.2992 104.016 41.3977 104.19 40.3295ZM124.114 47.3864C123.008 47.3864 122.042 47.1818 121.216 46.7727C120.39 46.3561 119.78 45.7538 119.386 44.9659C118.992 44.178 118.89 43.2121 119.08 42.0682C119.246 41.0833 119.572 40.2727 120.057 39.6364C120.549 39 121.148 38.4962 121.852 38.125C122.557 37.7462 123.322 37.4621 124.148 37.2727C124.973 37.0833 125.807 36.9432 126.648 36.8523C127.708 36.7311 128.568 36.6288 129.227 36.5455C129.894 36.4621 130.394 36.3333 130.727 36.1591C131.061 35.9773 131.261 35.6818 131.33 35.2727V35.1932C131.489 34.2083 131.345 33.4432 130.898 32.8977C130.458 32.3447 129.693 32.0682 128.602 32.0682C127.466 32.0682 126.511 32.3182 125.739 32.8182C124.973 33.3182 124.409 33.8788 124.045 34.5L121 33.7727C121.545 32.7121 122.239 31.8561 123.08 31.2045C123.928 30.5455 124.856 30.0682 125.864 29.7727C126.871 29.4697 127.902 29.3182 128.955 29.3182C129.652 29.3182 130.375 29.4015 131.125 29.5682C131.875 29.7273 132.557 30.0227 133.17 30.4545C133.792 30.8864 134.254 31.5038 134.557 32.3068C134.86 33.1023 134.905 34.1364 134.693 35.4091L132.773 47H129.455L129.864 44.6136H129.727C129.439 45.053 129.038 45.4848 128.523 45.9091C128.015 46.3333 127.394 46.6856 126.659 46.9659C125.924 47.2462 125.076 47.3864 124.114 47.3864ZM125.273 44.6591C126.22 44.6591 127.057 44.4735 127.784 44.1023C128.519 43.7311 129.114 43.2462 129.568 42.6477C130.023 42.0417 130.307 41.3939 130.42 40.7045L130.795 38.4545C130.652 38.5758 130.398 38.6856 130.034 38.7841C129.678 38.8826 129.277 38.9697 128.83 39.0455C128.383 39.1212 127.943 39.1856 127.511 39.2386C127.087 39.2917 126.735 39.3409 126.455 39.3864C125.788 39.4697 125.163 39.6098 124.58 39.8068C124.004 40.0038 123.523 40.2879 123.136 40.6591C122.75 41.0227 122.508 41.5076 122.409 42.1136C122.273 42.9545 122.473 43.5909 123.011 44.0227C123.557 44.447 124.311 44.6591 125.273 44.6591ZM136.219 53.5455L140.241 29.5455H143.56L143.094 32.375H143.378C143.635 32.0114 143.984 31.5909 144.423 31.1136C144.87 30.6364 145.457 30.2197 146.185 29.8636C146.912 29.5 147.817 29.3182 148.901 29.3182C150.31 29.3182 151.503 29.6742 152.48 30.3864C153.457 31.0985 154.154 32.125 154.571 33.4659C154.988 34.8068 155.041 36.4205 154.73 38.3068C154.42 40.1932 153.836 41.8106 152.98 43.1591C152.124 44.5 151.086 45.5341 149.866 46.2614C148.654 46.9811 147.34 47.3409 145.923 47.3409C144.863 47.3409 144.026 47.1629 143.412 46.8068C142.806 46.4508 142.355 46.0341 142.06 45.5568C141.764 45.0795 141.541 44.6553 141.389 44.2841H141.185L139.639 53.5455H136.219ZM142.116 38.2727C141.92 39.5 141.92 40.5758 142.116 41.5C142.313 42.4242 142.707 43.1477 143.298 43.6705C143.897 44.1856 144.685 44.4432 145.662 44.4432C146.677 44.4432 147.567 44.1742 148.332 43.6364C149.098 43.0909 149.73 42.3523 150.23 41.4205C150.738 40.4886 151.09 39.4394 151.287 38.2727C151.476 37.1212 151.473 36.0871 151.276 35.1705C151.086 34.2538 150.696 33.5303 150.105 33C149.514 32.4697 148.707 32.2045 147.685 32.2045C146.692 32.2045 145.813 32.4583 145.048 32.9659C144.291 33.4735 143.662 34.1818 143.162 35.0909C142.662 36 142.313 37.0606 142.116 38.2727ZM162.114 47.3864C161.008 47.3864 160.042 47.1818 159.216 46.7727C158.39 46.3561 157.78 45.7538 157.386 44.9659C156.992 44.178 156.89 43.2121 157.08 42.0682C157.246 41.0833 157.572 40.2727 158.057 39.6364C158.549 39 159.148 38.4962 159.852 38.125C160.557 37.7462 161.322 37.4621 162.148 37.2727C162.973 37.0833 163.807 36.9432 164.648 36.8523C165.708 36.7311 166.568 36.6288 167.227 36.5455C167.894 36.4621 168.394 36.3333 168.727 36.1591C169.061 35.9773 169.261 35.6818 169.33 35.2727V35.1932C169.489 34.2083 169.345 33.4432 168.898 32.8977C168.458 32.3447 167.693 32.0682 166.602 32.0682C165.466 32.0682 164.511 32.3182 163.739 32.8182C162.973 33.3182 162.409 33.8788 162.045 34.5L159 33.7727C159.545 32.7121 160.239 31.8561 161.08 31.2045C161.928 30.5455 162.856 30.0682 163.864 29.7727C164.871 29.4697 165.902 29.3182 166.955 29.3182C167.652 29.3182 168.375 29.4015 169.125 29.5682C169.875 29.7273 170.557 30.0227 171.17 30.4545C171.792 30.8864 172.254 31.5038 172.557 32.3068C172.86 33.1023 172.905 34.1364 172.693 35.4091L170.773 47H167.455L167.864 44.6136H167.727C167.439 45.053 167.038 45.4848 166.523 45.9091C166.015 46.3333 165.394 46.6856 164.659 46.9659C163.924 47.2462 163.076 47.3864 162.114 47.3864ZM163.273 44.6591C164.22 44.6591 165.057 44.4735 165.784 44.1023C166.519 43.7311 167.114 43.2462 167.568 42.6477C168.023 42.0417 168.307 41.3939 168.42 40.7045L168.795 38.4545C168.652 38.5758 168.398 38.6856 168.034 38.7841C167.678 38.8826 167.277 38.9697 166.83 39.0455C166.383 39.1212 165.943 39.1856 165.511 39.2386C165.087 39.2917 164.735 39.3409 164.455 39.3864C163.788 39.4697 163.163 39.6098 162.58 39.8068C162.004 40.0038 161.523 40.2879 161.136 40.6591C160.75 41.0227 160.508 41.5076 160.409 42.1136C160.273 42.9545 160.473 43.5909 161.011 44.0227C161.557 44.447 162.311 44.6591 163.273 44.6591ZM175.298 47L178.207 29.5455H181.605L178.696 47H175.298ZM180.616 26.8182C180.026 26.8182 179.526 26.6212 179.116 26.2273C178.715 25.8258 178.529 25.3485 178.56 24.7955C178.59 24.2348 178.825 23.7576 179.264 23.3636C179.704 22.9621 180.215 22.7614 180.798 22.7614C181.389 22.7614 181.885 22.9621 182.287 23.3636C182.688 23.7576 182.878 24.2348 182.855 24.7955C182.825 25.3485 182.59 25.8258 182.151 26.2273C181.719 26.6212 181.207 26.8182 180.616 26.8182ZM188.858 29.5455L191.585 36.3409L196.597 29.5455H200.312L193.415 38.2727L197.449 47H193.733L190.892 40.4773L185.881 47H182.153L189.04 38.2727L185.131 29.5455H188.858ZM207.636 47.3523C205.977 47.3523 204.591 46.9735 203.477 46.2159C202.364 45.4508 201.58 44.3826 201.125 43.0114C200.678 41.6326 200.602 40.0303 200.898 38.2045C201.186 36.4167 201.765 34.8561 202.636 33.5227C203.515 32.1894 204.614 31.1553 205.932 30.4205C207.258 29.6856 208.731 29.3182 210.352 29.3182C212.011 29.3182 213.394 29.7008 214.5 30.4659C215.614 31.2311 216.398 32.303 216.852 33.6818C217.307 35.0606 217.386 36.6667 217.091 38.5C216.803 40.2727 216.216 41.8258 215.33 43.1591C214.451 44.4848 213.352 45.5152 212.034 46.25C210.716 46.9848 209.25 47.3523 207.636 47.3523ZM207.83 44.5C208.92 44.5 209.871 44.2121 210.682 43.6364C211.5 43.0606 212.167 42.2955 212.682 41.3409C213.197 40.3864 213.549 39.3409 213.739 38.2045C213.913 37.1061 213.909 36.1023 213.727 35.1932C213.553 34.2765 213.174 33.5417 212.591 32.9886C212.008 32.4356 211.197 32.1591 210.159 32.1591C209.068 32.1591 208.11 32.4508 207.284 33.0341C206.466 33.6098 205.799 34.3788 205.284 35.3409C204.777 36.303 204.432 37.3523 204.25 38.4886C204.076 39.5795 204.076 40.5833 204.25 41.5C204.424 42.4091 204.803 43.1364 205.386 43.6818C205.97 44.2273 206.784 44.5 207.83 44.5ZM224.599 36.6364L222.895 47H219.497L222.406 29.5455H225.668L225.19 32.3864H225.406C225.959 31.4545 226.713 30.7121 227.668 30.1591C228.63 29.5985 229.766 29.3182 231.077 29.3182C232.259 29.3182 233.251 29.5682 234.054 30.0682C234.865 30.5606 235.437 31.2955 235.77 32.2727C236.111 33.25 236.164 34.4583 235.929 35.8977L234.065 47H230.668L232.452 36.3068C232.656 35.0417 232.49 34.053 231.952 33.3409C231.421 32.6212 230.577 32.2614 229.418 32.2614C228.63 32.2614 227.899 32.4318 227.224 32.7727C226.558 33.1136 225.993 33.6136 225.531 34.2727C225.077 34.9242 224.766 35.7121 224.599 36.6364ZM243.645 47.3864C242.539 47.3864 241.573 47.1818 240.747 46.7727C239.921 46.3561 239.312 45.7538 238.918 44.9659C238.524 44.178 238.421 43.2121 238.611 42.0682C238.777 41.0833 239.103 40.2727 239.588 39.6364C240.08 39 240.679 38.4962 241.384 38.125C242.088 37.7462 242.853 37.4621 243.679 37.2727C244.505 37.0833 245.338 36.9432 246.179 36.8523C247.24 36.7311 248.099 36.6288 248.759 36.5455C249.425 36.4621 249.925 36.3333 250.259 36.1591C250.592 35.9773 250.793 35.6818 250.861 35.2727V35.1932C251.02 34.2083 250.876 33.4432 250.429 32.8977C249.99 32.3447 249.224 32.0682 248.134 32.0682C246.997 32.0682 246.043 32.3182 245.27 32.8182C244.505 33.3182 243.94 33.8788 243.577 34.5L240.531 33.7727C241.077 32.7121 241.77 31.8561 242.611 31.2045C243.459 30.5455 244.387 30.0682 245.395 29.7727C246.402 29.4697 247.433 29.3182 248.486 29.3182C249.183 29.3182 249.906 29.4015 250.656 29.5682C251.406 29.7273 252.088 30.0227 252.702 30.4545C253.323 30.8864 253.785 31.5038 254.088 32.3068C254.391 33.1023 254.437 34.1364 254.224 35.4091L252.304 47H248.986L249.395 44.6136H249.259C248.971 45.053 248.569 45.4848 248.054 45.9091C247.546 46.3333 246.925 46.6856 246.19 46.9659C245.455 47.2462 244.607 47.3864 243.645 47.3864ZM244.804 44.6591C245.751 44.6591 246.588 44.4735 247.315 44.1023C248.05 43.7311 248.645 43.2462 249.099 42.6477C249.554 42.0417 249.838 41.3939 249.952 40.7045L250.327 38.4545C250.183 38.5758 249.929 38.6856 249.565 38.7841C249.209 38.8826 248.808 38.9697 248.361 39.0455C247.914 39.1212 247.474 39.1856 247.043 39.2386C246.618 39.2917 246.266 39.3409 245.986 39.3864C245.319 39.4697 244.694 39.6098 244.111 39.8068C243.535 40.0038 243.054 40.2879 242.668 40.6591C242.281 41.0227 242.039 41.5076 241.94 42.1136C241.804 42.9545 242.005 43.5909 242.543 44.0227C243.088 44.447 243.842 44.6591 244.804 44.6591ZM263.341 47.3409C261.924 47.3409 260.723 46.9811 259.739 46.2614C258.761 45.5341 258.068 44.5 257.659 43.1591C257.258 41.8106 257.212 40.1932 257.523 38.3068C257.841 36.4205 258.428 34.8068 259.284 33.4659C260.14 32.125 261.178 31.0985 262.398 30.3864C263.617 29.6742 264.932 29.3182 266.341 29.3182C267.424 29.3182 268.265 29.5 268.864 29.8636C269.47 30.2197 269.917 30.6364 270.205 31.1136C270.492 31.5909 270.708 32.0114 270.852 32.375H271.045L272.489 23.7273H275.886L272.023 47H268.705L269.17 44.2841H268.886C268.621 44.6553 268.254 45.0795 267.784 45.5568C267.322 46.0341 266.731 46.4508 266.011 46.8068C265.292 47.1629 264.402 47.3409 263.341 47.3409ZM264.489 44.4432C265.466 44.4432 266.341 44.1856 267.114 43.6705C267.894 43.1477 268.542 42.4242 269.057 41.5C269.58 40.5758 269.943 39.5 270.148 38.2727C270.352 37.0606 270.348 36 270.136 35.0909C269.924 34.1818 269.515 33.4735 268.909 32.9659C268.303 32.4583 267.504 32.2045 266.511 32.2045C265.489 32.2045 264.598 32.4697 263.841 33C263.083 33.5303 262.462 34.2538 261.977 35.1705C261.5 36.0871 261.167 37.1212 260.977 38.2727C260.78 39.4394 260.773 40.4886 260.955 41.4205C261.136 42.3523 261.519 43.0909 262.102 43.6364C262.686 44.1742 263.481 44.4432 264.489 44.4432ZM284.293 47.3523C282.634 47.3523 281.247 46.9735 280.134 46.2159C279.02 45.4508 278.236 44.3826 277.781 43.0114C277.334 41.6326 277.259 40.0303 277.554 38.2045C277.842 36.4167 278.421 34.8561 279.293 33.5227C280.171 32.1894 281.27 31.1553 282.588 30.4205C283.914 29.6856 285.387 29.3182 287.009 29.3182C288.668 29.3182 290.05 29.7008 291.156 30.4659C292.27 31.2311 293.054 32.303 293.509 33.6818C293.963 35.0606 294.043 36.6667 293.747 38.5C293.459 40.2727 292.872 41.8258 291.986 43.1591C291.107 44.4848 290.009 45.5152 288.69 46.25C287.372 46.9848 285.906 47.3523 284.293 47.3523ZM284.486 44.5C285.577 44.5 286.527 44.2121 287.338 43.6364C288.156 43.0606 288.823 42.2955 289.338 41.3409C289.853 40.3864 290.205 39.3409 290.395 38.2045C290.569 37.1061 290.565 36.1023 290.384 35.1932C290.209 34.2765 289.83 33.5417 289.247 32.9886C288.664 32.4356 287.853 32.1591 286.815 32.1591C285.724 32.1591 284.766 32.4508 283.94 33.0341C283.122 33.6098 282.455 34.3788 281.94 35.3409C281.433 36.303 281.088 37.3523 280.906 38.4886C280.732 39.5795 280.732 40.5833 280.906 41.5C281.08 42.4091 281.459 43.1364 282.043 43.6818C282.626 44.2273 283.44 44.5 284.486 44.5ZM312.54 47.3636C310.911 47.3636 309.566 46.9848 308.506 46.2273C307.445 45.4621 306.703 44.4053 306.278 43.0568C305.854 41.7008 305.79 40.1402 306.085 38.375C306.381 36.6174 306.964 35.0568 307.835 33.6932C308.706 32.322 309.782 31.25 311.062 30.4773C312.343 29.697 313.733 29.3068 315.233 29.3068C316.18 29.3068 317.066 29.4811 317.892 29.8295C318.718 30.1705 319.419 30.697 319.994 31.4091C320.578 32.1136 320.983 33.0038 321.21 34.0795C321.438 35.1477 321.43 36.4129 321.188 37.875L321.028 38.875H307.392L307.676 37.0909H319.256C319.445 35.9697 319.392 34.9621 319.097 34.0682C318.801 33.1742 318.297 32.4659 317.585 31.9432C316.881 31.4129 316.006 31.1477 314.96 31.1477C313.892 31.1477 312.881 31.447 311.926 32.0455C310.979 32.6439 310.176 33.4242 309.517 34.3864C308.866 35.3409 308.445 36.3598 308.256 37.4432L308.028 38.7841C307.786 40.2614 307.816 41.5 308.119 42.5C308.422 43.4924 308.972 44.2424 309.767 44.75C310.563 45.2576 311.581 45.5114 312.824 45.5114C313.657 45.5114 314.411 45.3826 315.085 45.125C315.759 44.8674 316.347 44.5227 316.847 44.0909C317.347 43.6515 317.748 43.1705 318.051 42.6477L319.858 43.2727C319.472 44.0076 318.926 44.6856 318.222 45.3068C317.525 45.928 316.695 46.428 315.733 46.8068C314.778 47.178 313.714 47.3636 312.54 47.3636ZM324.122 47L327.031 29.5455H328.997L328.543 32.2273H328.724C329.232 31.3258 329.937 30.6174 330.838 30.1023C331.74 29.5795 332.762 29.3182 333.906 29.3182C335.103 29.3182 336.043 29.6023 336.724 30.1705C337.406 30.7311 337.861 31.5038 338.088 32.4886H338.236C338.781 31.5189 339.55 30.75 340.543 30.1818C341.535 29.6061 342.668 29.3182 343.94 29.3182C345.554 29.3182 346.747 29.8295 347.52 30.8523C348.293 31.875 348.516 33.3598 348.19 35.3068L346.236 47H344.213L346.168 35.3068C346.387 33.928 346.209 32.8939 345.634 32.2045C345.058 31.5152 344.194 31.1705 343.043 31.1705C341.709 31.1705 340.607 31.5795 339.736 32.3977C338.872 33.2083 338.338 34.2462 338.134 35.5114L336.213 47H334.145L336.134 35.125C336.323 33.9432 336.152 32.9886 335.622 32.2614C335.099 31.5341 334.24 31.1705 333.043 31.1705C332.232 31.1705 331.471 31.3712 330.759 31.7727C330.054 32.1667 329.455 32.7159 328.963 33.4205C328.478 34.1174 328.16 34.9167 328.009 35.8182L326.145 47H324.122ZM365.239 47.3864C364.133 47.3864 363.167 47.1818 362.341 46.7727C361.515 46.3561 360.905 45.7538 360.511 44.9659C360.117 44.178 360.015 43.2121 360.205 42.0682C360.371 41.0833 360.697 40.2727 361.182 39.6364C361.674 39 362.273 38.4962 362.977 38.125C363.682 37.7462 364.447 37.4621 365.273 37.2727C366.098 37.0833 366.932 36.9432 367.773 36.8523C368.833 36.7311 369.693 36.6288 370.352 36.5455C371.019 36.4621 371.519 36.3333 371.852 36.1591C372.186 35.9773 372.386 35.6818 372.455 35.2727V35.1932C372.614 34.2083 372.47 33.4432 372.023 32.8977C371.583 32.3447 370.818 32.0682 369.727 32.0682C368.591 32.0682 367.636 32.3182 366.864 32.8182C366.098 33.3182 365.534 33.8788 365.17 34.5L362.125 33.7727C362.67 32.7121 363.364 31.8561 364.205 31.2045C365.053 30.5455 365.981 30.0682 366.989 29.7727C367.996 29.4697 369.027 29.3182 370.08 29.3182C370.777 29.3182 371.5 29.4015 372.25 29.5682C373 29.7273 373.682 30.0227 374.295 30.4545C374.917 30.8864 375.379 31.5038 375.682 32.3068C375.985 33.1023 376.03 34.1364 375.818 35.4091L373.898 47H370.58L370.989 44.6136H370.852C370.564 45.053 370.163 45.4848 369.648 45.9091C369.14 46.3333 368.519 46.6856 367.784 46.9659C367.049 47.2462 366.201 47.3864 365.239 47.3864ZM366.398 44.6591C367.345 44.6591 368.182 44.4735 368.909 44.1023C369.644 43.7311 370.239 43.2462 370.693 42.6477C371.148 42.0417 371.432 41.3939 371.545 40.7045L371.92 38.4545C371.777 38.5758 371.523 38.6856 371.159 38.7841C370.803 38.8826 370.402 38.9697 369.955 39.0455C369.508 39.1212 369.068 39.1856 368.636 39.2386C368.212 39.2917 367.86 39.3409 367.58 39.3864C366.913 39.4697 366.288 39.6098 365.705 39.8068C365.129 40.0038 364.648 40.2879 364.261 40.6591C363.875 41.0227 363.633 41.5076 363.534 42.1136C363.398 42.9545 363.598 43.5909 364.136 44.0227C364.682 44.447 365.436 44.6591 366.398 44.6591ZM381.332 29.5455H384.73L381.651 48.1364C381.454 49.303 381.075 50.2879 380.514 51.0909C379.954 51.8939 379.226 52.5038 378.332 52.9205C377.438 53.3371 376.389 53.5455 375.185 53.5455C375.071 53.5455 374.961 53.5455 374.855 53.5455C374.741 53.5455 374.624 53.5417 374.503 53.5341L374.991 50.6136C375.09 50.6136 375.181 50.6136 375.264 50.6136C375.348 50.6136 375.438 50.6136 375.537 50.6136C376.34 50.6136 376.961 50.3977 377.401 49.9659C377.832 49.5341 378.12 48.9167 378.264 48.1136L381.332 29.5455ZM383.662 26.8523C383.079 26.8523 382.582 26.6553 382.173 26.2614C381.772 25.8598 381.586 25.3826 381.616 24.8295C381.639 24.2689 381.87 23.7917 382.31 23.3977C382.749 22.9962 383.264 22.7955 383.855 22.7955C384.446 22.7955 384.942 22.9962 385.344 23.3977C385.745 23.7917 385.931 24.2689 385.901 24.8295C385.878 25.3826 385.647 25.8598 385.207 26.2614C384.768 26.6553 384.253 26.8523 383.662 26.8523ZM398.653 39.7614L400.358 29.5455H403.767L400.858 47H397.517L398.028 43.9773H397.847C397.301 44.9091 396.528 45.6856 395.528 46.3068C394.536 46.9205 393.384 47.2273 392.074 47.2273C390.953 47.2273 390.002 46.9811 389.222 46.4886C388.449 45.9886 387.9 45.25 387.574 44.2727C387.248 43.2955 387.203 42.0871 387.438 40.6477L389.301 29.5455H392.699L390.915 40.2386C390.725 41.428 390.903 42.375 391.449 43.0795C391.994 43.7841 392.79 44.1364 393.835 44.1364C394.472 44.1364 395.131 43.9773 395.812 43.6591C396.494 43.3409 397.097 42.8598 397.619 42.2159C398.15 41.572 398.494 40.7538 398.653 39.7614ZM411.935 47.3409C410.518 47.3409 409.317 46.9811 408.332 46.2614C407.355 45.5341 406.662 44.5 406.253 43.1591C405.851 41.8106 405.806 40.1932 406.116 38.3068C406.435 36.4205 407.022 34.8068 407.878 33.4659C408.734 32.125 409.772 31.0985 410.991 30.3864C412.211 29.6742 413.526 29.3182 414.935 29.3182C416.018 29.3182 416.859 29.5 417.457 29.8636C418.063 30.2197 418.51 30.6364 418.798 31.1136C419.086 31.5909 419.302 32.0114 419.446 32.375H419.639L421.082 23.7273H424.48L420.616 47H417.298L417.764 44.2841H417.48C417.215 44.6553 416.848 45.0795 416.378 45.5568C415.916 46.0341 415.325 46.4508 414.605 46.8068C413.885 47.1629 412.995 47.3409 411.935 47.3409ZM413.082 44.4432C414.06 44.4432 414.935 44.1856 415.707 43.6705C416.488 43.1477 417.135 42.4242 417.651 41.5C418.173 40.5758 418.537 39.5 418.741 38.2727C418.946 37.0606 418.942 36 418.73 35.0909C418.518 34.1818 418.109 33.4735 417.503 32.9659C416.897 32.4583 416.098 32.2045 415.105 32.2045C414.082 32.2045 413.192 32.4697 412.435 33C411.677 33.5303 411.056 34.2538 410.571 35.1705C410.094 36.0871 409.76 37.1212 409.571 38.2727C409.374 39.4394 409.366 40.4886 409.548 41.4205C409.73 42.3523 410.113 43.0909 410.696 43.6364C411.279 44.1742 412.075 44.4432 413.082 44.4432ZM430.489 47.3864C429.383 47.3864 428.417 47.1818 427.591 46.7727C426.765 46.3561 426.155 45.7538 425.761 44.9659C425.367 44.178 425.265 43.2121 425.455 42.0682C425.621 41.0833 425.947 40.2727 426.432 39.6364C426.924 39 427.523 38.4962 428.227 38.125C428.932 37.7462 429.697 37.4621 430.523 37.2727C431.348 37.0833 432.182 36.9432 433.023 36.8523C434.083 36.7311 434.943 36.6288 435.602 36.5455C436.269 36.4621 436.769 36.3333 437.102 36.1591C437.436 35.9773 437.636 35.6818 437.705 35.2727V35.1932C437.864 34.2083 437.72 33.4432 437.273 32.8977C436.833 32.3447 436.068 32.0682 434.977 32.0682C433.841 32.0682 432.886 32.3182 432.114 32.8182C431.348 33.3182 430.784 33.8788 430.42 34.5L427.375 33.7727C427.92 32.7121 428.614 31.8561 429.455 31.2045C430.303 30.5455 431.231 30.0682 432.239 29.7727C433.246 29.4697 434.277 29.3182 435.33 29.3182C436.027 29.3182 436.75 29.4015 437.5 29.5682C438.25 29.7273 438.932 30.0227 439.545 30.4545C440.167 30.8864 440.629 31.5038 440.932 32.3068C441.235 33.1023 441.28 34.1364 441.068 35.4091L439.148 47H435.83L436.239 44.6136H436.102C435.814 45.053 435.413 45.4848 434.898 45.9091C434.39 46.3333 433.769 46.6856 433.034 46.9659C432.299 47.2462 431.451 47.3864 430.489 47.3864ZM431.648 44.6591C432.595 44.6591 433.432 44.4735 434.159 44.1023C434.894 43.7311 435.489 43.2462 435.943 42.6477C436.398 42.0417 436.682 41.3939 436.795 40.7045L437.17 38.4545C437.027 38.5758 436.773 38.6856 436.409 38.7841C436.053 38.8826 435.652 38.9697 435.205 39.0455C434.758 39.1212 434.318 39.1856 433.886 39.2386C433.462 39.2917 433.11 39.3409 432.83 39.3864C432.163 39.4697 431.538 39.6098 430.955 39.8068C430.379 40.0038 429.898 40.2879 429.511 40.6591C429.125 41.0227 428.883 41.5076 428.784 42.1136C428.648 42.9545 428.848 43.5909 429.386 44.0227C429.932 44.447 430.686 44.6591 431.648 44.6591ZM443.673 47L446.582 29.5455H449.866L449.401 32.3182H449.582C450.052 31.3788 450.738 30.6402 451.639 30.1023C452.541 29.5568 453.503 29.2841 454.526 29.2841C454.745 29.2841 454.995 29.2917 455.276 29.3068C455.556 29.3144 455.783 29.3333 455.957 29.3636L455.412 32.6136C455.283 32.5758 455.048 32.5341 454.707 32.4886C454.366 32.4356 454.014 32.4091 453.651 32.4091C452.855 32.4091 452.116 32.5795 451.435 32.9205C450.753 33.2538 450.181 33.7197 449.719 34.3182C449.257 34.9091 448.957 35.5833 448.821 36.3409L447.071 47H443.673ZM463.406 53.5455L467.429 29.5455H470.747L470.281 32.375H470.565C470.823 32.0114 471.171 31.5909 471.611 31.1136C472.058 30.6364 472.645 30.2197 473.372 29.8636C474.099 29.5 475.005 29.3182 476.088 29.3182C477.497 29.3182 478.69 29.6742 479.668 30.3864C480.645 31.0985 481.342 32.125 481.759 33.4659C482.175 34.8068 482.228 36.4205 481.918 38.3068C481.607 40.1932 481.024 41.8106 480.168 43.1591C479.312 44.5 478.274 45.5341 477.054 46.2614C475.842 46.9811 474.527 47.3409 473.111 47.3409C472.05 47.3409 471.213 47.1629 470.599 46.8068C469.993 46.4508 469.543 46.0341 469.247 45.5568C468.952 45.0795 468.728 44.6553 468.577 44.2841H468.372L466.827 53.5455H463.406ZM469.304 38.2727C469.107 39.5 469.107 40.5758 469.304 41.5C469.501 42.4242 469.895 43.1477 470.486 43.6705C471.084 44.1856 471.872 44.4432 472.849 44.4432C473.865 44.4432 474.755 44.1742 475.52 43.6364C476.285 43.0909 476.918 42.3523 477.418 41.4205C477.925 40.4886 478.277 39.4394 478.474 38.2727C478.664 37.1212 478.66 36.0871 478.463 35.1705C478.274 34.2538 477.884 33.5303 477.293 33C476.702 32.4697 475.895 32.2045 474.872 32.2045C473.88 32.2045 473.001 32.4583 472.236 32.9659C471.478 33.4735 470.849 34.1818 470.349 35.0909C469.849 36 469.501 37.0606 469.304 38.2727ZM491.744 47.3523C490.032 47.3523 488.616 46.9848 487.494 46.25C486.381 45.5076 485.6 44.4659 485.153 43.125C484.706 41.7765 484.634 40.197 484.938 38.3864C485.233 36.5985 485.828 35.0227 486.722 33.6591C487.616 32.2955 488.729 31.2311 490.062 30.4659C491.403 29.7008 492.884 29.3182 494.506 29.3182C495.491 29.3182 496.419 29.4811 497.29 29.8068C498.169 30.1326 498.915 30.6439 499.528 31.3409C500.142 32.0379 500.566 32.9432 500.801 34.0568C501.044 35.1629 501.036 36.5076 500.778 38.0909L500.585 39.2955H486.699L487.097 36.75H497.642C497.801 35.8561 497.759 35.0644 497.517 34.375C497.275 33.678 496.858 33.1288 496.267 32.7273C495.684 32.3258 494.949 32.125 494.062 32.125C493.153 32.125 492.305 32.3636 491.517 32.8409C490.729 33.3182 490.07 33.928 489.54 34.6705C489.017 35.4053 488.688 36.1629 488.551 36.9432L488.153 39.2727C487.956 40.5455 487.991 41.5682 488.256 42.3409C488.528 43.1136 489.006 43.6742 489.688 44.0227C490.369 44.3712 491.222 44.5455 492.244 44.5455C492.903 44.5455 493.513 44.4545 494.074 44.2727C494.642 44.0833 495.146 43.8068 495.585 43.4432C496.025 43.072 496.392 42.6098 496.688 42.0568L499.801 42.6364C499.384 43.5833 498.786 44.4129 498.006 45.125C497.225 45.8295 496.305 46.3788 495.244 46.7727C494.191 47.1591 493.025 47.3523 491.744 47.3523ZM518.395 33.8068L515.224 34.3523C515.156 33.9508 515.016 33.572 514.804 33.2159C514.599 32.8598 514.285 32.572 513.861 32.3523C513.437 32.125 512.872 32.0114 512.168 32.0114C511.19 32.0114 510.334 32.2348 509.599 32.6818C508.872 33.1288 508.455 33.697 508.349 34.3864C508.251 34.947 508.384 35.4015 508.747 35.75C509.111 36.0909 509.751 36.375 510.668 36.6023L513.349 37.2386C514.895 37.6098 516.001 38.1894 516.668 38.9773C517.342 39.7576 517.577 40.7727 517.372 42.0227C517.198 43.0606 516.743 43.9811 516.009 44.7841C515.281 45.5871 514.349 46.2159 513.213 46.6705C512.077 47.125 510.812 47.3523 509.418 47.3523C507.433 47.3523 505.887 46.9318 504.781 46.0909C503.675 45.25 503.107 44.0606 503.077 42.5227L506.44 42.0227C506.501 42.8788 506.808 43.5265 507.361 43.9659C507.921 44.3977 508.698 44.6136 509.69 44.6136C510.827 44.6212 511.777 44.3826 512.543 43.8977C513.308 43.4129 513.743 42.8258 513.849 42.1364C513.94 41.5985 513.819 41.1515 513.486 40.7955C513.16 40.4394 512.584 40.1667 511.759 39.9773L508.94 39.3295C507.365 38.9583 506.251 38.3598 505.599 37.5341C504.948 36.7083 504.728 35.6705 504.94 34.4205C505.107 33.3977 505.539 32.5076 506.236 31.75C506.94 30.9848 507.83 30.3902 508.906 29.9659C509.982 29.5341 511.171 29.3182 512.474 29.3182C514.376 29.3182 515.804 29.7273 516.759 30.5455C517.713 31.3561 518.259 32.4432 518.395 33.8068ZM535.551 33.8068L532.381 34.3523C532.312 33.9508 532.172 33.572 531.96 33.2159C531.756 32.8598 531.441 32.572 531.017 32.3523C530.593 32.125 530.028 32.0114 529.324 32.0114C528.347 32.0114 527.491 32.2348 526.756 32.6818C526.028 33.1288 525.612 33.697 525.506 34.3864C525.407 34.947 525.54 35.4015 525.903 35.75C526.267 36.0909 526.907 36.375 527.824 36.6023L530.506 37.2386C532.051 37.6098 533.157 38.1894 533.824 38.9773C534.498 39.7576 534.733 40.7727 534.528 42.0227C534.354 43.0606 533.9 43.9811 533.165 44.7841C532.438 45.5871 531.506 46.2159 530.369 46.6705C529.233 47.125 527.968 47.3523 526.574 47.3523C524.589 47.3523 523.044 46.9318 521.938 46.0909C520.831 45.25 520.263 44.0606 520.233 42.5227L523.597 42.0227C523.657 42.8788 523.964 43.5265 524.517 43.9659C525.078 44.3977 525.854 44.6136 526.847 44.6136C527.983 44.6212 528.934 44.3826 529.699 43.8977C530.464 43.4129 530.9 42.8258 531.006 42.1364C531.097 41.5985 530.975 41.1515 530.642 40.7955C530.316 40.4394 529.741 40.1667 528.915 39.9773L526.097 39.3295C524.521 38.9583 523.407 38.3598 522.756 37.5341C522.104 36.7083 521.884 35.6705 522.097 34.4205C522.263 33.3977 522.695 32.5076 523.392 31.75C524.097 30.9848 524.987 30.3902 526.062 29.9659C527.138 29.5341 528.328 29.3182 529.631 29.3182C531.532 29.3182 532.96 29.7273 533.915 30.5455C534.869 31.3561 535.415 32.4432 535.551 33.8068ZM544.855 47.3523C543.196 47.3523 541.81 46.9735 540.696 46.2159C539.582 45.4508 538.798 44.3826 538.344 43.0114C537.897 41.6326 537.821 40.0303 538.116 38.2045C538.404 36.4167 538.984 34.8561 539.855 33.5227C540.734 32.1894 541.832 31.1553 543.151 30.4205C544.476 29.6856 545.95 29.3182 547.571 29.3182C549.23 29.3182 550.613 29.7008 551.719 30.4659C552.832 31.2311 553.616 32.303 554.071 33.6818C554.526 35.0606 554.605 36.6667 554.31 38.5C554.022 40.2727 553.435 41.8258 552.548 43.1591C551.67 44.4848 550.571 45.5152 549.253 46.25C547.935 46.9848 546.469 47.3523 544.855 47.3523ZM545.048 44.5C546.139 44.5 547.09 44.2121 547.901 43.6364C548.719 43.0606 549.385 42.2955 549.901 41.3409C550.416 40.3864 550.768 39.3409 550.957 38.2045C551.132 37.1061 551.128 36.1023 550.946 35.1932C550.772 34.2765 550.393 33.5417 549.81 32.9886C549.226 32.4356 548.416 32.1591 547.378 32.1591C546.287 32.1591 545.329 32.4508 544.503 33.0341C543.685 33.6098 543.018 34.3788 542.503 35.3409C541.995 36.303 541.651 37.3523 541.469 38.4886C541.295 39.5795 541.295 40.5833 541.469 41.5C541.643 42.4091 542.022 43.1364 542.605 43.6818C543.188 44.2273 544.003 44.5 545.048 44.5ZM561.739 47.3864C560.633 47.3864 559.667 47.1818 558.841 46.7727C558.015 46.3561 557.405 45.7538 557.011 44.9659C556.617 44.178 556.515 43.2121 556.705 42.0682C556.871 41.0833 557.197 40.2727 557.682 39.6364C558.174 39 558.773 38.4962 559.477 38.125C560.182 37.7462 560.947 37.4621 561.773 37.2727C562.598 37.0833 563.432 36.9432 564.273 36.8523C565.333 36.7311 566.193 36.6288 566.852 36.5455C567.519 36.4621 568.019 36.3333 568.352 36.1591C568.686 35.9773 568.886 35.6818 568.955 35.2727V35.1932C569.114 34.2083 568.97 33.4432 568.523 32.8977C568.083 32.3447 567.318 32.0682 566.227 32.0682C565.091 32.0682 564.136 32.3182 563.364 32.8182C562.598 33.3182 562.034 33.8788 561.67 34.5L558.625 33.7727C559.17 32.7121 559.864 31.8561 560.705 31.2045C561.553 30.5455 562.481 30.0682 563.489 29.7727C564.496 29.4697 565.527 29.3182 566.58 29.3182C567.277 29.3182 568 29.4015 568.75 29.5682C569.5 29.7273 570.182 30.0227 570.795 30.4545C571.417 30.8864 571.879 31.5038 572.182 32.3068C572.485 33.1023 572.53 34.1364 572.318 35.4091L570.398 47H567.08L567.489 44.6136H567.352C567.064 45.053 566.663 45.4848 566.148 45.9091C565.64 46.3333 565.019 46.6856 564.284 46.9659C563.549 47.2462 562.701 47.3864 561.739 47.3864ZM562.898 44.6591C563.845 44.6591 564.682 44.4735 565.409 44.1023C566.144 43.7311 566.739 43.2462 567.193 42.6477C567.648 42.0417 567.932 41.3939 568.045 40.7045L568.42 38.4545C568.277 38.5758 568.023 38.6856 567.659 38.7841C567.303 38.8826 566.902 38.9697 566.455 39.0455C566.008 39.1212 565.568 39.1856 565.136 39.2386C564.712 39.2917 564.36 39.3409 564.08 39.3864C563.413 39.4697 562.788 39.6098 562.205 39.8068C561.629 40.0038 561.148 40.2879 560.761 40.6591C560.375 41.0227 560.133 41.5076 560.034 42.1136C559.898 42.9545 560.098 43.5909 560.636 44.0227C561.182 44.447 561.936 44.6591 562.898 44.6591ZM590.207 33.8068L587.037 34.3523C586.969 33.9508 586.829 33.572 586.616 33.2159C586.412 32.8598 586.098 32.572 585.673 32.3523C585.249 32.125 584.685 32.0114 583.98 32.0114C583.003 32.0114 582.147 32.2348 581.412 32.6818C580.685 33.1288 580.268 33.697 580.162 34.3864C580.063 34.947 580.196 35.4015 580.56 35.75C580.923 36.0909 581.563 36.375 582.48 36.6023L585.162 37.2386C586.707 37.6098 587.813 38.1894 588.48 38.9773C589.154 39.7576 589.389 40.7727 589.185 42.0227C589.01 43.0606 588.556 43.9811 587.821 44.7841C587.094 45.5871 586.162 46.2159 585.026 46.6705C583.889 47.125 582.624 47.3523 581.23 47.3523C579.245 47.3523 577.7 46.9318 576.594 46.0909C575.488 45.25 574.92 44.0606 574.889 42.5227L578.253 42.0227C578.313 42.8788 578.62 43.5265 579.173 43.9659C579.734 44.3977 580.51 44.6136 581.503 44.6136C582.639 44.6212 583.59 44.3826 584.355 43.8977C585.12 43.4129 585.556 42.8258 585.662 42.1364C585.753 41.5985 585.632 41.1515 585.298 40.7955C584.973 40.4394 584.397 40.1667 583.571 39.9773L580.753 39.3295C579.177 38.9583 578.063 38.3598 577.412 37.5341C576.76 36.7083 576.541 35.6705 576.753 34.4205C576.92 33.3977 577.351 32.5076 578.048 31.75C578.753 30.9848 579.643 30.3902 580.719 29.9659C581.795 29.5341 582.984 29.3182 584.287 29.3182C586.188 29.3182 587.616 29.7273 588.571 30.5455C589.526 31.3561 590.071 32.4432 590.207 33.8068Z" fill="white"/>
<path d="M9.06818 106.597C7.48864 106.597 6.09659 106.29 4.89205 105.676C3.6875 105.051 2.78977 104.153 2.19886 102.983C1.61932 101.801 1.46023 100.369 1.72159 98.6875C1.94886 97.392 2.38068 96.3011 3.01705 95.4148C3.66477 94.5284 4.48295 93.8011 5.47159 93.233C6.46023 92.6534 7.59659 92.1989 8.88068 91.8693C10.1648 91.5398 11.5625 91.2898 13.0739 91.1193C14.5511 90.9375 15.8125 90.7784 16.858 90.642C17.9034 90.5057 18.7159 90.2898 19.2955 89.9943C19.875 89.6989 20.2216 89.2216 20.3352 88.5625L20.4375 87.9489C20.733 86.1648 20.4602 84.7614 19.6193 83.7386C18.7784 82.7045 17.3693 82.1875 15.392 82.1875C13.5057 82.1875 11.8693 82.608 10.483 83.4489C9.10795 84.2784 8.08523 85.25 7.41477 86.3636L4.72159 85.3239C5.53977 83.892 6.54545 82.75 7.73864 81.8977C8.93182 81.0341 10.2102 80.4148 11.5739 80.0398C12.9375 79.6534 14.2841 79.4602 15.6136 79.4602C16.6136 79.4602 17.6307 79.5909 18.6648 79.8523C19.6989 80.1136 20.625 80.5682 21.4432 81.2159C22.2727 81.8523 22.8807 82.7443 23.267 83.892C23.6648 85.0284 23.7216 86.4716 23.4375 88.2216L20.4716 106H17.4375L18.1364 101.858H17.9489C17.4716 102.631 16.8125 103.381 15.9716 104.108C15.142 104.835 14.1477 105.432 12.9886 105.898C11.8295 106.364 10.5227 106.597 9.06818 106.597ZM9.83523 103.818C11.4489 103.818 12.9091 103.46 14.2159 102.744C15.5341 102.028 16.6136 101.08 17.4545 99.8977C18.3068 98.7045 18.8523 97.392 19.0909 95.9602L19.7216 92.1761C19.4716 92.392 19.0625 92.5852 18.4943 92.7557C17.9375 92.9261 17.3068 93.0795 16.6023 93.2159C15.9091 93.3409 15.2102 93.4489 14.5057 93.5398C13.8125 93.6307 13.1989 93.7102 12.6648 93.7784C11.1534 93.9602 9.83523 94.2443 8.71023 94.6307C7.59659 95.017 6.70455 95.5511 6.03409 96.233C5.36364 96.9034 4.94318 97.767 4.77273 98.8239C4.51136 100.415 4.85795 101.648 5.8125 102.523C6.77841 103.386 8.11932 103.818 9.83523 103.818ZM52.4233 106.528C49.8778 106.528 47.7926 105.955 46.1676 104.807C44.5426 103.648 43.4119 102.051 42.7756 100.017C42.1392 97.983 42.0369 95.6534 42.4688 93.0284C42.9006 90.3693 43.7813 88.0227 45.1108 85.9886C46.4517 83.9432 48.1278 82.3466 50.1392 81.1989C52.1619 80.0511 54.4063 79.4773 56.8722 79.4773C58.8608 79.4773 60.571 79.8466 62.0028 80.5852C63.4347 81.3125 64.5199 82.3352 65.2585 83.6534C65.9972 84.9716 66.3153 86.5114 66.2131 88.2727H61.2528C61.1733 87.0455 60.7188 85.9886 59.8892 85.1023C59.0597 84.2159 57.8381 83.7727 56.2244 83.7727C54.804 83.7727 53.4972 84.1477 52.304 84.8977C51.1108 85.6364 50.1051 86.6932 49.2869 88.0682C48.4688 89.4318 47.9119 91.0455 47.6165 92.9091C47.2983 94.8182 47.3153 96.4659 47.6676 97.8523C48.0199 99.2386 48.6676 100.312 49.6108 101.074C50.554 101.835 51.7415 102.216 53.1733 102.216C54.1506 102.216 55.0597 102.04 55.9006 101.688C56.7528 101.324 57.5028 100.807 58.1506 100.136C58.8097 99.4659 59.321 98.6591 59.6847 97.7159H64.6619C64.1733 99.4091 63.3551 100.92 62.2074 102.25C61.071 103.58 59.6733 104.625 58.0142 105.386C56.3551 106.148 54.4915 106.528 52.4233 106.528ZM79.8452 106.528C77.3565 106.528 75.277 105.96 73.6065 104.824C71.9361 103.676 70.7599 102.074 70.0781 100.017C69.4077 97.9489 69.294 95.5455 69.7372 92.8068C70.169 90.125 71.0384 87.7841 72.3452 85.7841C73.6634 83.7841 75.3111 82.233 77.2884 81.1307C79.277 80.0284 81.4872 79.4773 83.919 79.4773C86.4077 79.4773 88.4815 80.0511 90.1406 81.1989C91.8111 82.3466 92.9872 83.9545 93.669 86.0227C94.3509 88.0909 94.4702 90.5 94.027 93.25C93.5952 95.9091 92.7145 98.2386 91.3849 100.239C90.0668 102.227 88.419 103.773 86.4418 104.875C84.4645 105.977 82.2656 106.528 79.8452 106.528ZM80.1349 102.25C81.7713 102.25 83.1974 101.818 84.4134 100.955C85.6406 100.091 86.6406 98.9432 87.4134 97.5114C88.1861 96.0795 88.7145 94.5114 88.9986 92.8068C89.2599 91.1591 89.2543 89.6534 88.9815 88.2898C88.7202 86.9148 88.152 85.8125 87.277 84.983C86.402 84.1534 85.1861 83.7386 83.6293 83.7386C81.9929 83.7386 80.5554 84.1761 79.3168 85.0511C78.0895 85.9148 77.0895 87.0682 76.3168 88.5114C75.5554 89.9545 75.0384 91.5284 74.7656 93.233C74.5043 94.8693 74.5043 96.375 74.7656 97.75C75.027 99.1136 75.5952 100.205 76.4702 101.023C77.3452 101.841 78.5668 102.25 80.1349 102.25ZM105.29 90.4545L102.733 106H97.6364L102 79.8182H106.892L106.176 84.0795H106.5C107.33 82.6818 108.46 81.5682 109.892 80.7386C111.335 79.8977 113.04 79.4773 115.006 79.4773C116.778 79.4773 118.267 79.8523 119.472 80.6023C120.688 81.3409 121.545 82.4432 122.045 83.9091C122.557 85.375 122.636 87.1875 122.284 89.3466L119.489 106H114.392L117.068 89.9602C117.375 88.0625 117.125 86.5795 116.318 85.5114C115.523 84.4318 114.256 83.892 112.517 83.892C111.335 83.892 110.239 84.1477 109.227 84.6591C108.227 85.1705 107.381 85.9205 106.688 86.9091C106.006 87.8864 105.54 89.0682 105.29 90.4545ZM149.233 86.2102L144.477 87.0284C144.375 86.4261 144.165 85.858 143.847 85.3239C143.54 84.7898 143.068 84.358 142.432 84.0284C141.795 83.6875 140.949 83.517 139.892 83.517C138.426 83.517 137.142 83.8523 136.04 84.5227C134.949 85.1932 134.324 86.0455 134.165 87.0795C134.017 87.9205 134.216 88.6023 134.761 89.125C135.307 89.6364 136.267 90.0625 137.642 90.4034L141.665 91.358C143.983 91.9148 145.642 92.7841 146.642 93.9659C147.653 95.1364 148.006 96.6591 147.699 98.5341C147.438 100.091 146.756 101.472 145.653 102.676C144.563 103.881 143.165 104.824 141.46 105.506C139.756 106.188 137.858 106.528 135.767 106.528C132.79 106.528 130.472 105.898 128.812 104.636C127.153 103.375 126.301 101.591 126.256 99.2841L131.301 98.5341C131.392 99.8182 131.852 100.79 132.682 101.449C133.523 102.097 134.688 102.42 136.176 102.42C137.881 102.432 139.307 102.074 140.455 101.347C141.602 100.619 142.256 99.7386 142.415 98.7045C142.551 97.8977 142.369 97.2273 141.869 96.6932C141.381 96.1591 140.517 95.75 139.278 95.4659L135.051 94.4943C132.688 93.9375 131.017 93.0398 130.04 91.8011C129.063 90.5625 128.733 89.0057 129.051 87.1307C129.301 85.5966 129.949 84.2614 130.994 83.125C132.051 81.9773 133.386 81.0852 135 80.4489C136.614 79.8011 138.398 79.4773 140.352 79.4773C143.205 79.4773 145.347 80.0909 146.778 81.3182C148.21 82.5341 149.028 84.1648 149.233 86.2102ZM168.626 79.8182L167.962 83.9091H153.661L154.325 79.8182H168.626ZM159.183 73.5455H164.28L160.155 98.3125C159.996 99.3011 160.024 100.045 160.24 100.545C160.456 101.034 160.786 101.369 161.229 101.551C161.683 101.722 162.189 101.807 162.746 101.807C163.155 101.807 163.513 101.778 163.82 101.722C164.126 101.665 164.371 101.619 164.553 101.585L164.825 105.795C164.484 105.909 164.024 106.023 163.445 106.136C162.876 106.261 162.183 106.33 161.365 106.341C160.024 106.364 158.814 106.125 157.734 105.625C156.655 105.114 155.848 104.341 155.314 103.307C154.78 102.261 154.649 100.949 154.922 99.3693L159.183 73.5455ZM169.901 106L174.264 79.8182H179.19L178.491 83.9773H178.764C179.469 82.5682 180.497 81.4602 181.849 80.6534C183.202 79.8352 184.645 79.4261 186.179 79.4261C186.509 79.4261 186.884 79.4375 187.304 79.4602C187.724 79.4716 188.065 79.5 188.327 79.5455L187.509 84.4205C187.315 84.3636 186.963 84.3011 186.452 84.233C185.94 84.1534 185.412 84.1136 184.866 84.1136C183.673 84.1136 182.565 84.3693 181.543 84.8807C180.52 85.3807 179.662 86.0795 178.969 86.9773C178.276 87.8636 177.827 88.875 177.622 90.0114L174.997 106H169.901ZM206.808 95.142L209.365 79.8182H214.479L210.115 106H205.104L205.871 101.466H205.598C204.78 102.864 203.621 104.028 202.121 104.96C200.632 105.881 198.905 106.341 196.939 106.341C195.257 106.341 193.831 105.972 192.661 105.233C191.501 104.483 190.678 103.375 190.189 101.909C189.7 100.443 189.632 98.6307 189.984 96.4716L192.78 79.8182H197.876L195.2 95.858C194.916 97.642 195.183 99.0625 196.001 100.119C196.82 101.176 198.013 101.705 199.581 101.705C200.536 101.705 201.524 101.466 202.547 100.989C203.57 100.511 204.473 99.7898 205.257 98.8239C206.053 97.858 206.57 96.6307 206.808 95.142ZM216.963 106L221.327 79.8182H226.423L222.06 106H216.963ZM222.384 76.2727L227.668 68.4148H233.037L226.474 76.2727H222.384ZM228.916 106L233.28 79.8182H238.206L237.507 83.9773H237.78C238.484 82.5682 239.513 81.4602 240.865 80.6534C242.217 79.8352 243.661 79.4261 245.195 79.4261C245.524 79.4261 245.899 79.4375 246.32 79.4602C246.74 79.4716 247.081 79.5 247.342 79.5455L246.524 84.4205C246.331 84.3636 245.979 84.3011 245.467 84.233C244.956 84.1534 244.428 84.1136 243.882 84.1136C242.689 84.1136 241.581 84.3693 240.558 84.8807C239.536 85.3807 238.678 86.0795 237.984 86.9773C237.291 87.8636 236.842 88.875 236.638 90.0114L234.013 106H228.916ZM257.71 106.528C255.142 106.528 253.017 105.977 251.335 104.875C249.665 103.761 248.494 102.199 247.824 100.188C247.153 98.1648 247.045 95.7955 247.5 93.0795C247.943 90.3977 248.835 88.0341 250.176 85.9886C251.517 83.9432 253.188 82.3466 255.188 81.1989C257.199 80.0511 259.42 79.4773 261.852 79.4773C263.33 79.4773 264.722 79.7216 266.028 80.2102C267.347 80.6989 268.466 81.4659 269.386 82.5114C270.307 83.5568 270.943 84.9148 271.295 86.5852C271.659 88.2443 271.648 90.2614 271.261 92.6364L270.972 94.4432H250.142L250.739 90.625H266.557C266.795 89.2841 266.733 88.0966 266.369 87.0625C266.006 86.017 265.381 85.1932 264.494 84.5909C263.619 83.9886 262.517 83.6875 261.188 83.6875C259.824 83.6875 258.551 84.0455 257.369 84.7614C256.188 85.4773 255.199 86.392 254.403 87.5057C253.619 88.608 253.125 89.7443 252.92 90.9148L252.324 94.4091C252.028 96.3182 252.08 97.8523 252.477 99.0114C252.886 100.17 253.602 101.011 254.625 101.534C255.648 102.057 256.926 102.318 258.46 102.318C259.449 102.318 260.364 102.182 261.205 101.909C262.057 101.625 262.813 101.21 263.472 100.665C264.131 100.108 264.682 99.4148 265.125 98.5852L269.795 99.4545C269.17 100.875 268.273 102.119 267.102 103.188C265.932 104.244 264.551 105.068 262.96 105.659C261.381 106.239 259.631 106.528 257.71 106.528ZM274.777 106L279.141 79.8182H284.033L283.317 84.0795H283.641C284.436 82.6364 285.516 81.5114 286.879 80.7045C288.254 79.8864 289.811 79.4773 291.55 79.4773C293.277 79.4773 294.669 79.8864 295.726 80.7045C296.794 81.5227 297.493 82.6477 297.822 84.0795H298.095C298.936 82.6705 300.112 81.5511 301.624 80.7216C303.135 79.892 304.834 79.4773 306.72 79.4773C309.072 79.4773 310.879 80.2273 312.141 81.7273C313.413 83.2159 313.8 85.4545 313.3 88.4432L310.368 106H305.254L308.118 88.9205C308.402 87.1364 308.129 85.8523 307.3 85.0682C306.47 84.2727 305.385 83.875 304.044 83.875C302.385 83.875 301.01 84.3864 299.919 85.4091C298.828 86.4205 298.158 87.7216 297.908 89.3125L295.095 106H290.033L292.947 88.5966C293.175 87.1648 292.913 86.0227 292.163 85.1705C291.425 84.3068 290.345 83.875 288.925 83.875C287.959 83.875 287.021 84.1307 286.112 84.642C285.214 85.1534 284.447 85.858 283.811 86.7557C283.175 87.6534 282.76 88.6875 282.567 89.858L279.874 106H274.777ZM352.811 86.2102L348.055 87.0284C347.953 86.4261 347.743 85.858 347.425 85.3239C347.118 84.7898 346.646 84.358 346.01 84.0284C345.374 83.6875 344.527 83.517 343.47 83.517C342.004 83.517 340.72 83.8523 339.618 84.5227C338.527 85.1932 337.902 86.0455 337.743 87.0795C337.595 87.9205 337.794 88.6023 338.339 89.125C338.885 89.6364 339.845 90.0625 341.22 90.4034L345.243 91.358C347.561 91.9148 349.22 92.7841 350.22 93.9659C351.232 95.1364 351.584 96.6591 351.277 98.5341C351.016 100.091 350.334 101.472 349.232 102.676C348.141 103.881 346.743 104.824 345.038 105.506C343.334 106.188 341.436 106.528 339.345 106.528C336.368 106.528 334.05 105.898 332.391 104.636C330.732 103.375 329.879 101.591 329.834 99.2841L334.879 98.5341C334.97 99.8182 335.43 100.79 336.26 101.449C337.101 102.097 338.266 102.42 339.754 102.42C341.459 102.432 342.885 102.074 344.033 101.347C345.18 100.619 345.834 99.7386 345.993 98.7045C346.129 97.8977 345.947 97.2273 345.447 96.6932C344.959 96.1591 344.095 95.75 342.857 95.4659L338.629 94.4943C336.266 93.9375 334.595 93.0398 333.618 91.8011C332.641 90.5625 332.311 89.0057 332.629 87.1307C332.879 85.5966 333.527 84.2614 334.572 83.125C335.629 81.9773 336.964 81.0852 338.578 80.4489C340.192 79.8011 341.976 79.4773 343.93 79.4773C346.783 79.4773 348.925 80.0909 350.357 81.3182C351.788 82.5341 352.607 84.1648 352.811 86.2102ZM374.011 95.142L376.568 79.8182H381.682L377.318 106H372.307L373.074 101.466H372.801C371.983 102.864 370.824 104.028 369.324 104.96C367.835 105.881 366.108 106.341 364.142 106.341C362.46 106.341 361.034 105.972 359.864 105.233C358.705 104.483 357.881 103.375 357.392 101.909C356.903 100.443 356.835 98.6307 357.188 96.4716L359.983 79.8182H365.08L362.403 95.858C362.119 97.642 362.386 99.0625 363.205 100.119C364.023 101.176 365.216 101.705 366.784 101.705C367.739 101.705 368.727 101.466 369.75 100.989C370.773 100.511 371.676 99.7898 372.46 98.8239C373.256 97.858 373.773 96.6307 374.011 95.142ZM391.717 106.58C390.058 106.58 388.609 106.273 387.371 105.659C386.132 105.034 385.217 104.131 384.626 102.949C384.036 101.767 383.882 100.318 384.166 98.6023C384.416 97.125 384.905 95.9091 385.632 94.9545C386.371 94 387.268 93.2443 388.325 92.6875C389.382 92.1193 390.53 91.6932 391.768 91.4091C393.007 91.125 394.257 90.9148 395.518 90.7784C397.109 90.5966 398.399 90.4432 399.388 90.3182C400.388 90.1932 401.138 90 401.638 89.7386C402.138 89.4659 402.439 89.0227 402.541 88.4091V88.2898C402.78 86.8125 402.564 85.6648 401.893 84.8466C401.234 84.017 400.087 83.6023 398.45 83.6023C396.746 83.6023 395.314 83.9773 394.155 84.7273C393.007 85.4773 392.161 86.3182 391.615 87.25L387.047 86.1591C387.865 84.5682 388.905 83.2841 390.166 82.3068C391.439 81.3182 392.831 80.6023 394.342 80.1591C395.854 79.7045 397.399 79.4773 398.979 79.4773C400.024 79.4773 401.109 79.6023 402.234 79.8523C403.359 80.0909 404.382 80.5341 405.303 81.1818C406.234 81.8295 406.928 82.7557 407.382 83.9602C407.837 85.1534 407.905 86.7045 407.587 88.6136L404.706 106H399.729L400.342 102.42H400.138C399.706 103.08 399.104 103.727 398.331 104.364C397.57 105 396.638 105.528 395.536 105.949C394.433 106.369 393.161 106.58 391.717 106.58ZM393.456 102.489C394.876 102.489 396.132 102.21 397.223 101.653C398.325 101.097 399.217 100.369 399.899 99.4716C400.581 98.5625 401.007 97.5909 401.178 96.5568L401.74 93.1818C401.524 93.3636 401.143 93.5284 400.598 93.6761C400.064 93.8239 399.462 93.9545 398.791 94.0682C398.121 94.1818 397.462 94.2784 396.814 94.358C396.178 94.4375 395.649 94.5114 395.229 94.5795C394.229 94.7045 393.291 94.9148 392.416 95.2102C391.553 95.5057 390.831 95.9318 390.251 96.4886C389.672 97.0341 389.308 97.7614 389.161 98.6705C388.956 99.9318 389.257 100.886 390.064 101.534C390.882 102.17 392.013 102.489 393.456 102.489ZM447.124 86.2102L442.368 87.0284C442.266 86.4261 442.055 85.858 441.737 85.3239C441.43 84.7898 440.959 84.358 440.322 84.0284C439.686 83.6875 438.839 83.517 437.783 83.517C436.317 83.517 435.033 83.8523 433.93 84.5227C432.839 85.1932 432.214 86.0455 432.055 87.0795C431.908 87.9205 432.107 88.6023 432.652 89.125C433.197 89.6364 434.158 90.0625 435.533 90.4034L439.555 91.358C441.874 91.9148 443.533 92.7841 444.533 93.9659C445.544 95.1364 445.896 96.6591 445.589 98.5341C445.328 100.091 444.646 101.472 443.544 102.676C442.453 103.881 441.055 104.824 439.351 105.506C437.646 106.188 435.749 106.528 433.658 106.528C430.68 106.528 428.362 105.898 426.703 104.636C425.044 103.375 424.192 101.591 424.146 99.2841L429.192 98.5341C429.283 99.8182 429.743 100.79 430.572 101.449C431.413 102.097 432.578 102.42 434.067 102.42C435.771 102.432 437.197 102.074 438.345 101.347C439.493 100.619 440.146 99.7386 440.305 98.7045C440.442 97.8977 440.26 97.2273 439.76 96.6932C439.271 96.1591 438.408 95.75 437.169 95.4659L432.942 94.4943C430.578 93.9375 428.908 93.0398 427.93 91.8011C426.953 90.5625 426.624 89.0057 426.942 87.1307C427.192 85.5966 427.839 84.2614 428.885 83.125C429.942 81.9773 431.277 81.0852 432.891 80.4489C434.504 79.8011 436.288 79.4773 438.243 79.4773C441.095 79.4773 443.237 80.0909 444.669 81.3182C446.101 82.5341 446.919 84.1648 447.124 86.2102ZM457.483 106.58C455.824 106.58 454.375 106.273 453.136 105.659C451.898 105.034 450.983 104.131 450.392 102.949C449.801 101.767 449.648 100.318 449.932 98.6023C450.182 97.125 450.67 95.9091 451.398 94.9545C452.136 94 453.034 93.2443 454.091 92.6875C455.148 92.1193 456.295 91.6932 457.534 91.4091C458.773 91.125 460.023 90.9148 461.284 90.7784C462.875 90.5966 464.165 90.4432 465.153 90.3182C466.153 90.1932 466.903 90 467.403 89.7386C467.903 89.4659 468.205 89.0227 468.307 88.4091V88.2898C468.545 86.8125 468.33 85.6648 467.659 84.8466C467 84.017 465.852 83.6023 464.216 83.6023C462.511 83.6023 461.08 83.9773 459.92 84.7273C458.773 85.4773 457.926 86.3182 457.381 87.25L452.812 86.1591C453.631 84.5682 454.67 83.2841 455.932 82.3068C457.205 81.3182 458.597 80.6023 460.108 80.1591C461.619 79.7045 463.165 79.4773 464.744 79.4773C465.79 79.4773 466.875 79.6023 468 79.8523C469.125 80.0909 470.148 80.5341 471.068 81.1818C472 81.8295 472.693 82.7557 473.148 83.9602C473.602 85.1534 473.67 86.7045 473.352 88.6136L470.472 106H465.494L466.108 102.42H465.903C465.472 103.08 464.869 103.727 464.097 104.364C463.335 105 462.403 105.528 461.301 105.949C460.199 106.369 458.926 106.58 457.483 106.58ZM459.222 102.489C460.642 102.489 461.898 102.21 462.989 101.653C464.091 101.097 464.983 100.369 465.665 99.4716C466.347 98.5625 466.773 97.5909 466.943 96.5568L467.506 93.1818C467.29 93.3636 466.909 93.5284 466.364 93.6761C465.83 93.8239 465.227 93.9545 464.557 94.0682C463.886 94.1818 463.227 94.2784 462.58 94.358C461.943 94.4375 461.415 94.5114 460.994 94.5795C459.994 94.7045 459.057 94.9148 458.182 95.2102C457.318 95.5057 456.597 95.9318 456.017 96.4886C455.438 97.0341 455.074 97.7614 454.926 98.6705C454.722 99.9318 455.023 100.886 455.83 101.534C456.648 102.17 457.778 102.489 459.222 102.489ZM495.652 95.142L498.209 79.8182H503.322L498.959 106H493.947L494.714 101.466H494.442C493.624 102.864 492.464 104.028 490.964 104.96C489.476 105.881 487.749 106.341 485.783 106.341C484.101 106.341 482.675 105.972 481.504 105.233C480.345 104.483 479.521 103.375 479.033 101.909C478.544 100.443 478.476 98.6307 478.828 96.4716L481.624 79.8182H486.72L484.044 95.858C483.76 97.642 484.027 99.0625 484.845 100.119C485.663 101.176 486.857 101.705 488.425 101.705C489.379 101.705 490.368 101.466 491.391 100.989C492.413 100.511 493.317 99.7898 494.101 98.8239C494.896 97.858 495.413 96.6307 495.652 95.142ZM490.93 76.3239L496.214 68.4659H501.584L495.021 76.3239H490.93ZM515.574 106.511C513.449 106.511 511.648 105.972 510.17 104.892C508.705 103.801 507.665 102.25 507.051 100.239C506.449 98.2159 506.381 95.7898 506.847 92.9602C507.324 90.1307 508.205 87.7102 509.489 85.6989C510.773 83.6875 512.33 82.1477 514.159 81.0795C515.989 80.0114 517.96 79.4773 520.074 79.4773C521.699 79.4773 522.96 79.75 523.858 80.2955C524.767 80.8295 525.438 81.4545 525.869 82.1705C526.301 82.8864 526.625 83.517 526.841 84.0625H527.131L529.295 71.0909H534.392L528.597 106H523.619L524.318 101.926H523.892C523.494 102.483 522.943 103.119 522.239 103.835C521.545 104.551 520.659 105.176 519.58 105.71C518.5 106.244 517.165 106.511 515.574 106.511ZM517.295 102.165C518.761 102.165 520.074 101.778 521.233 101.006C522.403 100.222 523.375 99.1364 524.148 97.75C524.932 96.3636 525.477 94.75 525.784 92.9091C526.091 91.0909 526.085 89.5 525.767 88.1364C525.449 86.7727 524.835 85.7102 523.926 84.9489C523.017 84.1875 521.818 83.8068 520.33 83.8068C518.795 83.8068 517.46 84.2045 516.324 85C515.188 85.7955 514.256 86.8807 513.528 88.2557C512.813 89.6307 512.313 91.1818 512.028 92.9091C511.733 94.6591 511.722 96.233 511.994 97.6307C512.267 99.0284 512.841 100.136 513.716 100.955C514.591 101.761 515.784 102.165 517.295 102.165ZM547.07 106.528C544.501 106.528 542.376 105.977 540.695 104.875C539.024 103.761 537.854 102.199 537.183 100.188C536.513 98.1648 536.405 95.7955 536.859 93.0795C537.303 90.3977 538.195 88.0341 539.536 85.9886C540.876 83.9432 542.547 82.3466 544.547 81.1989C546.558 80.0511 548.78 79.4773 551.212 79.4773C552.689 79.4773 554.081 79.7216 555.388 80.2102C556.706 80.6989 557.825 81.4659 558.746 82.5114C559.666 83.5568 560.303 84.9148 560.655 86.5852C561.018 88.2443 561.007 90.2614 560.621 92.6364L560.331 94.4432H539.501L540.098 90.625H555.916C556.155 89.2841 556.092 88.0966 555.729 87.0625C555.365 86.017 554.74 85.1932 553.854 84.5909C552.979 83.9886 551.876 83.6875 550.547 83.6875C549.183 83.6875 547.911 84.0455 546.729 84.7614C545.547 85.4773 544.558 86.392 543.763 87.5057C542.979 88.608 542.484 89.7443 542.28 90.9148L541.683 94.4091C541.388 96.3182 541.439 97.8523 541.837 99.0114C542.246 100.17 542.962 101.011 543.984 101.534C545.007 102.057 546.286 102.318 547.82 102.318C548.808 102.318 549.723 102.182 550.564 101.909C551.416 101.625 552.172 101.21 552.831 100.665C553.49 100.108 554.041 99.4148 554.484 98.5852L559.155 99.4545C558.53 100.875 557.632 102.119 556.462 103.188C555.291 104.244 553.911 105.068 552.32 105.659C550.74 106.239 548.99 106.528 547.07 106.528ZM588.716 106.545C586.273 106.545 584.256 105.977 582.665 104.841C581.074 103.693 579.96 102.108 579.324 100.085C578.688 98.0511 578.591 95.7102 579.034 93.0625C579.477 90.4261 580.352 88.0852 581.659 86.0398C582.966 83.983 584.58 82.375 586.5 81.2159C588.42 80.0455 590.506 79.4602 592.756 79.4602C594.176 79.4602 595.506 79.7216 596.744 80.2443C597.983 80.7557 599.034 81.5455 599.898 82.6136C600.773 83.6705 601.381 85.0057 601.722 86.6193C602.062 88.2216 602.051 90.1193 601.688 92.3125L601.449 93.8125H580.994L581.42 91.1364H598.79C599.074 89.4545 598.994 87.9432 598.551 86.6023C598.108 85.2614 597.352 84.1989 596.284 83.4148C595.227 82.6193 593.915 82.2216 592.347 82.2216C590.744 82.2216 589.227 82.6705 587.795 83.5682C586.375 84.4659 585.17 85.6364 584.182 87.0795C583.205 88.5114 582.574 90.0398 582.29 91.6648L581.949 93.6761C581.585 95.892 581.631 97.75 582.085 99.25C582.54 100.739 583.364 101.864 584.557 102.625C585.75 103.386 587.278 103.767 589.142 103.767C590.392 103.767 591.523 103.574 592.534 103.188C593.545 102.801 594.426 102.284 595.176 101.636C595.926 100.977 596.528 100.256 596.983 99.4716L599.693 100.409C599.114 101.511 598.295 102.528 597.239 103.46C596.193 104.392 594.949 105.142 593.506 105.71C592.074 106.267 590.477 106.545 588.716 106.545ZM629.923 79.8182L615.997 106H612.759L607.56 79.8182H610.713L614.804 101.994H615.026L626.497 79.8182H629.923ZM631.53 106L635.893 79.8182H638.945L634.581 106H631.53ZM638.518 75.267C637.882 75.267 637.342 75.0511 636.899 74.6193C636.467 74.1875 636.257 73.6648 636.268 73.0511C636.291 72.4716 636.524 71.9716 636.967 71.5511C637.422 71.1193 637.956 70.9034 638.57 70.9034C639.206 70.9034 639.746 71.125 640.189 71.5682C640.632 72 640.842 72.5227 640.82 73.1364C640.808 73.7159 640.575 74.2159 640.121 74.6364C639.666 75.0568 639.132 75.267 638.518 75.267ZM651.98 106.545C649.832 106.545 648.043 105.977 646.611 104.841C645.179 103.705 644.179 102.119 643.611 100.085C643.043 98.0511 642.98 95.6818 643.423 92.9773C643.878 90.2841 644.724 87.9261 645.963 85.9034C647.213 83.8693 648.741 82.2898 650.548 81.1648C652.366 80.0284 654.349 79.4602 656.497 79.4602C658.099 79.4602 659.378 79.7443 660.332 80.3125C661.298 80.8693 662.031 81.5625 662.531 82.392C663.031 83.2216 663.389 84.0284 663.605 84.8125H663.878L666.162 71.0909H669.213L663.418 106H660.469L661.287 101.142H660.912C660.423 101.937 659.781 102.756 658.986 103.597C658.202 104.426 657.236 105.125 656.088 105.693C654.94 106.261 653.571 106.545 651.98 106.545ZM652.645 103.767C654.338 103.767 655.866 103.307 657.23 102.386C658.605 101.455 659.753 100.176 660.673 98.5511C661.605 96.9148 662.241 95.0398 662.582 92.9261C662.935 90.8352 662.929 88.9886 662.565 87.3864C662.202 85.7727 661.497 84.5114 660.452 83.6023C659.406 82.6818 658.026 82.2216 656.31 82.2216C654.571 82.2216 653.026 82.6989 651.673 83.6534C650.321 84.5966 649.202 85.875 648.315 87.4886C647.44 89.1023 646.832 90.9148 646.491 92.9261C646.162 94.9602 646.162 96.7955 646.491 98.4318C646.821 100.068 647.491 101.369 648.503 102.335C649.526 103.29 650.906 103.767 652.645 103.767ZM682.56 106.545C680.116 106.545 678.099 105.977 676.509 104.841C674.918 103.693 673.804 102.108 673.168 100.085C672.531 98.0511 672.435 95.7102 672.878 93.0625C673.321 90.4261 674.196 88.0852 675.503 86.0398C676.81 83.983 678.423 82.375 680.344 81.2159C682.264 80.0455 684.349 79.4602 686.599 79.4602C688.02 79.4602 689.349 79.7216 690.588 80.2443C691.827 80.7557 692.878 81.5455 693.741 82.6136C694.616 83.6705 695.224 85.0057 695.565 86.6193C695.906 88.2216 695.895 90.1193 695.531 92.3125L695.293 93.8125H674.838L675.264 91.1364H692.634C692.918 89.4545 692.838 87.9432 692.395 86.6023C691.952 85.2614 691.196 84.1989 690.128 83.4148C689.071 82.6193 687.759 82.2216 686.19 82.2216C684.588 82.2216 683.071 82.6705 681.639 83.5682C680.219 84.4659 679.014 85.6364 678.026 87.0795C677.048 88.5114 676.418 90.0398 676.134 91.6648L675.793 93.6761C675.429 95.892 675.474 97.75 675.929 99.25C676.384 100.739 677.207 101.864 678.401 102.625C679.594 103.386 681.122 103.767 682.986 103.767C684.236 103.767 685.366 103.574 686.378 103.188C687.389 102.801 688.27 102.284 689.02 101.636C689.77 100.977 690.372 100.256 690.827 99.4716L693.537 100.409C692.957 101.511 692.139 102.528 691.082 103.46C690.037 104.392 688.793 105.142 687.349 105.71C685.918 106.267 684.321 106.545 682.56 106.545ZM705.678 89.6364L702.967 106H699.933L704.297 79.8182H707.246L706.564 83.9261H706.837C707.655 82.5852 708.786 81.5114 710.229 80.7045C711.683 79.8864 713.371 79.4773 715.291 79.4773C717.041 79.4773 718.518 79.8466 719.723 80.5852C720.939 81.3125 721.803 82.3864 722.314 83.8068C722.837 85.2273 722.928 86.9716 722.587 89.0398L719.74 106H716.706L719.501 89.2273C719.854 87.0909 719.541 85.3977 718.564 84.1477C717.598 82.8864 716.104 82.2557 714.081 82.2557C712.706 82.2557 711.428 82.5511 710.246 83.142C709.075 83.733 708.087 84.5852 707.28 85.6989C706.473 86.8011 705.939 88.1136 705.678 89.6364ZM737.889 106.545C735.526 106.545 733.577 105.96 732.043 104.79C730.509 103.619 729.435 102.017 728.821 99.983C728.219 97.9375 728.134 95.6193 728.565 93.0284C728.997 90.392 729.866 88.0568 731.173 86.0227C732.48 83.9773 734.094 82.375 736.014 81.2159C737.946 80.0455 740.054 79.4602 742.338 79.4602C744.099 79.4602 745.634 79.8011 746.94 80.483C748.247 81.1534 749.259 82.1023 749.974 83.3295C750.69 84.5455 751.031 85.9659 750.997 87.5909H747.929C747.849 86.0795 747.298 84.8068 746.276 83.7727C745.264 82.7386 743.832 82.2216 741.98 82.2216C740.287 82.2216 738.719 82.6761 737.276 83.5852C735.832 84.483 734.611 85.7386 733.611 87.3523C732.622 88.9545 731.957 90.8125 731.616 92.9261C731.253 95.0511 731.287 96.9318 731.719 98.5682C732.151 100.193 732.923 101.466 734.037 102.386C735.162 103.307 736.582 103.767 738.298 103.767C739.469 103.767 740.571 103.551 741.605 103.119C742.639 102.676 743.554 102.051 744.349 101.244C745.145 100.426 745.753 99.4659 746.173 98.3636H749.241C748.73 99.9545 747.923 101.364 746.821 102.591C745.73 103.818 744.423 104.784 742.901 105.489C741.378 106.193 739.707 106.545 737.889 106.545ZM754.483 106L758.847 79.8182H761.898L757.534 106H754.483ZM761.472 75.267C760.835 75.267 760.295 75.0511 759.852 74.6193C759.42 74.1875 759.21 73.6648 759.222 73.0511C759.244 72.4716 759.477 71.9716 759.92 71.5511C760.375 71.1193 760.909 70.9034 761.523 70.9034C762.159 70.9034 762.699 71.125 763.142 71.5682C763.585 72 763.795 72.5227 763.773 73.1364C763.761 73.7159 763.528 74.2159 763.074 74.6364C762.619 75.0568 762.085 75.267 761.472 75.267ZM772.803 106.597C771.223 106.597 769.831 106.29 768.626 105.676C767.422 105.051 766.524 104.153 765.933 102.983C765.354 101.801 765.195 100.369 765.456 98.6875C765.683 97.392 766.115 96.3011 766.751 95.4148C767.399 94.5284 768.217 93.8011 769.206 93.233C770.195 92.6534 771.331 92.1989 772.615 91.8693C773.899 91.5398 775.297 91.2898 776.808 91.1193C778.286 90.9375 779.547 90.7784 780.592 90.642C781.638 90.5057 782.45 90.2898 783.03 89.9943C783.609 89.6989 783.956 89.2216 784.07 88.5625L784.172 87.9489C784.467 86.1648 784.195 84.7614 783.354 83.7386C782.513 82.7045 781.104 82.1875 779.126 82.1875C777.24 82.1875 775.604 82.608 774.217 83.4489C772.842 84.2784 771.82 85.25 771.149 86.3636L768.456 85.3239C769.274 83.892 770.28 82.75 771.473 81.8977C772.666 81.0341 773.945 80.4148 775.308 80.0398C776.672 79.6534 778.018 79.4602 779.348 79.4602C780.348 79.4602 781.365 79.5909 782.399 79.8523C783.433 80.1136 784.359 80.5682 785.178 81.2159C786.007 81.8523 786.615 82.7443 787.001 83.892C787.399 85.0284 787.456 86.4716 787.172 88.2216L784.206 106H781.172L781.871 101.858H781.683C781.206 102.631 780.547 103.381 779.706 104.108C778.876 104.835 777.882 105.432 776.723 105.898C775.564 106.364 774.257 106.597 772.803 106.597ZM773.57 103.818C775.183 103.818 776.643 103.46 777.95 102.744C779.268 102.028 780.348 101.08 781.189 99.8977C782.041 98.7045 782.587 97.392 782.825 95.9602L783.456 92.1761C783.206 92.392 782.797 92.5852 782.229 92.7557C781.672 92.9261 781.041 93.0795 780.337 93.2159C779.643 93.3409 778.945 93.4489 778.24 93.5398C777.547 93.6307 776.933 93.7102 776.399 93.7784C774.888 93.9602 773.57 94.2443 772.445 94.6307C771.331 95.017 770.439 95.5511 769.768 96.233C769.098 96.9034 768.678 97.767 768.507 98.8239C768.246 100.415 768.592 101.648 769.547 102.523C770.513 103.386 771.854 103.818 773.57 103.818ZM801.652 106.545C799.504 106.545 797.714 105.977 796.283 104.841C794.851 103.705 793.851 102.119 793.283 100.085C792.714 98.0511 792.652 95.6818 793.095 92.9773C793.55 90.2841 794.396 87.9261 795.635 85.9034C796.885 83.8693 798.413 82.2898 800.22 81.1648C802.038 80.0284 804.021 79.4602 806.169 79.4602C807.771 79.4602 809.05 79.7443 810.004 80.3125C810.97 80.8693 811.703 81.5625 812.203 82.392C812.703 83.2216 813.061 84.0284 813.277 84.8125H813.55L815.834 71.0909H818.885L813.089 106H810.141L810.959 101.142H810.584C810.095 101.937 809.453 102.756 808.658 103.597C807.874 104.426 806.908 105.125 805.76 105.693C804.612 106.261 803.243 106.545 801.652 106.545ZM802.317 103.767C804.01 103.767 805.538 103.307 806.902 102.386C808.277 101.455 809.425 100.176 810.345 98.5511C811.277 96.9148 811.913 95.0398 812.254 92.9261C812.607 90.8352 812.601 88.9886 812.237 87.3864C811.874 85.7727 811.169 84.5114 810.124 83.6023C809.078 82.6818 807.697 82.2216 805.982 82.2216C804.243 82.2216 802.697 82.6989 801.345 83.6534C799.993 84.5966 798.874 85.875 797.987 87.4886C797.112 89.1023 796.504 90.9148 796.163 92.9261C795.834 94.9602 795.834 96.7955 796.163 98.4318C796.493 100.068 797.163 101.369 798.175 102.335C799.197 103.29 800.578 103.767 802.317 103.767ZM828.959 106.597C827.379 106.597 825.987 106.29 824.783 105.676C823.578 105.051 822.68 104.153 822.089 102.983C821.51 101.801 821.351 100.369 821.612 98.6875C821.839 97.392 822.271 96.3011 822.908 95.4148C823.555 94.5284 824.374 93.8011 825.362 93.233C826.351 92.6534 827.487 92.1989 828.771 91.8693C830.055 91.5398 831.453 91.2898 832.964 91.1193C834.442 90.9375 835.703 90.7784 836.749 90.642C837.794 90.5057 838.607 90.2898 839.186 89.9943C839.766 89.6989 840.112 89.2216 840.226 88.5625L840.328 87.9489C840.624 86.1648 840.351 84.7614 839.51 83.7386C838.669 82.7045 837.26 82.1875 835.283 82.1875C833.396 82.1875 831.76 82.608 830.374 83.4489C828.999 84.2784 827.976 85.25 827.305 86.3636L824.612 85.3239C825.43 83.892 826.436 82.75 827.629 81.8977C828.822 81.0341 830.101 80.4148 831.464 80.0398C832.828 79.6534 834.175 79.4602 835.504 79.4602C836.504 79.4602 837.521 79.5909 838.555 79.8523C839.589 80.1136 840.516 80.5682 841.334 81.2159C842.163 81.8523 842.771 82.7443 843.158 83.892C843.555 85.0284 843.612 86.4716 843.328 88.2216L840.362 106H837.328L838.027 101.858H837.839C837.362 102.631 836.703 103.381 835.862 104.108C835.033 104.835 834.038 105.432 832.879 105.898C831.72 106.364 830.413 106.597 828.959 106.597ZM829.726 103.818C831.339 103.818 832.8 103.46 834.107 102.744C835.425 102.028 836.504 101.08 837.345 99.8977C838.197 98.7045 838.743 97.392 838.982 95.9602L839.612 92.1761C839.362 92.392 838.953 92.5852 838.385 92.7557C837.828 92.9261 837.197 93.0795 836.493 93.2159C835.8 93.3409 835.101 93.4489 834.396 93.5398C833.703 93.6307 833.089 93.7102 832.555 93.7784C831.044 93.9602 829.726 94.2443 828.601 94.6307C827.487 95.017 826.595 95.5511 825.925 96.233C825.254 96.9034 824.834 97.767 824.663 98.8239C824.402 100.415 824.749 101.648 825.703 102.523C826.669 103.386 828.01 103.818 829.726 103.818ZM867.678 89.6364L864.967 106H861.933L866.297 79.8182H869.246L868.564 83.9261H868.837C869.655 82.5852 870.786 81.5114 872.229 80.7045C873.683 79.8864 875.371 79.4773 877.291 79.4773C879.041 79.4773 880.518 79.8466 881.723 80.5852C882.939 81.3125 883.803 82.3864 884.314 83.8068C884.837 85.2273 884.928 86.9716 884.587 89.0398L881.74 106H878.706L881.501 89.2273C881.854 87.0909 881.541 85.3977 880.564 84.1477C879.598 82.8864 878.104 82.2557 876.081 82.2557C874.706 82.2557 873.428 82.5511 872.246 83.142C871.075 83.733 870.087 84.5852 869.28 85.6989C868.473 86.8011 867.939 88.1136 867.678 89.6364ZM896.974 106.597C895.395 106.597 894.003 106.29 892.798 105.676C891.594 105.051 890.696 104.153 890.105 102.983C889.526 101.801 889.366 100.369 889.628 98.6875C889.855 97.392 890.287 96.3011 890.923 95.4148C891.571 94.5284 892.389 93.8011 893.378 93.233C894.366 92.6534 895.503 92.1989 896.787 91.8693C898.071 91.5398 899.469 91.2898 900.98 91.1193C902.457 90.9375 903.719 90.7784 904.764 90.642C905.81 90.5057 906.622 90.2898 907.202 89.9943C907.781 89.6989 908.128 89.2216 908.241 88.5625L908.344 87.9489C908.639 86.1648 908.366 84.7614 907.526 83.7386C906.685 82.7045 905.276 82.1875 903.298 82.1875C901.412 82.1875 899.776 82.608 898.389 83.4489C897.014 84.2784 895.991 85.25 895.321 86.3636L892.628 85.3239C893.446 83.892 894.452 82.75 895.645 81.8977C896.838 81.0341 898.116 80.4148 899.48 80.0398C900.844 79.6534 902.19 79.4602 903.52 79.4602C904.52 79.4602 905.537 79.5909 906.571 79.8523C907.605 80.1136 908.531 80.5682 909.349 81.2159C910.179 81.8523 910.787 82.7443 911.173 83.892C911.571 85.0284 911.628 86.4716 911.344 88.2216L908.378 106H905.344L906.043 101.858H905.855C905.378 102.631 904.719 103.381 903.878 104.108C903.048 104.835 902.054 105.432 900.895 105.898C899.736 106.364 898.429 106.597 896.974 106.597ZM897.741 103.818C899.355 103.818 900.815 103.46 902.122 102.744C903.44 102.028 904.52 101.08 905.361 99.8977C906.213 98.7045 906.759 97.392 906.997 95.9602L907.628 92.1761C907.378 92.392 906.969 92.5852 906.401 92.7557C905.844 92.9261 905.213 93.0795 904.509 93.2159C903.815 93.3409 903.116 93.4489 902.412 93.5398C901.719 93.6307 901.105 93.7102 900.571 93.7784C899.06 93.9602 897.741 94.2443 896.616 94.6307C895.503 95.017 894.611 95.5511 893.94 96.233C893.27 96.9034 892.849 97.767 892.679 98.8239C892.418 100.415 892.764 101.648 893.719 102.523C894.685 103.386 896.026 103.818 897.741 103.818ZM940.108 106.545C937.744 106.545 935.795 105.96 934.261 104.79C932.727 103.619 931.653 102.017 931.04 99.983C930.438 97.9375 930.352 95.6193 930.784 93.0284C931.216 90.392 932.085 88.0568 933.392 86.0227C934.699 83.9773 936.313 82.375 938.233 81.2159C940.165 80.0455 942.273 79.4602 944.557 79.4602C946.318 79.4602 947.852 79.8011 949.159 80.483C950.466 81.1534 951.477 82.1023 952.193 83.3295C952.909 84.5455 953.25 85.9659 953.216 87.5909H950.148C950.068 86.0795 949.517 84.8068 948.494 83.7727C947.483 82.7386 946.051 82.2216 944.199 82.2216C942.506 82.2216 940.938 82.6761 939.494 83.5852C938.051 84.483 936.83 85.7386 935.83 87.3523C934.841 88.9545 934.176 90.8125 933.835 92.9261C933.472 95.0511 933.506 96.9318 933.938 98.5682C934.369 100.193 935.142 101.466 936.256 102.386C937.381 103.307 938.801 103.767 940.517 103.767C941.688 103.767 942.79 103.551 943.824 103.119C944.858 102.676 945.773 102.051 946.568 101.244C947.364 100.426 947.972 99.4659 948.392 98.3636H951.46C950.949 99.9545 950.142 101.364 949.04 102.591C947.949 103.818 946.642 104.784 945.119 105.489C943.597 106.193 941.926 106.545 940.108 106.545ZM956.702 106L961.065 79.8182H964.116L959.753 106H956.702ZM963.69 75.267C963.054 75.267 962.514 75.0511 962.071 74.6193C961.639 74.1875 961.429 73.6648 961.44 73.0511C961.463 72.4716 961.696 71.9716 962.139 71.5511C962.594 71.1193 963.128 70.9034 963.741 70.9034C964.378 70.9034 964.918 71.125 965.361 71.5682C965.804 72 966.014 72.5227 965.991 73.1364C965.98 73.7159 965.747 74.2159 965.293 74.6364C964.838 75.0568 964.304 75.267 963.69 75.267ZM978.294 106.545C975.851 106.545 973.834 105.977 972.243 104.841C970.652 103.693 969.538 102.108 968.902 100.085C968.266 98.0511 968.169 95.7102 968.612 93.0625C969.055 90.4261 969.93 88.0852 971.237 86.0398C972.544 83.983 974.158 82.375 976.078 81.2159C977.999 80.0455 980.084 79.4602 982.334 79.4602C983.754 79.4602 985.084 79.7216 986.322 80.2443C987.561 80.7557 988.612 81.5455 989.476 82.6136C990.351 83.6705 990.959 85.0057 991.3 86.6193C991.641 88.2216 991.629 90.1193 991.266 92.3125L991.027 93.8125H970.572L970.999 91.1364H988.368C988.652 89.4545 988.572 87.9432 988.129 86.6023C987.686 85.2614 986.93 84.1989 985.862 83.4148C984.805 82.6193 983.493 82.2216 981.925 82.2216C980.322 82.2216 978.805 82.6705 977.374 83.5682C975.953 84.4659 974.749 85.6364 973.76 87.0795C972.783 88.5114 972.152 90.0398 971.868 91.6648L971.527 93.6761C971.163 95.892 971.209 97.75 971.663 99.25C972.118 100.739 972.942 101.864 974.135 102.625C975.328 103.386 976.857 103.767 978.72 103.767C979.97 103.767 981.101 103.574 982.112 103.188C983.124 102.801 984.004 102.284 984.754 101.636C985.504 100.977 986.107 100.256 986.561 99.4716L989.271 100.409C988.692 101.511 987.874 102.528 986.817 103.46C985.771 104.392 984.527 105.142 983.084 105.71C981.652 106.267 980.055 106.545 978.294 106.545ZM986.595 76.8182L983.357 71.9261L978.533 76.8182H975.464L975.499 76.5966L982.385 69.7273H984.942L989.595 76.5966L989.544 76.8182H986.595ZM1001.41 89.6364L998.702 106H995.668L1000.03 79.8182H1002.98L1002.3 83.9261H1002.57C1003.39 82.5852 1004.52 81.5114 1005.96 80.7045C1007.42 79.8864 1009.11 79.4773 1011.03 79.4773C1012.78 79.4773 1014.25 79.8466 1015.46 80.5852C1016.67 81.3125 1017.54 82.3864 1018.05 83.8068C1018.57 85.2273 1018.66 86.9716 1018.32 89.0398L1015.47 106H1012.44L1015.24 89.2273C1015.59 87.0909 1015.28 85.3977 1014.3 84.1477C1013.33 82.8864 1011.84 82.2557 1009.82 82.2557C1008.44 82.2557 1007.16 82.5511 1005.98 83.142C1004.81 83.733 1003.82 84.5852 1003.01 85.6989C1002.21 86.8011 1001.67 88.1136 1001.41 89.6364ZM1033.62 106.545C1031.26 106.545 1029.31 105.96 1027.78 104.79C1026.24 103.619 1025.17 102.017 1024.56 99.983C1023.95 97.9375 1023.87 95.6193 1024.3 93.0284C1024.73 90.392 1025.6 88.0568 1026.91 86.0227C1028.21 83.9773 1029.83 82.375 1031.75 81.2159C1033.68 80.0455 1035.79 79.4602 1038.07 79.4602C1039.83 79.4602 1041.37 79.8011 1042.67 80.483C1043.98 81.1534 1044.99 82.1023 1045.71 83.3295C1046.42 84.5455 1046.77 85.9659 1046.73 87.5909H1043.66C1043.58 86.0795 1043.03 84.8068 1042.01 83.7727C1041 82.7386 1039.57 82.2216 1037.71 82.2216C1036.02 82.2216 1034.45 82.6761 1033.01 83.5852C1031.57 84.483 1030.35 85.7386 1029.35 87.3523C1028.36 88.9545 1027.69 90.8125 1027.35 92.9261C1026.99 95.0511 1027.02 96.9318 1027.45 98.5682C1027.88 100.193 1028.66 101.466 1029.77 102.386C1030.9 103.307 1032.32 103.767 1034.03 103.767C1035.2 103.767 1036.31 103.551 1037.34 103.119C1038.37 102.676 1039.29 102.051 1040.08 101.244C1040.88 100.426 1041.49 99.4659 1041.91 98.3636H1044.98C1044.46 99.9545 1043.66 101.364 1042.56 102.591C1041.46 103.818 1040.16 104.784 1038.63 105.489C1037.11 106.193 1035.44 106.545 1033.62 106.545ZM1050.22 106L1054.58 79.8182H1057.63L1053.27 106H1050.22ZM1057.21 75.267C1056.57 75.267 1056.03 75.0511 1055.59 74.6193C1055.15 74.1875 1054.94 73.6648 1054.96 73.0511C1054.98 72.4716 1055.21 71.9716 1055.65 71.5511C1056.11 71.1193 1056.64 70.9034 1057.26 70.9034C1057.89 70.9034 1058.43 71.125 1058.88 71.5682C1059.32 72 1059.53 72.5227 1059.51 73.1364C1059.5 73.7159 1059.26 74.2159 1058.81 74.6364C1058.35 75.0568 1057.82 75.267 1057.21 75.267ZM1068.54 106.597C1066.96 106.597 1065.57 106.29 1064.36 105.676C1063.16 105.051 1062.26 104.153 1061.67 102.983C1061.09 101.801 1060.93 100.369 1061.19 98.6875C1061.42 97.392 1061.85 96.3011 1062.49 95.4148C1063.13 94.5284 1063.95 93.8011 1064.94 93.233C1065.93 92.6534 1067.07 92.1989 1068.35 91.8693C1069.63 91.5398 1071.03 91.2898 1072.54 91.1193C1074.02 90.9375 1075.28 90.7784 1076.33 90.642C1077.37 90.5057 1078.18 90.2898 1078.76 89.9943C1079.34 89.6989 1079.69 89.2216 1079.8 88.5625L1079.91 87.9489C1080.2 86.1648 1079.93 84.7614 1079.09 83.7386C1078.25 82.7045 1076.84 82.1875 1074.86 82.1875C1072.97 82.1875 1071.34 82.608 1069.95 83.4489C1068.58 84.2784 1067.55 85.25 1066.88 86.3636L1064.19 85.3239C1065.01 83.892 1066.01 82.75 1067.21 81.8977C1068.4 81.0341 1069.68 80.4148 1071.04 80.0398C1072.41 79.6534 1073.75 79.4602 1075.08 79.4602C1076.08 79.4602 1077.1 79.5909 1078.13 79.8523C1079.17 80.1136 1080.09 80.5682 1080.91 81.2159C1081.74 81.8523 1082.35 82.7443 1082.74 83.892C1083.13 85.0284 1083.19 86.4716 1082.91 88.2216L1079.94 106H1076.91L1077.61 101.858H1077.42C1076.94 102.631 1076.28 103.381 1075.44 104.108C1074.61 104.835 1073.62 105.432 1072.46 105.898C1071.3 106.364 1069.99 106.597 1068.54 106.597ZM1069.3 103.818C1070.92 103.818 1072.38 103.46 1073.68 102.744C1075 102.028 1076.08 101.08 1076.92 99.8977C1077.78 98.7045 1078.32 97.392 1078.56 95.9602L1079.19 92.1761C1078.94 92.392 1078.53 92.5852 1077.96 92.7557C1077.41 92.9261 1076.78 93.0795 1076.07 93.2159C1075.38 93.3409 1074.68 93.4489 1073.97 93.5398C1073.28 93.6307 1072.67 93.7102 1072.13 93.7784C1070.62 93.9602 1069.3 94.2443 1068.18 94.6307C1067.07 95.017 1066.17 95.5511 1065.5 96.233C1064.83 96.9034 1064.41 97.767 1064.24 98.8239C1063.98 100.415 1064.33 101.648 1065.28 102.523C1066.25 103.386 1067.59 103.818 1069.3 103.818ZM1090.77 106.256C1090.09 106.256 1089.52 106.017 1089.05 105.54C1088.6 105.062 1088.37 104.483 1088.37 103.801C1088.37 103.119 1088.62 102.545 1089.12 102.08C1089.62 101.614 1090.2 101.381 1090.88 101.381C1091.55 101.381 1092.12 101.619 1092.6 102.097C1093.07 102.574 1093.3 103.142 1093.28 103.801C1093.27 104.256 1093.14 104.67 1092.9 105.045C1092.68 105.409 1092.38 105.705 1092 105.932C1091.64 106.148 1091.23 106.256 1090.77 106.256Z" fill="white"/>
<path d="M13.358 21L14.4091 14.8636C14.7121 13.1212 15.3466 11.3409 16.3125 9.52273C17.2973 7.70455 18.4811 5.99053 19.8636 4.38068C21.2652 2.77083 22.7235 1.42613 24.2386 0.34659L29.0114 3.5C27.6667 5.16667 26.5019 6.90909 25.517 8.72727C24.5322 10.5455 23.8598 12.572 23.5 14.8068L22.4489 21H13.358ZM27.7045 21L28.7557 14.8636C29.0587 13.1212 29.6932 11.3409 30.6591 9.52273C31.6439 7.70455 32.8277 5.99053 34.2102 4.38068C35.6117 2.77083 37.0701 1.42613 38.5852 0.34659L43.358 3.5C42.0133 5.16667 40.8485 6.90909 39.8636 8.72727C38.8788 10.5455 38.2064 12.572 37.8466 14.8068L36.7955 21H27.7045Z" fill="#F4C91D" fill-opacity="0.5"/>
<path d="M1106.99 52.8182L1106 58.9545C1105.72 60.697 1105.08 62.4773 1104.1 64.2955C1103.13 66.0947 1101.96 67.7992 1100.57 69.4091C1099.19 71 1097.75 72.3542 1096.26 73.4716L1091.37 70.3182C1092.56 68.822 1093.67 67.1648 1094.69 65.3466C1095.73 63.5284 1096.45 61.4167 1096.85 59.0114L1097.9 52.8182H1106.99ZM1121.28 52.8182L1120.26 58.9545C1120 60.697 1119.37 62.4773 1118.39 64.2955C1117.4 66.0947 1116.22 67.7992 1114.84 69.4091C1113.45 71 1112.01 72.3542 1110.52 73.4716L1105.63 70.3182C1106.82 68.822 1107.93 67.1648 1108.95 65.3466C1110 63.5284 1110.73 61.4167 1111.14 59.0114L1112.19 52.8182H1121.28Z" fill="#F4C91D" fill-opacity="0.5"/>
</svg>
