<svg width="435" height="126" viewBox="0 0 435 126" fill="none" xmlns="http://www.w3.org/2000/svg">
<path d="M8.128 17.6H0.768V11.2H22.528V17.6H15.168V56H8.128V17.6ZM35.8625 56.64C32.4065 56.64 29.7612 55.6587 27.9265 53.696C26.0918 51.7333 25.1745 48.96 25.1745 45.376V21.824C25.1745 18.24 26.0918 15.4667 27.9265 13.504C29.7612 11.5413 32.4065 10.56 35.8625 10.56C39.3185 10.56 41.9638 11.5413 43.7985 13.504C45.6332 15.4667 46.5505 18.24 46.5505 21.824V45.376C46.5505 48.96 45.6332 51.7333 43.7985 53.696C41.9638 55.6587 39.3185 56.64 35.8625 56.64ZM35.8625 50.24C38.2945 50.24 39.5105 48.768 39.5105 45.824V21.376C39.5105 18.432 38.2945 16.96 35.8625 16.96C33.4305 16.96 32.2145 18.432 32.2145 21.376V45.824C32.2145 48.768 33.4305 50.24 35.8625 50.24ZM51.3115 11.2H62.0635C65.5622 11.2 68.1862 12.1387 69.9355 14.016C71.6848 15.8933 72.5595 18.6453 72.5595 22.272V44.928C72.5595 48.5547 71.6848 51.3067 69.9355 53.184C68.1862 55.0613 65.5622 56 62.0635 56H51.3115V11.2ZM61.9355 49.6C63.0875 49.6 63.9622 49.2587 64.5595 48.576C65.1995 47.8933 65.5195 46.784 65.5195 45.248V21.952C65.5195 20.416 65.1995 19.3067 64.5595 18.624C63.9622 17.9413 63.0875 17.6 61.9355 17.6H58.3515V49.6H61.9355ZM82.6265 11.2H92.1625L99.4585 56H92.4185L91.1385 47.104V47.232H83.1385L81.8585 56H75.3305L82.6265 11.2ZM90.3065 41.152L87.1705 19.008H87.0425L83.9705 41.152H90.3065ZM111.839 56.64C108.425 56.64 105.844 55.68 104.095 53.76C102.345 51.7973 101.471 49.0027 101.471 45.376V42.816H108.127V45.888C108.127 48.7893 109.343 50.24 111.775 50.24C112.969 50.24 113.865 49.8987 114.463 49.216C115.103 48.4907 115.423 47.3387 115.423 45.76C115.423 43.8827 114.996 42.24 114.143 40.832C113.289 39.3813 111.711 37.6533 109.407 35.648C106.505 33.088 104.479 30.784 103.327 28.736C102.175 26.6453 101.599 24.2987 101.599 21.696C101.599 18.1547 102.495 15.424 104.286 13.504C106.079 11.5413 108.681 10.56 112.095 10.56C115.465 10.56 118.004 11.5413 119.711 13.504C121.46 15.424 122.335 18.1973 122.335 21.824V23.68H115.679V21.376C115.679 19.84 115.38 18.7307 114.783 18.048C114.185 17.3227 113.311 16.96 112.159 16.96C109.812 16.96 108.639 18.3893 108.639 21.248C108.639 22.8693 109.065 24.384 109.919 25.792C110.815 27.2 112.415 28.9067 114.719 30.912C117.663 33.472 119.689 35.7973 120.799 37.888C121.908 39.9787 122.463 42.432 122.463 45.248C122.463 48.9173 121.545 51.7333 119.711 53.696C117.919 55.6587 115.295 56.64 111.839 56.64ZM142.189 11.2H151.725L159.021 56H151.981L150.701 47.104V47.232H142.701L141.421 56H134.893L142.189 11.2ZM149.869 41.152L146.733 19.008H146.605L143.533 41.152H149.869ZM171.401 56.64C167.988 56.64 165.406 55.68 163.657 53.76C161.908 51.7973 161.033 49.0027 161.033 45.376V42.816H167.689V45.888C167.689 48.7893 168.905 50.24 171.337 50.24C172.532 50.24 173.428 49.8987 174.025 49.216C174.665 48.4907 174.985 47.3387 174.985 45.76C174.985 43.8827 174.558 42.24 173.705 40.832C172.852 39.3813 171.273 37.6533 168.969 35.648C166.068 33.088 164.041 30.784 162.889 28.736C161.737 26.6453 161.161 24.2987 161.161 21.696C161.161 18.1547 162.057 15.424 163.849 13.504C165.641 11.5413 168.244 10.56 171.657 10.56C175.028 10.56 177.566 11.5413 179.273 13.504C181.022 15.424 181.897 18.1973 181.897 21.824V23.68H175.241V21.376C175.241 19.84 174.942 18.7307 174.345 18.048C173.748 17.3227 172.873 16.96 171.721 16.96C169.374 16.96 168.201 18.3893 168.201 21.248C168.201 22.8693 168.628 24.384 169.481 25.792C170.377 27.2 171.977 28.9067 174.281 30.912C177.225 33.472 179.252 35.7973 180.361 37.888C181.47 39.9787 182.025 42.432 182.025 45.248C182.025 48.9173 181.108 51.7333 179.273 53.696C177.481 55.6587 174.857 56.64 171.401 56.64ZM205.464 56.64C202.05 56.64 199.469 55.68 197.72 53.76C195.97 51.7973 195.096 49.0027 195.096 45.376V42.816H201.752V45.888C201.752 48.7893 202.968 50.24 205.4 50.24C206.594 50.24 207.49 49.8987 208.088 49.216C208.728 48.4907 209.048 47.3387 209.048 45.76C209.048 43.8827 208.621 42.24 207.768 40.832C206.914 39.3813 205.336 37.6533 203.032 35.648C200.13 33.088 198.104 30.784 196.952 28.736C195.8 26.6453 195.224 24.2987 195.224 21.696C195.224 18.1547 196.12 15.424 197.911 13.504C199.704 11.5413 202.306 10.56 205.72 10.56C209.09 10.56 211.629 11.5413 213.336 13.504C215.085 15.424 215.96 18.1973 215.96 21.824V23.68H209.304V21.376C209.304 19.84 209.005 18.7307 208.408 18.048C207.81 17.3227 206.936 16.96 205.784 16.96C203.437 16.96 202.264 18.3893 202.264 21.248C202.264 22.8693 202.69 24.384 203.544 25.792C204.44 27.2 206.04 28.9067 208.344 30.912C211.288 33.472 213.314 35.7973 214.424 37.888C215.533 39.9787 216.088 42.432 216.088 45.248C216.088 48.9173 215.17 51.7333 213.336 53.696C211.544 55.6587 208.92 56.64 205.464 56.64ZM230.3 56.64C226.844 56.64 224.199 55.6587 222.364 53.696C220.529 51.7333 219.612 48.96 219.612 45.376V21.824C219.612 18.24 220.529 15.4667 222.364 13.504C224.199 11.5413 226.844 10.56 230.3 10.56C233.756 10.56 236.401 11.5413 238.236 13.504C240.071 15.4667 240.988 18.24 240.988 21.824V45.376C240.988 48.96 240.071 51.7333 238.236 53.696C236.401 55.6587 233.756 56.64 230.3 56.64ZM230.3 50.24C232.732 50.24 233.948 48.768 233.948 45.824V21.376C233.948 18.432 232.732 16.96 230.3 16.96C227.868 16.96 226.652 18.432 226.652 21.376V45.824C226.652 48.768 227.868 50.24 230.3 50.24ZM245.749 11.2H252.789V49.6H264.373V56H245.749V11.2ZM277.989 56.64C274.576 56.64 271.973 55.68 270.181 53.76C268.389 51.7973 267.493 49.0027 267.493 45.376V11.2H274.533V45.888C274.533 47.424 274.832 48.5333 275.429 49.216C276.069 49.8987 276.965 50.24 278.117 50.24C279.269 50.24 280.144 49.8987 280.741 49.216C281.381 48.5333 281.701 47.424 281.701 45.888V11.2H288.485V45.376C288.485 49.0027 287.589 51.7973 285.797 53.76C284.005 55.68 281.402 56.64 277.989 56.64ZM307.131 26.304V21.12C307.131 18.3467 305.958 16.96 303.611 16.96C301.264 16.96 300.091 18.3467 300.091 21.12V46.144C300.091 48.8747 301.264 50.24 303.611 50.24C305.958 50.24 307.131 48.8747 307.131 46.144V39.296H313.787V45.632C313.787 48.832 313.04 51.392 311.547 53.312C310.054 55.1893 307.899 56.2773 305.083 56.576V58.496C306.534 58.496 307.622 58.7307 308.347 59.2C309.115 59.6693 309.499 60.4373 309.499 61.504C309.499 63.0827 308.966 64.128 307.899 64.64C306.832 65.152 305.19 65.408 302.971 65.408C301.008 65.408 299.494 65.1307 298.427 64.576C297.36 64.0213 296.827 63.0613 296.827 61.696V61.056H301.563V61.568C301.563 61.9947 301.691 62.3147 301.947 62.528C302.246 62.7413 302.587 62.848 302.971 62.848C303.568 62.848 303.995 62.72 304.251 62.464C304.507 62.2507 304.635 61.8667 304.635 61.312C304.635 60.7147 304.443 60.288 304.059 60.032C303.675 59.776 303.078 59.648 302.267 59.648H301.947V56.576C299.046 56.2773 296.827 55.1893 295.291 53.312C293.798 51.4347 293.051 48.8747 293.051 45.632V21.568C293.051 18.0693 293.926 15.36 295.675 13.44C297.467 11.52 300.048 10.56 303.419 10.56C306.79 10.56 309.35 11.52 311.099 13.44C312.891 15.36 313.787 18.0693 313.787 21.568V26.304H307.131ZM328.3 56.64C324.844 56.64 322.199 55.6587 320.364 53.696C318.529 51.7333 317.612 48.96 317.612 45.376V21.824C317.612 18.24 318.529 15.4667 320.364 13.504C322.199 11.5413 324.844 10.56 328.3 10.56C331.756 10.56 334.401 11.5413 336.236 13.504C338.071 15.4667 338.988 18.24 338.988 21.824V45.376C338.988 48.96 338.071 51.7333 336.236 53.696C334.401 55.6587 331.756 56.64 328.3 56.64ZM328.3 50.24C330.732 50.24 331.948 48.768 331.948 45.824V21.376C331.948 18.432 330.732 16.96 328.3 16.96C325.868 16.96 324.652 18.432 324.652 21.376V45.824C324.652 48.768 325.868 50.24 328.3 50.24ZM319.404 6.4C320.215 4.56533 321.089 3.22133 322.028 2.368C322.967 1.472 324.033 1.024 325.228 1.024C325.996 1.024 326.657 1.13066 327.212 1.344C327.809 1.55733 328.428 1.856 329.068 2.24C329.452 2.45333 329.815 2.64533 330.156 2.816C330.54 2.98667 330.903 3.072 331.244 3.072C331.756 3.072 332.204 2.88 332.588 2.496C332.972 2.112 333.377 1.472 333.804 0.575996L337.196 2.624C336.385 4.45867 335.511 5.824 334.572 6.72C333.633 7.57333 332.567 8 331.372 8C330.604 8 329.921 7.89333 329.324 7.68C328.769 7.46666 328.172 7.168 327.532 6.784C327.148 6.57066 326.764 6.37866 326.38 6.208C326.039 6.03733 325.697 5.952 325.356 5.952C324.844 5.952 324.396 6.144 324.012 6.528C323.628 6.912 323.223 7.552 322.796 8.448L319.404 6.4ZM343.749 11.2H362.949V17.6H350.789V29.44H360.453V35.84H350.789V49.6H362.949V56H343.749V11.2ZM376.276 56.64C372.863 56.64 370.281 55.68 368.532 53.76C366.783 51.7973 365.908 49.0027 365.908 45.376V42.816H372.564V45.888C372.564 48.7893 373.78 50.24 376.212 50.24C377.407 50.24 378.303 49.8987 378.9 49.216C379.54 48.4907 379.86 47.3387 379.86 45.76C379.86 43.8827 379.433 42.24 378.58 40.832C377.727 39.3813 376.148 37.6533 373.844 35.648C370.943 33.088 368.916 30.784 367.764 28.736C366.612 26.6453 366.036 24.2987 366.036 21.696C366.036 18.1547 366.932 15.424 368.724 13.504C370.516 11.5413 373.119 10.56 376.532 10.56C379.903 10.56 382.441 11.5413 384.148 13.504C385.897 15.424 386.772 18.1973 386.772 21.824V23.68H380.116V21.376C380.116 19.84 379.817 18.7307 379.22 18.048C378.623 17.3227 377.748 16.96 376.596 16.96C374.249 16.96 373.076 18.3893 373.076 21.248C373.076 22.8693 373.503 24.384 374.356 25.792C375.252 27.2 376.852 28.9067 379.156 30.912C382.1 33.472 384.127 35.7973 385.236 37.888C386.345 39.9787 386.9 42.432 386.9 45.248C386.9 48.9173 385.983 51.7333 384.148 53.696C382.356 55.6587 379.732 56.64 376.276 56.64ZM2.624 80.2H11.456L18.304 107.016H18.432V80.2H24.704V125H17.472L9.024 92.296H8.896V125H2.624V80.2ZM35.3765 80.2H44.9125L52.2085 125H45.1685L43.8885 116.104V116.232H35.8885L34.6085 125H28.0805L35.3765 80.2ZM43.0565 110.152L39.9205 88.008H39.7925L36.7205 110.152H43.0565ZM65.874 80.2H76.242C79.7407 80.2 82.3647 81.1387 84.114 83.016C85.8633 84.8933 86.738 87.6453 86.738 91.272V95.688C86.738 99.3147 85.8633 102.067 84.114 103.944C82.3647 105.821 79.7407 106.76 76.242 106.76H72.914V125H65.874V80.2ZM76.242 100.36C77.394 100.36 78.2473 100.04 78.802 99.4C79.3993 98.76 79.698 97.672 79.698 96.136V90.824C79.698 89.288 79.3993 88.2 78.802 87.56C78.2473 86.92 77.394 86.6 76.242 86.6H72.914V100.36H76.242ZM93.7515 80.2H103.288L110.584 125H103.544L102.264 116.104V116.232H94.2635L92.9835 125H86.4555L93.7515 80.2ZM101.432 110.152L98.2955 88.008H98.1675L95.0955 110.152H101.432ZM113.999 80.2H121.039V118.6H132.623V125H113.999V80.2ZM135.999 80.2H146.047L150.527 112.264H150.655L155.135 80.2H165.183V125H158.527V91.08H158.399L153.279 125H147.391L142.271 91.08H142.143V125H135.999V80.2ZM175.877 80.2H185.413L192.709 125H185.669L184.389 116.104V116.232H176.389L175.109 125H168.581L175.877 80.2ZM183.557 110.152L180.421 88.008H180.293L177.22 110.152H183.557ZM206.374 80.2H217.126C220.625 80.2 223.249 81.1387 224.998 83.016C226.747 84.8933 227.622 87.6453 227.622 91.272V113.928C227.622 117.555 226.747 120.307 224.998 122.184C223.249 124.061 220.625 125 217.126 125H206.374V80.2ZM216.998 118.6C218.15 118.6 219.025 118.259 219.622 117.576C220.262 116.893 220.582 115.784 220.582 114.248V90.952C220.582 89.416 220.262 88.3067 219.622 87.624C219.025 86.9413 218.15 86.6 216.998 86.6H213.414V118.6H216.998ZM237.689 80.2H247.225L254.521 125H247.481L246.201 116.104V116.232H238.201L236.921 125H230.393L237.689 80.2ZM245.369 110.152L242.233 88.008H242.105L239.033 110.152H245.369ZM277.339 125.64C273.925 125.64 271.344 124.68 269.595 122.76C267.845 120.797 266.971 118.003 266.971 114.376V111.816H273.627V114.888C273.627 117.789 274.843 119.24 277.275 119.24C278.469 119.24 279.365 118.899 279.963 118.216C280.603 117.491 280.923 116.339 280.923 114.76C280.923 112.883 280.496 111.24 279.643 109.832C278.789 108.381 277.211 106.653 274.907 104.648C272.005 102.088 269.979 99.784 268.827 97.736C267.675 95.6453 267.099 93.2987 267.099 90.696C267.099 87.1547 267.995 84.424 269.786 82.504C271.579 80.5413 274.181 79.56 277.595 79.56C280.965 79.56 283.504 80.5413 285.211 82.504C286.96 84.424 287.835 87.1973 287.835 90.824V92.68H281.179V90.376C281.179 88.84 280.88 87.7307 280.283 87.048C279.685 86.3227 278.811 85.96 277.659 85.96C275.312 85.96 274.139 87.3893 274.139 90.248C274.139 91.8693 274.565 93.384 275.419 94.792C276.315 96.2 277.915 97.9067 280.219 99.912C283.163 102.472 285.189 104.797 286.299 106.888C287.408 108.979 287.963 111.432 287.963 114.248C287.963 117.917 287.045 120.733 285.211 122.696C283.419 124.659 280.795 125.64 277.339 125.64ZM302.239 125.64C298.826 125.64 296.223 124.68 294.431 122.76C292.639 120.797 291.743 118.003 291.743 114.376V80.2H298.783V114.888C298.783 116.424 299.082 117.533 299.679 118.216C300.319 118.899 301.215 119.24 302.367 119.24C303.519 119.24 304.394 118.899 304.991 118.216C305.631 117.533 305.951 116.424 305.951 114.888V80.2H312.735V114.376C312.735 118.003 311.839 120.797 310.047 122.76C308.255 124.68 305.652 125.64 302.239 125.64ZM323.064 80.2H332.6L339.896 125H332.856L331.576 116.104V116.232H323.576L322.296 125H315.768L323.064 80.2ZM330.744 110.152L327.608 88.008H327.48L324.408 110.152H330.744ZM353.562 80.2H363.61L368.09 112.264H368.218L372.698 80.2H382.746V125H376.09V91.08H375.962L370.842 125H364.954L359.834 91.08H359.706V125H353.562V80.2ZM393.439 80.2H402.975L410.271 125H403.231L401.951 116.104V116.232H393.951L392.671 125H386.143L393.439 80.2ZM401.119 110.152L397.983 88.008H397.855L394.783 110.152H401.119ZM389.343 75.4C390.154 73.5653 391.028 72.2213 391.967 71.368C392.906 70.472 393.972 70.024 395.167 70.024C395.935 70.024 396.596 70.1307 397.151 70.344C397.748 70.5573 398.367 70.856 399.007 71.24C399.391 71.4533 399.754 71.6453 400.095 71.816C400.479 71.9867 400.842 72.072 401.183 72.072C401.695 72.072 402.143 71.88 402.527 71.496C402.911 71.112 403.316 70.472 403.743 69.576L407.135 71.624C406.324 73.4587 405.45 74.824 404.511 75.72C403.572 76.5733 402.506 77 401.311 77C400.543 77 399.86 76.8933 399.263 76.68C398.708 76.4667 398.111 76.168 397.471 75.784C397.087 75.5707 396.703 75.3787 396.319 75.208C395.978 75.0373 395.636 74.952 395.295 74.952C394.783 74.952 394.335 75.144 393.951 75.528C393.567 75.912 393.162 76.552 392.735 77.448L389.343 75.4ZM423.738 125.64C420.282 125.64 417.636 124.659 415.802 122.696C413.967 120.733 413.049 117.96 413.049 114.376V90.824C413.049 87.24 413.967 84.4667 415.802 82.504C417.636 80.5413 420.282 79.56 423.738 79.56C427.194 79.56 429.839 80.5413 431.674 82.504C433.508 84.4667 434.426 87.24 434.426 90.824V114.376C434.426 117.96 433.508 120.733 431.674 122.696C429.839 124.659 427.194 125.64 423.738 125.64ZM423.738 119.24C426.17 119.24 427.385 117.768 427.385 114.824V90.376C427.385 87.432 426.17 85.96 423.738 85.96C421.306 85.96 420.09 87.432 420.09 90.376V114.824C420.09 117.768 421.306 119.24 423.738 119.24Z" fill="url(#paint0_radial_2753_10104)"/>
<defs>
<radialGradient id="paint0_radial_2753_10104" cx="0" cy="0" r="1" gradientUnits="userSpaceOnUse" gradientTransform="translate(269.564 55.7474) rotate(-29.069) scale(783.328 176.935)">
<stop stop-color="white"/>
<stop offset="1" stop-color="#999999"/>
</radialGradient>
</defs>
</svg>
