<svg width="668" height="159" viewBox="0 0 668 159" fill="none" xmlns="http://www.w3.org/2000/svg">
<path d="M10.176 10.2H0.056V1.4H29.976V10.2H19.856V63H10.176V10.2ZM34.6627 1.4H49.0067C53.9934 1.4 57.6307 2.57333 59.9187 4.92C62.2067 7.208 63.3507 10.7573 63.3507 15.568V19.352C63.3507 25.7467 61.2387 29.7947 57.0147 31.496V31.672C59.3614 32.376 61.004 33.8133 61.9427 35.984C62.94 38.1547 63.4387 41.0587 63.4387 44.696V55.52C63.4387 57.28 63.4974 58.7173 63.6147 59.832C63.732 60.888 64.0254 61.944 64.4947 63H54.6387C54.2867 62.0027 54.052 61.064 53.9347 60.184C53.8174 59.304 53.7587 57.72 53.7587 55.432V44.168C53.7587 41.352 53.2894 39.3867 52.3507 38.272C51.4707 37.1573 49.916 36.6 47.6867 36.6H44.3427V63H34.6627V1.4ZM47.8627 27.8C49.7987 27.8 51.236 27.3013 52.1747 26.304C53.172 25.3067 53.6707 23.6347 53.6707 21.288V16.536C53.6707 14.3067 53.26 12.6933 52.4387 11.696C51.676 10.6987 50.444 10.2 48.7427 10.2H44.3427V27.8H47.8627ZM70.1549 1.4H96.5549V10.2H79.8349V26.48H93.1229V35.28H79.8349V54.2H96.5549V63H70.1549V1.4ZM102.124 1.4H111.804V63H102.124V1.4ZM119.053 1.4H131.197L140.613 38.272H140.789V1.4H149.413V63H139.469L127.853 18.032H127.677V63H119.053V1.4ZM164.088 1.4H177.2L187.232 63H177.552L175.792 50.768V50.944H164.792L163.032 63H154.056L164.088 1.4ZM174.648 42.584L170.336 12.136H170.16L165.936 42.584H174.648ZM191.928 1.4H205.744L211.904 45.488H212.08L218.24 1.4H232.056V63H222.904V16.36H222.728L215.688 63H207.592L200.552 16.36H200.376V63H191.928V1.4ZM239.28 1.4H265.68V10.2H248.96V26.48H262.248V35.28H248.96V54.2H265.68V63H239.28V1.4ZM271.249 1.4H283.393L292.809 38.272H292.985V1.4H301.609V63H291.665L280.049 18.032H279.873V63H271.249V1.4ZM316.371 10.2H306.251V1.4H336.171V10.2H326.051V63H316.371V10.2ZM354.506 63.88C349.754 63.88 346.117 62.5307 343.594 59.832C341.072 57.1333 339.81 53.32 339.81 48.392V16.008C339.81 11.08 341.072 7.26666 343.594 4.568C346.117 1.86933 349.754 0.519997 354.506 0.519997C359.258 0.519997 362.896 1.86933 365.418 4.568C367.941 7.26666 369.202 11.08 369.202 16.008V48.392C369.202 53.32 367.941 57.1333 365.418 59.832C362.896 62.5307 359.258 63.88 354.506 63.88ZM354.506 55.08C357.85 55.08 359.522 53.056 359.522 49.008V15.392C359.522 11.344 357.85 9.32 354.506 9.32C351.162 9.32 349.49 11.344 349.49 15.392V49.008C349.49 53.056 351.162 55.08 354.506 55.08ZM389.842 1.4H416.242V10.2H399.522V26.48H412.81V35.28H399.522V54.2H416.242V63H389.842V1.4ZM430.519 31.496L419.871 1.4H430.079L436.591 21.288H436.767L443.455 1.4H452.607L441.959 31.496L453.135 63H442.927L435.887 41.528H435.711L428.495 63H419.343L430.519 31.496ZM469.998 63.88C465.363 63.88 461.814 62.56 459.35 59.92C456.945 57.28 455.742 53.5547 455.742 48.744V15.656C455.742 10.8453 456.945 7.12 459.35 4.48C461.814 1.84 465.363 0.519997 469.998 0.519997C474.633 0.519997 478.153 1.84 480.558 4.48C483.022 7.12 484.254 10.8453 484.254 15.656V22.168H475.102V15.04C475.102 11.2267 473.489 9.32 470.262 9.32C467.035 9.32 465.422 11.2267 465.422 15.04V49.448C465.422 53.2027 467.035 55.08 470.262 55.08C473.489 55.08 475.102 53.2027 475.102 49.448V40.032H484.254V48.744C484.254 53.5547 483.022 57.28 480.558 59.92C478.153 62.56 474.633 63.88 469.998 63.88ZM490.046 1.4H499.726V54.2H515.654V63H490.046V1.4ZM534.376 63.88C529.682 63.88 526.104 62.56 523.64 59.92C521.176 57.2213 519.944 53.3787 519.944 48.392V1.4H529.623V49.096C529.623 51.208 530.034 52.7333 530.856 53.672C531.736 54.6107 532.968 55.08 534.552 55.08C536.136 55.08 537.338 54.6107 538.16 53.672C539.04 52.7333 539.48 51.208 539.48 49.096V1.4H548.808V48.392C548.808 53.3787 547.576 57.2213 545.112 59.92C542.648 62.56 539.069 63.88 534.376 63.88ZM568.286 63.88C563.592 63.88 560.043 62.56 557.638 59.92C555.232 57.2213 554.03 53.3787 554.03 48.392V44.872H563.182V49.096C563.182 53.0853 564.854 55.08 568.198 55.08C569.84 55.08 571.072 54.6107 571.894 53.672C572.774 52.6747 573.214 51.0907 573.214 48.92C573.214 46.3387 572.627 44.08 571.454 42.144C570.28 40.1493 568.11 37.7733 564.942 35.016C560.952 31.496 558.166 28.328 556.582 25.512C554.998 22.6373 554.206 19.4107 554.206 15.832C554.206 10.9627 555.438 7.208 557.902 4.568C560.366 1.86933 563.944 0.519997 568.638 0.519997C573.272 0.519997 576.763 1.86933 579.11 4.568C581.515 7.208 582.718 11.0213 582.718 16.008V18.56H573.566V15.392C573.566 13.28 573.155 11.7547 572.334 10.816C571.512 9.81866 570.31 9.32 568.726 9.32C565.499 9.32 563.886 11.2853 563.886 15.216C563.886 17.4453 564.472 19.528 565.646 21.464C566.878 23.4 569.078 25.7467 572.246 28.504C576.294 32.024 579.08 35.2213 580.606 38.096C582.131 40.9707 582.894 44.344 582.894 48.216C582.894 53.2613 581.632 57.1333 579.11 59.832C576.646 62.5307 573.038 63.88 568.286 63.88ZM588.444 1.4H598.124V63H588.444V1.4ZM602.822 1.4H612.59L618.926 49.184H619.102L625.438 1.4H634.326L624.998 63H612.15L602.822 1.4ZM652.795 63.88C648.043 63.88 644.406 62.5307 641.883 59.832C639.361 57.1333 638.099 53.32 638.099 48.392V16.008C638.099 11.08 639.361 7.26666 641.883 4.568C644.406 1.86933 648.043 0.519997 652.795 0.519997C657.547 0.519997 661.185 1.86933 663.707 4.568C666.23 7.26666 667.491 11.08 667.491 16.008V48.392C667.491 53.32 666.23 57.1333 663.707 59.832C661.185 62.5307 657.547 63.88 652.795 63.88ZM652.795 55.08C656.139 55.08 657.811 53.056 657.811 49.008V15.392C657.811 11.344 656.139 9.32 652.795 9.32C649.451 9.32 647.779 11.344 647.779 15.392V49.008C647.779 53.056 649.451 55.08 652.795 55.08ZM2.608 96.4H16.864C21.6747 96.4 25.2827 97.6907 27.688 100.272C30.0933 102.853 31.296 106.637 31.296 111.624V117.696C31.296 122.683 30.0933 126.467 27.688 129.048C25.2827 131.629 21.6747 132.92 16.864 132.92H12.288V158H2.608V96.4ZM16.864 124.12C18.448 124.12 19.6213 123.68 20.384 122.8C21.2053 121.92 21.616 120.424 21.616 118.312V111.008C21.616 108.896 21.2053 107.4 20.384 106.52C19.6213 105.64 18.448 105.2 16.864 105.2H12.288V124.12H16.864ZM40.9396 96.4H54.0516L64.0836 158H54.4036L52.6436 145.768V145.944H41.6436L39.8836 158H30.9076L40.9396 96.4ZM51.4996 137.584L47.1876 107.136H47.0116L42.7876 137.584H51.4996ZM68.7799 96.4H83.1239C88.1105 96.4 91.7479 97.5733 94.0359 99.92C96.3239 102.208 97.4679 105.757 97.4679 110.568V114.352C97.4679 120.747 95.3559 124.795 91.1319 126.496V126.672C93.4785 127.376 95.1212 128.813 96.0599 130.984C97.0572 133.155 97.5559 136.059 97.5559 139.696V150.52C97.5559 152.28 97.6145 153.717 97.7319 154.832C97.8492 155.888 98.1425 156.944 98.6119 158H88.7559C88.4039 157.003 88.1692 156.064 88.0519 155.184C87.9345 154.304 87.8759 152.72 87.8759 150.432V139.168C87.8759 136.352 87.4065 134.387 86.4679 133.272C85.5879 132.157 84.0332 131.6 81.8039 131.6H78.4599V158H68.7799V96.4ZM81.9799 122.8C83.9159 122.8 85.3532 122.301 86.2919 121.304C87.2892 120.307 87.7879 118.635 87.7879 116.288V111.536C87.7879 109.307 87.3772 107.693 86.5559 106.696C85.7932 105.699 84.5612 105.2 82.8599 105.2H78.4599V122.8H81.9799ZM111.752 96.4H124.864L134.896 158H125.216L123.456 145.768V145.944H112.456L110.696 158H101.72L111.752 96.4ZM122.312 137.584L118 107.136H117.824L113.6 137.584H122.312ZM167.678 158.88C162.926 158.88 159.289 157.531 156.766 154.832C154.243 152.133 152.982 148.32 152.982 143.392V111.008C152.982 106.08 154.243 102.267 156.766 99.568C159.289 96.8693 162.926 95.52 167.678 95.52C172.43 95.52 176.067 96.8693 178.59 99.568C181.113 102.267 182.374 106.08 182.374 111.008V143.392C182.374 148.32 181.113 152.133 178.59 154.832C176.067 157.531 172.43 158.88 167.678 158.88ZM167.678 150.08C171.022 150.08 172.694 148.056 172.694 144.008V110.392C172.694 106.344 171.022 104.32 167.678 104.32C164.334 104.32 162.662 106.344 162.662 110.392V144.008C162.662 148.056 164.334 150.08 167.678 150.08ZM201.505 158.88C196.811 158.88 193.262 157.56 190.857 154.92C188.451 152.221 187.249 148.379 187.249 143.392V139.872H196.401V144.096C196.401 148.085 198.073 150.08 201.417 150.08C203.059 150.08 204.291 149.611 205.113 148.672C205.993 147.675 206.433 146.091 206.433 143.92C206.433 141.339 205.846 139.08 204.673 137.144C203.499 135.149 201.329 132.773 198.161 130.016C194.171 126.496 191.385 123.328 189.801 120.512C188.217 117.637 187.425 114.411 187.425 110.832C187.425 105.963 188.657 102.208 191.12 99.568C193.585 96.8693 197.163 95.52 201.857 95.52C206.491 95.52 209.982 96.8693 212.329 99.568C214.734 102.208 215.937 106.021 215.937 111.008V113.56H206.785V110.392C206.785 108.28 206.374 106.755 205.553 105.816C204.731 104.819 203.529 104.32 201.945 104.32C198.718 104.32 197.105 106.285 197.105 110.216C197.105 112.445 197.691 114.528 198.865 116.464C200.097 118.4 202.297 120.747 205.465 123.504C209.513 127.024 212.299 130.221 213.825 133.096C215.35 135.971 216.113 139.344 216.113 143.216C216.113 148.261 214.851 152.133 212.329 154.832C209.865 157.531 206.257 158.88 201.505 158.88ZM235.756 96.4H249.572L255.732 140.488H255.908L262.068 96.4H275.884V158H266.732V111.36H266.556L259.516 158H251.42L244.38 111.36H244.204V158H235.756V96.4ZM283.108 96.4H309.508V105.2H292.788V121.48H306.076V130.28H292.788V149.2H309.508V158H283.108V96.4ZM297.188 82.144H307.748L298.332 92.264H291.028L297.188 82.144ZM315.077 96.4H329.861C334.671 96.4 338.279 97.6907 340.685 100.272C343.09 102.853 344.293 106.637 344.293 111.624V142.776C344.293 147.763 343.09 151.547 340.685 154.128C338.279 156.709 334.671 158 329.861 158H315.077V96.4ZM329.685 149.2C331.269 149.2 332.471 148.731 333.293 147.792C334.173 146.853 334.613 145.328 334.613 143.216V111.184C334.613 109.072 334.173 107.547 333.293 106.608C332.471 105.669 331.269 105.2 329.685 105.2H324.757V149.2H329.685ZM350.827 96.4H360.507V158H350.827V96.4ZM381.396 158.88C376.762 158.88 373.212 157.56 370.748 154.92C368.343 152.28 367.14 148.555 367.14 143.744V110.656C367.14 105.845 368.343 102.12 370.748 99.48C373.212 96.84 376.762 95.52 381.396 95.52C386.031 95.52 389.551 96.84 391.956 99.48C394.42 102.12 395.652 105.845 395.652 110.656V117.168H386.5V110.04C386.5 106.227 384.887 104.32 381.66 104.32C378.434 104.32 376.82 106.227 376.82 110.04V144.448C376.82 148.203 378.434 150.08 381.66 150.08C384.887 150.08 386.5 148.203 386.5 144.448V135.032H395.652V143.744C395.652 148.555 394.42 152.28 391.956 154.92C389.551 157.56 386.031 158.88 381.396 158.88ZM415.608 158.88C410.856 158.88 407.218 157.531 404.696 154.832C402.173 152.133 400.912 148.32 400.912 143.392V111.008C400.912 106.08 402.173 102.267 404.696 99.568C407.218 96.8693 410.856 95.52 415.608 95.52C420.36 95.52 423.997 96.8693 426.52 99.568C429.042 102.267 430.304 106.08 430.304 111.008V143.392C430.304 148.32 429.042 152.133 426.52 154.832C423.997 157.531 420.36 158.88 415.608 158.88ZM415.608 150.08C418.952 150.08 420.624 148.056 420.624 144.008V110.392C420.624 106.344 418.952 104.32 415.608 104.32C412.264 104.32 410.592 106.344 410.592 110.392V144.008C410.592 148.056 412.264 150.08 415.608 150.08ZM449.434 158.88C444.741 158.88 441.192 157.56 438.786 154.92C436.381 152.221 435.178 148.379 435.178 143.392V139.872H444.33V144.096C444.33 148.085 446.002 150.08 449.346 150.08C450.989 150.08 452.221 149.611 453.042 148.672C453.922 147.675 454.362 146.091 454.362 143.92C454.362 141.339 453.776 139.08 452.602 137.144C451.429 135.149 449.258 132.773 446.09 130.016C442.101 126.496 439.314 123.328 437.73 120.512C436.146 117.637 435.354 114.411 435.354 110.832C435.354 105.963 436.586 102.208 439.05 99.568C441.514 96.8693 445.093 95.52 449.786 95.52C454.421 95.52 457.912 96.8693 460.258 99.568C462.664 102.208 463.866 106.021 463.866 111.008V113.56H454.714V110.392C454.714 108.28 454.304 106.755 453.482 105.816C452.661 104.819 451.458 104.32 449.874 104.32C446.648 104.32 445.034 106.285 445.034 110.216C445.034 112.445 445.621 114.528 446.794 116.464C448.026 118.4 450.226 120.747 453.394 123.504C457.442 127.024 460.229 130.221 461.754 133.096C463.28 135.971 464.042 139.344 464.042 143.216C464.042 148.261 462.781 152.133 460.258 154.832C457.794 157.531 454.186 158.88 449.434 158.88Z" fill="url(#paint0_radial_2745_4825)"/>
<defs>
<radialGradient id="paint0_radial_2745_4825" cx="0" cy="0" r="1" gradientUnits="userSpaceOnUse" gradientTransform="translate(300 63) rotate(-34.4273) scale(926.842 229.896)">
<stop stop-color="white"/>
<stop offset="1" stop-color="#999999"/>
</radialGradient>
</defs>
</svg>
