<svg width="30" height="22" viewBox="0 0 30 22" fill="none" xmlns="http://www.w3.org/2000/svg">
<path d="M29.8224 2.82125L21.7224 20.8213C21.5642 21.1725 21.3079 21.4706 20.9844 21.6797C20.6609 21.8888 20.2838 22 19.8986 22H1.99987C1.66591 21.9998 1.33731 21.916 1.04406 21.7562C0.750804 21.5964 0.502231 21.3658 0.321018 21.0852C0.139806 20.8047 0.0317224 20.4833 0.00663029 20.1503C-0.0184618 19.8173 0.0402362 19.4833 0.177369 19.1787L8.27737 1.17875C8.43555 0.827503 8.6918 0.529411 9.01533 0.320304C9.33886 0.111197 9.71589 -2.72239e-05 10.1011 4.99826e-09H27.9999C28.3339 -2.36087e-05 28.6627 0.083633 28.9561 0.243332C29.2495 0.403032 29.4983 0.633686 29.6796 0.914238C29.861 1.19479 29.9692 1.5163 29.9943 1.84942C30.0195 2.18254 29.9608 2.51665 29.8236 2.82125H29.8224Z" fill="#F4C91D"/>
</svg>
