<svg width="77" height="24" viewBox="0 0 77 24" fill="none" xmlns="http://www.w3.org/2000/svg">
<rect x="0.5" y="0.5" width="75.3636" height="23" rx="0.5" stroke="white" stroke-opacity="0.5"/>
<path fill-rule="evenodd" clip-rule="evenodd" d="M6 6H22.3636V18H6V6ZM8.18182 7.6364H9.27273C11.6827 7.6364 13.6364 9.59006 13.6364 12C13.6364 14.41 11.6827 16.3637 9.27273 16.3637H8.18182V7.6364ZM19.0909 7.6364H20.1818V16.3637H19.0909C16.6809 16.3637 14.7273 14.41 14.7273 12C14.7273 9.59006 16.6809 7.6364 19.0909 7.6364Z" fill="white"/>
<path d="M30.7783 7.27273L33.3692 14.6193H33.4715L36.0624 7.27273H37.1703L33.9658 16H32.8749L29.6703 7.27273H30.7783ZM39.5865 7.27273V16H38.5297V7.27273H39.5865ZM46.4782 9.45455C46.4271 9.02273 46.2197 8.6875 45.8561 8.44886C45.4924 8.21023 45.0464 8.09091 44.518 8.09091C44.1316 8.09091 43.7936 8.15341 43.5038 8.27841C43.2169 8.40341 42.9924 8.57528 42.8305 8.79403C42.6714 9.01278 42.5919 9.26136 42.5919 9.53977C42.5919 9.77273 42.6473 9.97301 42.7581 10.1406C42.8717 10.3054 43.0166 10.4432 43.1927 10.554C43.3689 10.6619 43.5535 10.7514 43.7467 10.8224C43.9399 10.8906 44.1174 10.946 44.2794 10.9886L45.1657 11.2273C45.393 11.2869 45.6458 11.3693 45.9242 11.4744C46.2055 11.5795 46.474 11.723 46.7296 11.9048C46.9882 12.0838 47.2012 12.3139 47.3689 12.5952C47.5365 12.8764 47.6203 13.2216 47.6203 13.6307C47.6203 14.1023 47.4967 14.5284 47.2495 14.9091C47.0052 15.2898 46.6473 15.5923 46.1757 15.8168C45.7069 16.0412 45.1373 16.1534 44.4669 16.1534C43.8419 16.1534 43.3007 16.0526 42.8433 15.8509C42.3887 15.6491 42.0308 15.3679 41.7694 15.0071C41.5109 14.6463 41.3646 14.2273 41.3305 13.75H42.4214C42.4498 14.0795 42.5606 14.3523 42.7538 14.5682C42.9498 14.7812 43.197 14.9403 43.4953 15.0455C43.7964 15.1477 44.1203 15.1989 44.4669 15.1989C44.8703 15.1989 45.2325 15.1335 45.5535 15.0028C45.8745 14.8693 46.1288 14.6847 46.3163 14.4489C46.5038 14.2102 46.5975 13.9318 46.5975 13.6136C46.5975 13.3239 46.5166 13.0881 46.3546 12.9062C46.1927 12.7244 45.9796 12.5767 45.7154 12.4631C45.4512 12.3494 45.1657 12.25 44.8589 12.1648L43.785 11.858C43.1032 11.6619 42.5635 11.3821 42.1657 11.0185C41.768 10.6548 41.5691 10.179 41.5691 9.59091C41.5691 9.10227 41.7012 8.67614 41.9654 8.3125C42.2325 7.94602 42.5904 7.66193 43.0393 7.46023C43.491 7.25568 43.9953 7.15341 44.5521 7.15341C45.1146 7.15341 45.6146 7.25426 46.0521 7.45597C46.4896 7.65483 46.8362 7.92756 47.0919 8.27415C47.3504 8.62074 47.4868 9.0142 47.501 9.45455H46.4782ZM50.4147 7.27273V16H49.3578V7.27273H50.4147ZM59.8973 11.6364C59.8973 12.5568 59.7311 13.3523 59.3987 14.0227C59.0663 14.6932 58.6103 15.2102 58.0308 15.5739C57.4512 15.9375 56.7893 16.1193 56.045 16.1193C55.3007 16.1193 54.6387 15.9375 54.0592 15.5739C53.4796 15.2102 53.0237 14.6932 52.6913 14.0227C52.3589 13.3523 52.1927 12.5568 52.1927 11.6364C52.1927 10.7159 52.3589 9.92045 52.6913 9.25C53.0237 8.57955 53.4796 8.0625 54.0592 7.69886C54.6387 7.33523 55.3007 7.15341 56.045 7.15341C56.7893 7.15341 57.4512 7.33523 58.0308 7.69886C58.6103 8.0625 59.0663 8.57955 59.3987 9.25C59.7311 9.92045 59.8973 10.7159 59.8973 11.6364ZM58.8745 11.6364C58.8745 10.8807 58.7481 10.2429 58.4953 9.72301C58.2453 9.20312 57.9058 8.80966 57.4768 8.54261C57.0507 8.27557 56.5734 8.14205 56.045 8.14205C55.5166 8.14205 55.0379 8.27557 54.6089 8.54261C54.1828 8.80966 53.8433 9.20312 53.5904 9.72301C53.3404 10.2429 53.2154 10.8807 53.2154 11.6364C53.2154 12.392 53.3404 13.0298 53.5904 13.5497C53.8433 14.0696 54.1828 14.4631 54.6089 14.7301C55.0379 14.9972 55.5166 15.1307 56.045 15.1307C56.5734 15.1307 57.0507 14.9972 57.4768 14.7301C57.9058 14.4631 58.2453 14.0696 58.4953 13.5497C58.7481 13.0298 58.8745 12.392 58.8745 11.6364ZM68.5947 7.27273V16H67.572L62.8163 9.14773H62.7311V16H61.6742V7.27273H62.697L67.4697 14.142H67.5549V7.27273H68.5947Z" fill="white"/>
</svg>
