<svg width="10" height="18" viewBox="0 0 10 18" fill="none" xmlns="http://www.w3.org/2000/svg">
<path d="M9.53073 15.9694C9.60041 16.039 9.65568 16.1218 9.6934 16.2128C9.73111 16.3039 9.75052 16.4014 9.75052 16.5C9.75052 16.5985 9.73111 16.6961 9.6934 16.7872C9.65568 16.8782 9.60041 16.9609 9.53073 17.0306C9.46104 17.1003 9.37832 17.1556 9.28727 17.1933C9.19623 17.231 9.09865 17.2504 9.0001 17.2504C8.90156 17.2504 8.80397 17.231 8.71293 17.1933C8.62188 17.1556 8.53916 17.1003 8.46948 17.0306L0.969476 9.53061C0.899744 9.46096 0.844425 9.37824 0.806682 9.2872C0.768939 9.19615 0.749512 9.09855 0.749512 8.99999C0.749512 8.90143 0.768939 8.80383 0.806682 8.71278C0.844425 8.62174 0.899744 8.53902 0.969476 8.46936L8.46948 0.969365C8.61021 0.828634 8.80108 0.749573 9.0001 0.749573C9.19912 0.749573 9.39 0.828634 9.53073 0.969365C9.67146 1.1101 9.75052 1.30097 9.75052 1.49999C9.75052 1.69901 9.67146 1.88988 9.53073 2.03061L2.56041 8.99999L9.53073 15.9694Z" fill="white"/>
</svg>
