<svg width="24" height="25" viewBox="0 0 24 25" fill="none" xmlns="http://www.w3.org/2000/svg">
<path d="M20.0306 9.64701L12.5306 17.147C12.4609 17.2167 12.3782 17.2721 12.2871 17.3098C12.1961 17.3475 12.0985 17.367 11.9999 17.367C11.9014 17.367 11.8038 17.3475 11.7127 17.3098C11.6217 17.2721 11.539 17.2167 11.4693 17.147L3.9693 9.64701C3.82857 9.50628 3.74951 9.31541 3.74951 9.11638C3.74951 8.91736 3.82857 8.72649 3.9693 8.58576C4.11003 8.44503 4.30091 8.36597 4.49993 8.36597C4.69895 8.36597 4.88982 8.44503 5.03055 8.58576L11.9999 15.5561L18.9693 8.58576C19.039 8.51608 19.1217 8.4608 19.2128 8.42309C19.3038 8.38538 19.4014 8.36597 19.4999 8.36597C19.5985 8.36597 19.6961 8.38538 19.7871 8.42309C19.8781 8.4608 19.9609 8.51608 20.0306 8.58576C20.1002 8.65544 20.1555 8.73817 20.1932 8.82921C20.2309 8.92026 20.2503 9.01784 20.2503 9.11638C20.2503 9.21493 20.2309 9.31251 20.1932 9.40356C20.1555 9.4946 20.1002 9.57733 20.0306 9.64701Z" fill="#9D9D9D"/>
</svg>
