<svg width="75" height="75" viewBox="0 0 75 75" fill="none" xmlns="http://www.w3.org/2000/svg">
<rect width="75" height="75" rx="37.5" fill="#F4C91D" fill-opacity="0.2"/>
<rect x="8" y="8" width="59" height="59" rx="29.5" fill="#F4C91D"/>
<path d="M45.3125 32.8125H42.1875V30.4688C42.1875 29.2255 41.6936 28.0333 40.8146 27.1542C39.9355 26.2751 38.7432 25.7812 37.5 25.7812C36.2568 25.7812 35.0645 26.2751 34.1854 27.1542C33.3064 28.0333 32.8125 29.2255 32.8125 30.4688V32.8125H29.6875C29.2731 32.8125 28.8757 32.9771 28.5826 33.2701C28.2896 33.5632 28.125 33.9606 28.125 34.375V45.3125C28.125 45.7269 28.2896 46.1243 28.5826 46.4174C28.8757 46.7104 29.2731 46.875 29.6875 46.875H45.3125C45.7269 46.875 46.1243 46.7104 46.4174 46.4174C46.7104 46.1243 46.875 45.7269 46.875 45.3125V34.375C46.875 33.9606 46.7104 33.5632 46.4174 33.2701C46.1243 32.9771 45.7269 32.8125 45.3125 32.8125ZM34.375 30.4688C34.375 29.6399 34.7042 28.8451 35.2903 28.259C35.8763 27.673 36.6712 27.3438 37.5 27.3438C38.3288 27.3438 39.1237 27.673 39.7097 28.259C40.2958 28.8451 40.625 29.6399 40.625 30.4688V32.8125H34.375V30.4688Z" fill="black"/>
</svg>
