<svg width="114" height="114" viewBox="0 0 114 114" fill="none" xmlns="http://www.w3.org/2000/svg">
<rect width="114" height="114" rx="57" fill="#0B0B0B"/>
<rect x="0.5" y="0.5" width="113" height="113" rx="56.5" stroke="#D9D9D9" stroke-opacity="0.2"/>
<path d="M57 63C64.456 63 70.5 57.18 70.5 50C70.5 42.82 64.456 37 57 37C49.544 37 43.5 42.82 43.5 50C43.5 57.18 49.544 63 57 63Z" stroke="#F4C91D" stroke-width="1.4" stroke-linecap="round" stroke-linejoin="round"/>
<path opacity="0.4" d="M48.04 60.0402L48.02 74.8002C48.02 76.6002 49.28 77.4802 50.84 76.7402L56.2 74.2002C56.64 73.9802 57.38 73.9802 57.82 74.2002L63.2 76.7402C64.74 77.4602 66.02 76.6002 66.02 74.8002V59.6802" stroke="#F4C91D" stroke-width="1.4" stroke-linecap="round" stroke-linejoin="round"/>
</svg>
