<svg width="29" height="29" viewBox="0 0 29 29" fill="none" xmlns="http://www.w3.org/2000/svg">
<g filter="url(#filter0_b_3538_2532)">
<rect x="0.968262" y="0.966064" width="27.3107" height="27.3107" rx="13.6553" fill="#131313" fill-opacity="0.2"/>
<path d="M14.6236 5.99194C12.9168 5.99194 11.2484 6.49805 9.82932 7.44626C8.41022 8.39448 7.30416 9.74221 6.65102 11.319C5.99788 12.8958 5.82699 14.6309 6.15996 16.3049C6.49292 17.9788 7.3148 19.5164 8.52164 20.7233C9.72849 21.9301 11.2661 22.752 12.9401 23.085C14.614 23.4179 16.3491 23.2471 17.9259 22.5939C19.5027 21.9408 20.8505 20.8347 21.7987 19.4156C22.7469 17.9965 23.253 16.3281 23.253 14.6214C23.2506 12.3334 22.3406 10.1399 20.7228 8.52211C19.105 6.9043 16.9115 5.99436 14.6236 5.99194ZM19.2702 15.2852H14.6236C14.4475 15.2852 14.2787 15.2152 14.1542 15.0907C14.0297 14.9663 13.9598 14.7974 13.9598 14.6214V9.97475C13.9598 9.7987 14.0297 9.62986 14.1542 9.50538C14.2787 9.38089 14.4475 9.31095 14.6236 9.31095C14.7996 9.31095 14.9685 9.38089 15.0929 9.50538C15.2174 9.62986 15.2874 9.7987 15.2874 9.97475V13.9576H19.2702C19.4462 13.9576 19.6151 14.0275 19.7396 14.152C19.864 14.2765 19.934 14.4453 19.934 14.6214C19.934 14.7974 19.864 14.9663 19.7396 15.0907C19.6151 15.2152 19.4462 15.2852 19.2702 15.2852Z" fill="#C2C2C2"/>
</g>
<defs>
<filter id="filter0_b_3538_2532" x="-14.2043" y="-14.2065" width="57.656" height="57.6559" filterUnits="userSpaceOnUse" color-interpolation-filters="sRGB">
<feFlood flood-opacity="0" result="BackgroundImageFix"/>
<feGaussianBlur in="BackgroundImageFix" stdDeviation="7.58631"/>
<feComposite in2="SourceAlpha" operator="in" result="effect1_backgroundBlur_3538_2532"/>
<feBlend mode="normal" in="SourceGraphic" in2="effect1_backgroundBlur_3538_2532" result="shape"/>
</filter>
</defs>
</svg>
