<svg width="36" height="37" viewBox="0 0 36 37" fill="none" xmlns="http://www.w3.org/2000/svg">
<path d="M18 3.875C15.1075 3.875 12.2799 4.73274 9.87479 6.33976C7.46972 7.94677 5.5952 10.2309 4.48827 12.9033C3.38134 15.5756 3.09171 18.5162 3.65602 21.3532C4.22033 24.1902 5.61323 26.7961 7.65857 28.8414C9.70391 30.8868 12.3098 32.2797 15.1468 32.844C17.9838 33.4083 20.9244 33.1187 23.5967 32.0117C26.2691 30.9048 28.5532 29.0303 30.1602 26.6252C31.7673 24.2201 32.625 21.3925 32.625 18.5C32.6209 14.6225 31.0788 10.9049 28.3369 8.16308C25.5951 5.42125 21.8775 3.87909 18 3.875ZM23.7023 19.4253L16.3898 24.4878C16.221 24.6045 16.0235 24.6729 15.8186 24.6854C15.6138 24.6979 15.4094 24.6542 15.2276 24.5588C15.0458 24.4635 14.8936 24.3203 14.7874 24.1447C14.6812 23.9691 14.625 23.7677 14.625 23.5625V13.4375C14.625 13.2323 14.6812 13.0309 14.7874 12.8553C14.8936 12.6797 15.0458 12.5365 15.2276 12.4412C15.4094 12.3458 15.6138 12.3021 15.8186 12.3146C16.0235 12.3271 16.221 12.3955 16.3898 12.5122L23.7023 17.5747C23.852 17.6782 23.9743 17.8164 24.0588 17.9776C24.1433 18.1388 24.1875 18.318 24.1875 18.5C24.1875 18.682 24.1433 18.8612 24.0588 19.0224C23.9743 19.1836 23.852 19.3218 23.7023 19.4253Z" fill="#D9D9D9"/>
</svg>
