<svg width="28" height="28" viewBox="0 0 28 28" fill="none" xmlns="http://www.w3.org/2000/svg">
<g filter="url(#filter0_b_3538_3208)">
<rect x="0.0661621" y="0.512939" width="27.323" height="27.323" rx="13.6615" fill="#131313" fill-opacity="0.2"/>
<circle cx="13.7277" cy="14.1744" r="7.58973" fill="white"/>
<path d="M13.7278 5.54126C12.0203 5.54126 10.3511 6.0476 8.93139 6.99624C7.51165 7.94488 6.40509 9.29322 5.75166 10.8707C5.09822 12.4483 4.92725 14.1842 5.26037 15.8589C5.59349 17.5336 6.41574 19.0719 7.62313 20.2793C8.83052 21.4866 10.3688 22.3089 12.0435 22.642C13.7182 22.9751 15.4541 22.8042 17.0316 22.1507C18.6092 21.4973 19.9575 20.3907 20.9061 18.971C21.8548 17.5512 22.3611 15.8821 22.3611 14.1746C22.3587 11.8856 21.4483 9.69111 19.8298 8.07257C18.2113 6.45403 16.0168 5.54368 13.7278 5.54126ZM17.5182 12.6521L12.8695 17.3008C12.8078 17.3626 12.7345 17.4116 12.6539 17.445C12.5733 17.4784 12.4869 17.4956 12.3996 17.4956C12.3123 17.4956 12.2259 17.4784 12.1453 17.445C12.0647 17.4116 11.9914 17.3626 11.9297 17.3008L9.93744 15.3085C9.81283 15.1839 9.74283 15.0149 9.74283 14.8387C9.74283 14.6624 9.81283 14.4934 9.93744 14.3688C10.0621 14.2442 10.2311 14.1742 10.4073 14.1742C10.5835 14.1742 10.7525 14.2442 10.8771 14.3688L12.3996 15.8921L16.5785 11.7124C16.6402 11.6507 16.7134 11.6018 16.794 11.5684C16.8746 11.535 16.9611 11.5178 17.0483 11.5178C17.1356 11.5178 17.222 11.535 17.3026 11.5684C17.3832 11.6018 17.4565 11.6507 17.5182 11.7124C17.5799 11.7741 17.6288 11.8474 17.6622 11.928C17.6956 12.0086 17.7128 12.095 17.7128 12.1823C17.7128 12.2695 17.6956 12.3559 17.6622 12.4366C17.6288 12.5172 17.5799 12.5904 17.5182 12.6521Z" fill="#169A3B"/>
</g>
<defs>
<filter id="filter0_b_3538_3208" x="-15.1133" y="-14.6665" width="57.6819" height="57.6819" filterUnits="userSpaceOnUse" color-interpolation-filters="sRGB">
<feFlood flood-opacity="0" result="BackgroundImageFix"/>
<feGaussianBlur in="BackgroundImageFix" stdDeviation="7.58973"/>
<feComposite in2="SourceAlpha" operator="in" result="effect1_backgroundBlur_3538_3208"/>
<feBlend mode="normal" in="SourceGraphic" in2="effect1_backgroundBlur_3538_3208" result="shape"/>
</filter>
</defs>
</svg>
