<svg width="14" height="14" viewBox="0 0 14 14" fill="none" xmlns="http://www.w3.org/2000/svg">
<path d="M13.067 12.1827C13.1251 12.2407 13.1712 12.3097 13.2026 12.3855C13.234 12.4614 13.2502 12.5427 13.2502 12.6249C13.2502 12.707 13.234 12.7883 13.2026 12.8642C13.1712 12.94 13.1251 13.009 13.067 13.067C13.009 13.1251 12.94 13.1712 12.8642 13.2026C12.7883 13.234 12.707 13.2502 12.6249 13.2502C12.5427 13.2502 12.4614 13.234 12.3855 13.2026C12.3097 13.1712 12.2407 13.1251 12.1827 13.067L6.99986 7.88345L1.81705 13.067C1.69977 13.1843 1.54071 13.2502 1.37486 13.2502C1.20901 13.2502 1.04995 13.1843 0.932672 13.067C0.815396 12.9498 0.749512 12.7907 0.749512 12.6249C0.749512 12.459 0.815396 12.2999 0.932672 12.1827L6.11627 6.99986L0.932672 1.81705C0.815396 1.69977 0.749512 1.54071 0.749512 1.37486C0.749512 1.20901 0.815396 1.04995 0.932672 0.932672C1.04995 0.815396 1.20901 0.749512 1.37486 0.749512C1.54071 0.749512 1.69977 0.815396 1.81705 0.932672L6.99986 6.11627L12.1827 0.932672C12.2999 0.815396 12.459 0.749512 12.6249 0.749512C12.7907 0.749512 12.9498 0.815396 13.067 0.932672C13.1843 1.04995 13.2502 1.20901 13.2502 1.37486C13.2502 1.54071 13.1843 1.69977 13.067 1.81705L7.88345 6.99986L13.067 12.1827Z" fill="white"/>
</svg>
